<?xml version="1.0" encoding="us-ascii" standalone="no"?><svg xmlns="http://www.w3.org/2000/svg" xmlns:xlink="http://www.w3.org/1999/xlink" contentStyleType="text/css" height="338px" preserveAspectRatio="none" style="width:291px;height:338px;background:#FFFFFF;" version="1.1" viewBox="0 0 291 338" width="291px" zoomAndPan="magnify"><defs/><g><ellipse cx="149" cy="20" fill="#222222" rx="10" ry="10" style="stroke:#222222;stroke-width:1.0;"/><rect fill="#F1F1F1" height="33.9688" rx="12.5" ry="12.5" style="stroke:#181818;stroke-width:0.5;" width="191" x="53.5" y="50"/><text fill="#000000" font-family="sans-serif" font-size="12" font-weight="bold" lengthAdjust="spacing" textLength="37" x="63.5" y="71.1387">input</text><text fill="#000000" font-family="sans-serif" font-size="12" lengthAdjust="spacing" textLength="134" x="100.5" y="71.1387">: node list, parents list</text><rect fill="#F1F1F1" height="33.9688" rx="12.5" ry="12.5" style="stroke:#181818;stroke-width:0.5;" width="169" x="64.5" y="103.9688"/><text fill="#000000" font-family="sans-serif" font-size="12" lengthAdjust="spacing" textLength="149" x="74.5" y="125.1074">create all zero adj matrix</text><rect fill="#F1F1F1" height="33.9688" rx="12.5" ry="12.5" style="stroke:#181818;stroke-width:0.5;" width="208" x="45" y="201.9375"/><text fill="#000000" font-family="sans-serif" font-size="12" lengthAdjust="spacing" textLength="188" x="55" y="223.0762">column=node, row=all parents</text><rect fill="#F1F1F1" height="33.9688" rx="12.5" ry="12.5" style="stroke:#181818;stroke-width:0.5;" width="177" x="60.5" y="270.9063"/><text fill="#000000" font-family="sans-serif" font-size="12" lengthAdjust="spacing" textLength="157" x="70.5" y="292.0449">set the row X column to 1</text><polygon fill="#F1F1F1" points="113.5,157.9375,184.5,157.9375,196.5,169.9375,184.5,181.9375,113.5,181.9375,101.5,169.9375,113.5,157.9375" style="stroke:#181818;stroke-width:0.5;"/><text fill="#000000" font-family="sans-serif" font-size="11" lengthAdjust="spacing" textLength="71" x="113.5" y="173.7456">for all nodes</text><ellipse cx="24" cy="212.9375" fill="none" rx="11" ry="11" style="stroke:#222222;stroke-width:1.0;"/><ellipse cx="24" cy="212.9375" fill="#222222" rx="6" ry="6" style="stroke:#111111;stroke-width:1.0;"/><line style="stroke:#181818;stroke-width:1.0;" x1="149" x2="149" y1="30" y2="50"/><polygon fill="#181818" points="145,40,149,50,153,40,149,44" style="stroke:#181818;stroke-width:1.0;"/><line style="stroke:#181818;stroke-width:1.0;" x1="149" x2="149" y1="83.9688" y2="103.9688"/><polygon fill="#181818" points="145,93.9688,149,103.9688,153,93.9688,149,97.9688" style="stroke:#181818;stroke-width:1.0;"/><line style="stroke:#181818;stroke-width:1.0;" x1="149" x2="149" y1="235.9063" y2="270.9063"/><polygon fill="#181818" points="145,260.9063,149,270.9063,153,260.9063,149,264.9063" style="stroke:#181818;stroke-width:1.0;"/><line style="stroke:#181818;stroke-width:1.0;" x1="149" x2="149" y1="181.9375" y2="201.9375"/><polygon fill="#181818" points="145,191.9375,149,201.9375,153,191.9375,149,195.9375" style="stroke:#181818;stroke-width:1.0;"/><line style="stroke:#181818;stroke-width:1.0;" x1="149" x2="149" y1="304.875" y2="314.875"/><line style="stroke:#181818;stroke-width:1.0;" x1="149" x2="265" y1="314.875" y2="314.875"/><polygon fill="#181818" points="261,251.4063,265,241.4063,269,251.4063,265,247.4063" style="stroke:#181818;stroke-width:1.0;"/><line style="stroke:#181818;stroke-width:1.0;" x1="265" x2="265" y1="169.9375" y2="314.875"/><line style="stroke:#181818;stroke-width:1.0;" x1="265" x2="196.5" y1="169.9375" y2="169.9375"/><polygon fill="#181818" points="206.5,165.9375,196.5,169.9375,206.5,173.9375,202.5,169.9375" style="stroke:#181818;stroke-width:1.0;"/><line style="stroke:#181818;stroke-width:1.0;" x1="101.5" x2="24" y1="169.9375" y2="169.9375"/><line style="stroke:#181818;stroke-width:1.0;" x1="24" x2="24" y1="169.9375" y2="201.9375"/><polygon fill="#181818" points="20,191.9375,24,201.9375,28,191.9375,24,195.9375" style="stroke:#181818;stroke-width:1.0;"/><line style="stroke:#181818;stroke-width:1.0;" x1="149" x2="149" y1="137.9375" y2="157.9375"/><polygon fill="#181818" points="145,147.9375,149,157.9375,153,147.9375,149,151.9375" style="stroke:#181818;stroke-width:1.0;"/><!--SRC=[BOon3eCm34HtVyMDRSJIDOZ_w1eHLwGASUGOKVNhIw3UplVkDGjgv9rBfMxcd4UHoCYfsO0Qb8krCur4v6VbO8oGCxwiWX3VM8Df-XprlgJCkBr4Jw1xsfrmd9ybRskP-ck0oZvru6yVBwInmHRkBPwu1Z31OoGkyNGJDPFw0m00]--></g></svg>