<?xml version="1.0" encoding="us-ascii" standalone="no"?><svg xmlns="http://www.w3.org/2000/svg" xmlns:xlink="http://www.w3.org/1999/xlink" contentStyleType="text/css" height="439px" preserveAspectRatio="none" style="width:438px;height:439px;background:#FFFFFF;" version="1.1" viewBox="0 0 438 439" width="438px" zoomAndPan="magnify"><defs/><g><ellipse cx="219.5" cy="20" fill="#222222" rx="10" ry="10" style="stroke:#222222;stroke-width:1.0;"/><rect fill="#F1F1F1" height="33.9688" rx="12.5" ry="12.5" style="stroke:#181818;stroke-width:0.5;" width="222" x="108.5" y="50"/><text fill="#000000" font-family="sans-serif" font-size="12" font-weight="bold" lengthAdjust="spacing" textLength="37" x="118.5" y="71.1387">input</text><text fill="#000000" font-family="sans-serif" font-size="12" lengthAdjust="spacing" textLength="165" x="155.5" y="71.1387">: line, term to add, to limit?</text><polygon fill="#F1F1F1" points="121,103.9688,318,103.9688,330,115.9688,318,127.9688,121,127.9688,109,115.9688,121,103.9688" style="stroke:#181818;stroke-width:0.5;"/><text fill="#000000" font-family="sans-serif" font-size="11" lengthAdjust="spacing" textLength="197" x="121" y="119.7769">Node is non-stochastic or random?</text><text fill="#000000" font-family="sans-serif" font-size="11" lengthAdjust="spacing" textLength="20" x="89" y="113.3745">yes</text><text fill="#000000" font-family="sans-serif" font-size="11" lengthAdjust="spacing" textLength="14" x="330" y="113.3745">no</text><rect fill="#F1F1F1" height="33.9688" rx="12.5" ry="12.5" style="stroke:#181818;stroke-width:0.5;" width="155" x="21.5" y="137.9688"/><text fill="#000000" font-family="sans-serif" font-size="12" lengthAdjust="spacing" textLength="135" x="31.5" y="159.1074">no change, return line</text><ellipse cx="99" cy="216.9063" fill="none" rx="11" ry="11" style="stroke:#222222;stroke-width:1.0;"/><ellipse cx="99" cy="216.9063" fill="#222222" rx="6" ry="6" style="stroke:#111111;stroke-width:1.0;"/><rect fill="#F1F1F1" height="47.9375" rx="12.5" ry="12.5" style="stroke:#181818;stroke-width:0.5;" width="174" x="253" y="137.9688"/><text fill="#000000" font-family="sans-serif" font-size="12" lengthAdjust="spacing" textLength="126" x="263" y="159.1074">find the end of index</text><text fill="#000000" font-family="sans-serif" font-size="12" lengthAdjust="spacing" textLength="150" x="267" y="173.0762">of the end of the params</text><polygon fill="#F1F1F1" points="143.5,291.9063,295.5,291.9063,307.5,304.7109,295.5,317.5156,143.5,317.5156,131.5,304.7109,143.5,291.9063" style="stroke:#181818;stroke-width:0.5;"/><text fill="#000000" font-family="sans-serif" font-size="11" lengthAdjust="spacing" textLength="122" x="143.5" y="302.1167">param is blocked and</text><text fill="#000000" font-family="sans-serif" font-size="11" lengthAdjust="spacing" textLength="148" x="147.5" y="314.9214">augment must be limited?</text><text fill="#000000" font-family="sans-serif" font-size="11" lengthAdjust="spacing" textLength="14" x="117.5" y="302.1167">no</text><text fill="#000000" font-family="sans-serif" font-size="11" lengthAdjust="spacing" textLength="20" x="307.5" y="302.1167">yes</text><rect fill="#F1F1F1" height="47.9375" rx="12.5" ry="12.5" style="stroke:#181818;stroke-width:0.5;" width="129" x="57" y="327.5156"/><text fill="#000000" font-family="sans-serif" font-size="12" lengthAdjust="spacing" textLength="96" x="67" y="348.6543">add term to the</text><text fill="#000000" font-family="sans-serif" font-size="12" lengthAdjust="spacing" textLength="105" x="71" y="362.623">end of parameter</text><rect fill="#F1F1F1" height="33.9688" rx="12.5" ry="12.5" style="stroke:#181818;stroke-width:0.5;" width="135" x="250" y="327.5156"/><text fill="#000000" font-family="sans-serif" font-size="12" lengthAdjust="spacing" textLength="115" x="260" y="348.6543">skip the parameter</text><polygon fill="#F1F1F1" points="219.5,381.4531,231.5,393.4531,219.5,405.4531,207.5,393.4531,219.5,381.4531" style="stroke:#181818;stroke-width:0.5;"/><polygon fill="#F1F1F1" points="179.5,247.9063,259.5,247.9063,271.5,259.9063,259.5,271.9063,179.5,271.9063,167.5,259.9063,179.5,247.9063" style="stroke:#181818;stroke-width:0.5;"/><text fill="#000000" font-family="sans-serif" font-size="11" lengthAdjust="spacing" textLength="80" x="179.5" y="263.7144">for all params</text><ellipse cx="24" cy="302.9063" fill="none" rx="11" ry="11" style="stroke:#222222;stroke-width:1.0;"/><ellipse cx="24" cy="302.9063" fill="#222222" rx="6" ry="6" style="stroke:#111111;stroke-width:1.0;"/><line style="stroke:#181818;stroke-width:1.0;" x1="219.5" x2="219.5" y1="30" y2="50"/><polygon fill="#181818" points="215.5,40,219.5,50,223.5,40,219.5,44" style="stroke:#181818;stroke-width:1.0;"/><line style="stroke:#181818;stroke-width:1.0;" x1="99" x2="99" y1="171.9375" y2="205.9063"/><polygon fill="#181818" points="95,195.9063,99,205.9063,103,195.9063,99,199.9063" style="stroke:#181818;stroke-width:1.0;"/><line style="stroke:#181818;stroke-width:1.0;" x1="109" x2="99" y1="115.9688" y2="115.9688"/><line style="stroke:#181818;stroke-width:1.0;" x1="99" x2="99" y1="115.9688" y2="137.9688"/><polygon fill="#181818" points="95,127.9688,99,137.9688,103,127.9688,99,131.9688" style="stroke:#181818;stroke-width:1.0;"/><line style="stroke:#181818;stroke-width:1.0;" x1="330" x2="340" y1="115.9688" y2="115.9688"/><line style="stroke:#181818;stroke-width:1.0;" x1="340" x2="340" y1="115.9688" y2="137.9688"/><polygon fill="#181818" points="336,127.9688,340,137.9688,344,127.9688,340,131.9688" style="stroke:#181818;stroke-width:1.0;"/><line style="stroke:#181818;stroke-width:1.0;" x1="340" x2="340" y1="185.9063" y2="232.9063"/><line style="stroke:#181818;stroke-width:1.0;" x1="340" x2="219.5" y1="232.9063" y2="232.9063"/><line style="stroke:#181818;stroke-width:1.0;" x1="219.5" x2="219.5" y1="232.9063" y2="247.9063"/><polygon fill="#181818" points="215.5,237.9063,219.5,247.9063,223.5,237.9063,219.5,241.9063" style="stroke:#181818;stroke-width:1.0;"/><line style="stroke:#181818;stroke-width:1.0;" x1="219.5" x2="219.5" y1="83.9688" y2="103.9688"/><polygon fill="#181818" points="215.5,93.9688,219.5,103.9688,223.5,93.9688,219.5,97.9688" style="stroke:#181818;stroke-width:1.0;"/><line style="stroke:#181818;stroke-width:1.0;" x1="131.5" x2="121.5" y1="304.7109" y2="304.7109"/><line style="stroke:#181818;stroke-width:1.0;" x1="121.5" x2="121.5" y1="304.7109" y2="327.5156"/><polygon fill="#181818" points="117.5,317.5156,121.5,327.5156,125.5,317.5156,121.5,321.5156" style="stroke:#181818;stroke-width:1.0;"/><line style="stroke:#181818;stroke-width:1.0;" x1="307.5" x2="317.5" y1="304.7109" y2="304.7109"/><line style="stroke:#181818;stroke-width:1.0;" x1="317.5" x2="317.5" y1="304.7109" y2="327.5156"/><polygon fill="#181818" points="313.5,317.5156,317.5,327.5156,321.5,317.5156,317.5,321.5156" style="stroke:#181818;stroke-width:1.0;"/><line style="stroke:#181818;stroke-width:1.0;" x1="121.5" x2="121.5" y1="375.4531" y2="393.4531"/><line style="stroke:#181818;stroke-width:1.0;" x1="121.5" x2="207.5" y1="393.4531" y2="393.4531"/><polygon fill="#181818" points="197.5,389.4531,207.5,393.4531,197.5,397.4531,201.5,393.4531" style="stroke:#181818;stroke-width:1.0;"/><line style="stroke:#181818;stroke-width:1.0;" x1="317.5" x2="317.5" y1="361.4844" y2="393.4531"/><line style="stroke:#181818;stroke-width:1.0;" x1="317.5" x2="231.5" y1="393.4531" y2="393.4531"/><polygon fill="#181818" points="241.5,389.4531,231.5,393.4531,241.5,397.4531,237.5,393.4531" style="stroke:#181818;stroke-width:1.0;"/><line style="stroke:#181818;stroke-width:1.0;" x1="219.5" x2="219.5" y1="271.9063" y2="291.9063"/><polygon fill="#181818" points="215.5,281.9063,219.5,291.9063,223.5,281.9063,219.5,285.9063" style="stroke:#181818;stroke-width:1.0;"/><line style="stroke:#181818;stroke-width:1.0;" x1="219.5" x2="219.5" y1="405.4531" y2="415.4531"/><line style="stroke:#181818;stroke-width:1.0;" x1="219.5" x2="407" y1="415.4531" y2="415.4531"/><polygon fill="#181818" points="403,346.6797,407,336.6797,411,346.6797,407,342.6797" style="stroke:#181818;stroke-width:1.0;"/><line style="stroke:#181818;stroke-width:1.0;" x1="407" x2="407" y1="259.9063" y2="415.4531"/><line style="stroke:#181818;stroke-width:1.0;" x1="407" x2="271.5" y1="259.9063" y2="259.9063"/><polygon fill="#181818" points="281.5,255.9063,271.5,259.9063,281.5,263.9063,277.5,259.9063" style="stroke:#181818;stroke-width:1.0;"/><line style="stroke:#181818;stroke-width:1.0;" x1="167.5" x2="24" y1="259.9063" y2="259.9063"/><line style="stroke:#181818;stroke-width:1.0;" x1="24" x2="24" y1="259.9063" y2="291.9063"/><polygon fill="#181818" points="20,281.9063,24,291.9063,28,281.9063,24,285.9063" style="stroke:#181818;stroke-width:1.0;"/><!--SRC=[JP1DSiCW38NtEeMMZYUzWBt83Ng2ReYHOqr0U42UjBUlmAuR5e1-U7nFHLrM6FgUPTsqxmSCB7H5fHnH4phlh_KC75bl8m3mZDrdyeHSK99y54tJuehoX2bZTk9Jl5rG5nBiVgXS06qDaj3Qv67QcNJBqZuQMz4aLg1G23j9H__Cugi8afrfHWlf-qlgzIrRhwlBBfOHBCKpl1OEfZCRYmlXAEwQbRp55VqUqlGaZyPhgcvxH1B5k1N5E-rsoPy-_h0Qcitad4y5iFS7JbCdg-s-Tald3DhZykJr7_kjjz7RtWm0r9dy0W00]--></g></svg>