<?xml version="1.0" encoding="us-ascii" standalone="no"?><svg xmlns="http://www.w3.org/2000/svg" xmlns:xlink="http://www.w3.org/1999/xlink" contentStyleType="text/css" height="877px" preserveAspectRatio="none" style="width:1199px;height:877px;background:#FFFFFF;" version="1.1" viewBox="0 0 1199 877" width="1199px" zoomAndPan="magnify"><defs/><g><rect fill="#87CEEB" height="55.302" style="stroke:#181818;stroke-width:1.0;" width="10" x="258" y="674.4679"/><rect fill="#87CEEB" height="14" style="stroke:#181818;stroke-width:1.0;" width="10" x="258" y="773.9209"/><rect fill="none" height="175.906" style="stroke:#000000;stroke-width:1.5;" width="832" x="205.5" y="404.1089"/><line style="stroke:#181818;stroke-width:0.5;stroke-dasharray:5.0,5.0;" x1="24" x2="24" y1="81.2969" y2="796.9209"/><line style="stroke:#181818;stroke-width:0.5;stroke-dasharray:5.0,5.0;" x1="262.5" x2="262.5" y1="81.2969" y2="796.9209"/><line style="stroke:#181818;stroke-width:0.5;stroke-dasharray:5.0,5.0;" x1="441.5" x2="441.5" y1="81.2969" y2="796.9209"/><line style="stroke:#181818;stroke-width:0.5;stroke-dasharray:5.0,5.0;" x1="635.5" x2="635.5" y1="81.2969" y2="796.9209"/><line style="stroke:#181818;stroke-width:0.5;stroke-dasharray:5.0,5.0;" x1="830.5" x2="830.5" y1="81.2969" y2="796.9209"/><line style="stroke:#181818;stroke-width:0.5;stroke-dasharray:5.0,5.0;" x1="966.5" x2="966.5" y1="81.2969" y2="796.9209"/><line style="stroke:#181818;stroke-width:0.5;stroke-dasharray:5.0,5.0;" x1="1115.5" x2="1115.5" y1="81.2969" y2="796.9209"/><text fill="#000000" font-family="sans-serif" font-size="14" lengthAdjust="spacing" textLength="32" x="5" y="77.9951">User</text><ellipse cx="24" cy="13.5" fill="#179C7D" rx="8" ry="8" style="stroke:#181818;stroke-width:0.5;"/><path d="M24,21.5 L24,48.5 M11,29.5 L37,29.5 M24,48.5 L11,63.5 M24,48.5 L37,63.5 " fill="none" style="stroke:#181818;stroke-width:0.5;"/><text fill="#000000" font-family="sans-serif" font-size="14" lengthAdjust="spacing" textLength="32" x="5" y="808.916">User</text><ellipse cx="24" cy="820.7178" fill="#179C7D" rx="8" ry="8" style="stroke:#181818;stroke-width:0.5;"/><path d="M24,828.7178 L24,855.7178 M11,836.7178 L37,836.7178 M24,855.7178 L11,870.7178 M24,855.7178 L37,870.7178 " fill="none" style="stroke:#181818;stroke-width:0.5;"/><rect fill="#C2F0FF" height="30.2969" rx="2.5" ry="2.5" style="stroke:#181818;stroke-width:0.5;" width="95" x="215.5" y="50"/><text fill="#000000" font-family="sans-serif" font-size="14" lengthAdjust="spacing" textLength="81" x="222.5" y="69.9951">Description</text><rect fill="#C2F0FF" height="30.2969" rx="2.5" ry="2.5" style="stroke:#181818;stroke-width:0.5;" width="95" x="215.5" y="795.9209"/><text fill="#000000" font-family="sans-serif" font-size="14" lengthAdjust="spacing" textLength="81" x="222.5" y="815.916">Description</text><rect fill="#E2E2F0" height="30.2969" rx="2.5" ry="2.5" style="stroke:#181818;stroke-width:0.5;" width="129" x="377.5" y="50"/><text fill="#000000" font-family="sans-serif" font-size="14" lengthAdjust="spacing" textLength="115" x="384.5" y="69.9951">outline_splitter()</text><rect fill="#E2E2F0" height="30.2969" rx="2.5" ry="2.5" style="stroke:#181818;stroke-width:0.5;" width="129" x="377.5" y="795.9209"/><text fill="#000000" font-family="sans-serif" font-size="14" lengthAdjust="spacing" textLength="115" x="384.5" y="815.916">outline_splitter()</text><rect fill="#E2E2F0" height="30.2969" rx="2.5" ry="2.5" style="stroke:#181818;stroke-width:0.5;" width="239" x="516.5" y="50"/><text fill="#000000" font-family="sans-serif" font-size="14" lengthAdjust="spacing" textLength="225" x="523.5" y="69.9951">radom_connection_adj_matrix()</text><rect fill="#E2E2F0" height="30.2969" rx="2.5" ry="2.5" style="stroke:#181818;stroke-width:0.5;" width="239" x="516.5" y="795.9209"/><text fill="#000000" font-family="sans-serif" font-size="14" lengthAdjust="spacing" textLength="225" x="523.5" y="815.916">radom_connection_adj_matrix()</text><rect fill="#E2E2F0" height="30.2969" rx="2.5" ry="2.5" style="stroke:#181818;stroke-width:0.5;" width="131" x="765.5" y="50"/><text fill="#000000" font-family="sans-serif" font-size="14" lengthAdjust="spacing" textLength="117" x="772.5" y="69.9951">get_new_terms()</text><rect fill="#E2E2F0" height="30.2969" rx="2.5" ry="2.5" style="stroke:#181818;stroke-width:0.5;" width="131" x="765.5" y="795.9209"/><text fill="#000000" font-family="sans-serif" font-size="14" lengthAdjust="spacing" textLength="117" x="772.5" y="815.916">get_new_terms()</text><rect fill="#E2E2F0" height="30.2969" rx="2.5" ry="2.5" style="stroke:#181818;stroke-width:0.5;" width="121" x="906.5" y="50"/><text fill="#000000" font-family="sans-serif" font-size="14" lengthAdjust="spacing" textLength="107" x="913.5" y="69.9951">augment_line()</text><rect fill="#E2E2F0" height="30.2969" rx="2.5" ry="2.5" style="stroke:#181818;stroke-width:0.5;" width="121" x="906.5" y="795.9209"/><text fill="#000000" font-family="sans-serif" font-size="14" lengthAdjust="spacing" textLength="107" x="913.5" y="815.916">augment_line()</text><rect fill="#E2E2F0" height="30.2969" rx="2.5" ry="2.5" style="stroke:#181818;stroke-width:0.5;" width="156" x="1037.5" y="50"/><text fill="#000000" font-family="sans-serif" font-size="14" lengthAdjust="spacing" textLength="142" x="1044.5" y="69.9951">description_parser()</text><rect fill="#E2E2F0" height="30.2969" rx="2.5" ry="2.5" style="stroke:#181818;stroke-width:0.5;" width="156" x="1037.5" y="795.9209"/><text fill="#000000" font-family="sans-serif" font-size="14" lengthAdjust="spacing" textLength="142" x="1044.5" y="815.916">description_parser()</text><rect fill="#87CEEB" height="55.302" style="stroke:#181818;stroke-width:1.0;" width="10" x="258" y="674.4679"/><rect fill="#87CEEB" height="14" style="stroke:#181818;stroke-width:1.0;" width="10" x="258" y="773.9209"/><polygon fill="#181818" points="251,153.9009,261,157.9009,251,161.9009,255,157.9009" style="stroke:#181818;stroke-width:1.0;"/><line style="stroke:#181818;stroke-width:1.0;" x1="24" x2="257" y1="157.9009" y2="157.9009"/><text fill="#000000" font-family="sans-serif" font-size="13" lengthAdjust="spacing" textLength="215" x="31" y="107.3783">call .randomize_connections_to()</text><text fill="#000000" font-family="sans-serif" font-size="13" lengthAdjust="spacing" textLength="4" x="31" y="122.5293">&#160;</text><text fill="#000000" font-family="sans-serif" font-size="13" lengthAdjust="spacing" textLength="193" x="31" y="137.6803">[child outline, guideline, tags,</text><text fill="#000000" font-family="sans-serif" font-size="13" lengthAdjust="spacing" textLength="70" x="35" y="152.8313">tag, mask]</text><line style="stroke:#181818;stroke-width:1.0;" x1="263" x2="305" y1="202.2029" y2="202.2029"/><line style="stroke:#181818;stroke-width:1.0;" x1="305" x2="305" y1="202.2029" y2="215.2029"/><line style="stroke:#181818;stroke-width:1.0;" x1="264" x2="305" y1="215.2029" y2="215.2029"/><polygon fill="#181818" points="274,211.2029,264,215.2029,274,219.2029,270,215.2029" style="stroke:#181818;stroke-width:1.0;"/><text fill="#000000" font-family="sans-serif" font-size="13" lengthAdjust="spacing" textLength="80" x="270" y="181.9823">child outline</text><text fill="#000000" font-family="sans-serif" font-size="13" lengthAdjust="spacing" textLength="47" x="274" y="197.1333">is valid</text><line style="stroke:#181818;stroke-width:1.0;" x1="263" x2="305" y1="259.5049" y2="259.5049"/><line style="stroke:#181818;stroke-width:1.0;" x1="305" x2="305" y1="259.5049" y2="272.5049"/><line style="stroke:#181818;stroke-width:1.0;" x1="264" x2="305" y1="272.5049" y2="272.5049"/><polygon fill="#181818" points="274,268.5049,264,272.5049,274,276.5049,270,272.5049" style="stroke:#181818;stroke-width:1.0;"/><text fill="#000000" font-family="sans-serif" font-size="13" lengthAdjust="spacing" textLength="65" x="270" y="239.2843">no similar</text><text fill="#000000" font-family="sans-serif" font-size="13" lengthAdjust="spacing" textLength="127" x="274" y="254.4353">parent &amp; child node</text><polygon fill="#181818" points="430,297.6559,440,301.6559,430,305.6559,434,301.6559" style="stroke:#181818;stroke-width:1.0;"/><line style="stroke:#181818;stroke-width:1.0;" x1="263" x2="436" y1="301.6559" y2="301.6559"/><text fill="#000000" font-family="sans-serif" font-size="13" lengthAdjust="spacing" textLength="45" x="270" y="296.5863">outline</text><polygon fill="#181818" points="274,326.8069,264,330.8069,274,334.8069,270,330.8069" style="stroke:#181818;stroke-width:1.0;"/><line style="stroke:#181818;stroke-width:1.0;" x1="268" x2="441" y1="330.8069" y2="330.8069"/><text fill="#000000" font-family="sans-serif" font-size="13" lengthAdjust="spacing" textLength="96" x="280" y="325.7373">[nodes, edges]</text><polygon fill="#181818" points="624,355.9579,634,359.9579,624,363.9579,628,359.9579" style="stroke:#181818;stroke-width:1.0;"/><line style="stroke:#181818;stroke-width:1.0;" x1="263" x2="630" y1="359.9579" y2="359.9579"/><text fill="#000000" font-family="sans-serif" font-size="13" lengthAdjust="spacing" textLength="220" x="270" y="354.8883">parent/child nodes, mask, density</text><polygon fill="#181818" points="274,385.1089,264,389.1089,274,393.1089,270,389.1089" style="stroke:#181818;stroke-width:1.0;"/><line style="stroke:#181818;stroke-width:1.0;" x1="268" x2="635" y1="389.1089" y2="389.1089"/><text fill="#000000" font-family="sans-serif" font-size="13" lengthAdjust="spacing" textLength="113" x="280" y="384.0393">adjacency matrix</text><path d="M205.5,404.1089 L281.5,404.1089 L281.5,411.2599 L271.5,421.2599 L205.5,421.2599 L205.5,404.1089 " fill="#EEEEEE" style="stroke:#000000;stroke-width:1.5;"/><rect fill="none" height="175.906" style="stroke:#000000;stroke-width:1.5;" width="832" x="205.5" y="404.1089"/><text fill="#000000" font-family="sans-serif" font-size="13" font-weight="bold" lengthAdjust="spacing" textLength="31" x="220.5" y="417.1903">loop</text><text fill="#000000" font-family="sans-serif" font-size="11" font-weight="bold" lengthAdjust="spacing" textLength="83" x="296.5" y="416.3338">[child nodes]</text><polygon fill="#181818" points="819,438.4109,829,442.4109,819,446.4109,823,442.4109" style="stroke:#181818;stroke-width:1.0;"/><line style="stroke:#181818;stroke-width:1.0;" x1="263" x2="825" y1="442.4109" y2="442.4109"/><text fill="#000000" font-family="sans-serif" font-size="13" lengthAdjust="spacing" textLength="134" x="270" y="437.3413">new incoming edges</text><polygon fill="#181818" points="274,467.5619,264,471.5619,274,475.5619,270,471.5619" style="stroke:#181818;stroke-width:1.0;"/><line style="stroke:#181818;stroke-width:1.0;" x1="268" x2="830" y1="471.5619" y2="471.5619"/><text fill="#000000" font-family="sans-serif" font-size="13" lengthAdjust="spacing" textLength="107" x="280" y="466.4923">additional terms</text><polygon fill="#181818" points="955,496.7129,965,500.7129,955,504.7129,959,500.7129" style="stroke:#181818;stroke-width:1.0;"/><line style="stroke:#181818;stroke-width:1.0;" x1="263" x2="961" y1="500.7129" y2="500.7129"/><text fill="#000000" font-family="sans-serif" font-size="13" lengthAdjust="spacing" textLength="139" x="270" y="495.6433">line, additional terms</text><polygon fill="#181818" points="274,525.8639,264,529.8639,274,533.8639,270,529.8639" style="stroke:#181818;stroke-width:1.0;"/><line style="stroke:#181818;stroke-width:1.0;" x1="268" x2="966" y1="529.8639" y2="529.8639"/><text fill="#000000" font-family="sans-serif" font-size="13" lengthAdjust="spacing" textLength="102" x="280" y="524.7943">augmented line</text><line style="stroke:#181818;stroke-width:1.0;" x1="263" x2="305" y1="559.0149" y2="559.0149"/><line style="stroke:#181818;stroke-width:1.0;" x1="305" x2="305" y1="559.0149" y2="572.0149"/><line style="stroke:#181818;stroke-width:1.0;" x1="264" x2="305" y1="572.0149" y2="572.0149"/><polygon fill="#181818" points="274,568.0149,264,572.0149,274,576.0149,270,572.0149" style="stroke:#181818;stroke-width:1.0;"/><text fill="#000000" font-family="sans-serif" font-size="13" lengthAdjust="spacing" textLength="105" x="270" y="553.9453">update edge list</text><polygon fill="#181818" points="1103.5,604.1659,1113.5,608.1659,1103.5,612.1659,1107.5,608.1659" style="stroke:#181818;stroke-width:1.0;"/><line style="stroke:#181818;stroke-width:1.0;" x1="263" x2="1109.5" y1="608.1659" y2="608.1659"/><text fill="#000000" font-family="sans-serif" font-size="13" lengthAdjust="spacing" textLength="76" x="270" y="603.0963">new outline</text><polygon fill="#181818" points="274,633.3169,264,637.3169,274,641.3169,270,637.3169" style="stroke:#181818;stroke-width:1.0;"/><line style="stroke:#181818;stroke-width:1.0;" x1="268" x2="1114.5" y1="637.3169" y2="637.3169"/><text fill="#000000" font-family="sans-serif" font-size="13" lengthAdjust="spacing" textLength="86" x="280" y="632.2473">nodes, edges</text><line style="stroke:#181818;stroke-width:1.0;" x1="263" x2="310" y1="661.4679" y2="661.4679"/><line style="stroke:#181818;stroke-width:1.0;" x1="310" x2="310" y1="661.4679" y2="674.4679"/><line style="stroke:#181818;stroke-width:1.0;" x1="269" x2="310" y1="674.4679" y2="674.4679"/><polygon fill="#181818" points="279,670.4679,269,674.4679,279,678.4679,275,674.4679" style="stroke:#181818;stroke-width:1.0;"/><text fill="#000000" font-family="sans-serif" font-size="13" lengthAdjust="spacing" textLength="103" x="275" y="656.3983">setup attributes</text><line style="stroke:#181818;stroke-width:1.0;" x1="268" x2="310" y1="728.7699" y2="728.7699"/><line style="stroke:#181818;stroke-width:1.0;" x1="310" x2="310" y1="728.7699" y2="741.7699"/><line style="stroke:#181818;stroke-width:1.0;" x1="263" x2="310" y1="741.7699" y2="741.7699"/><polygon fill="#181818" points="273,737.7699,263,741.7699,273,745.7699,269,741.7699" style="stroke:#181818;stroke-width:1.0;"/><text fill="#000000" font-family="sans-serif" font-size="13" font-style="italic" lengthAdjust="spacing" textLength="101" x="275" y="708.5493">see Description</text><text fill="#000000" font-family="sans-serif" font-size="13" lengthAdjust="spacing" textLength="4" x="376" y="708.5493">&#160;</text><text fill="#000000" font-family="sans-serif" font-size="13" lengthAdjust="spacing" textLength="4" x="275" y="723.7003">&#160;</text><text fill="#000000" font-family="sans-serif" font-size="13" font-style="italic" lengthAdjust="spacing" textLength="140" x="279" y="723.7003">instantiation diagram</text><line style="stroke:#181818;stroke-width:1.0;" x1="263" x2="310" y1="760.9209" y2="760.9209"/><line style="stroke:#181818;stroke-width:1.0;" x1="310" x2="310" y1="760.9209" y2="773.9209"/><line style="stroke:#181818;stroke-width:1.0;" x1="269" x2="310" y1="773.9209" y2="773.9209"/><polygon fill="#181818" points="279,769.9209,269,773.9209,279,777.9209,275,773.9209" style="stroke:#181818;stroke-width:1.0;"/><text fill="#000000" font-family="sans-serif" font-size="13" lengthAdjust="spacing" textLength="165" x="275" y="755.8513">.randomize_parameters()</text><!--SRC=[TLF1RjGm4BtxAqQjX5ef476gs0DI4KSEIC2fYwB17WMtZXrvd9RbwndRoIRPYhraFNxp_ERD3EeK8lnWYd3z_kw3lZDgn9YijYFw19-9TRHZii43SZd2zVquEgin1tVWgp0bPprrBFSfKRovlSfPot4FZcZ2qEdWFUbCrQ5vx0PCqVwPyw8tz-PndzLJwZozT48ty8oJsFTyt2DnwWVogSkAPg24liXfZpDhYPrSy5bsllXQ0agfuj3RZyM10sXq3jv5z5A2_KkRAhXBuURsw8_-GV-spi3iIGFzP0tLlmbxReu-VniOa9z-gkBiohzD1K5QXcTqrbpWV02sWtKOCqZKIy7mPaxtmT0Pl_JWiB2g9RAoFUGCRe1CJxnAgcqupFJjIivLV2DEURRff2fo9PIEeYQlJr3xgfGBOTp8OmNoMnvQ-YXrqGjOhyLStrSv1RW0jYyOcsr71sKYr8vmxlS1gkslm1axOpQKTMx8bAmzOKLCey54HPTWE2doHftjMiUcrh7ulSQt_LiDlsWjKvf6m2I-_PgINAFCrtD-joxXjwVJ9pVHHLRRCj5sQzisJqRRMiz9njsMhGLZiOyujAsesl5Uq6r6NBgF0ublidN_q_8F]--></g></svg>