<?xml version="1.0" encoding="us-ascii" standalone="no"?><svg xmlns="http://www.w3.org/2000/svg" xmlns:xlink="http://www.w3.org/1999/xlink" contentStyleType="text/css" height="1610px" preserveAspectRatio="none" style="width:1138px;height:1610px;background:#FFFFFF;" version="1.1" viewBox="0 0 1138 1610" width="1138px" zoomAndPan="magnify"><defs/><g><rect fill="none" height="20.9531" style="stroke:none;stroke-width:1.0;" width="1048.5" x="15" y="12.7451"/><rect fill="#B2D8D8" height="1585.3921" style="stroke:#B2D8D8;stroke-width:1.0;" width="280.5" x="15" y="12.7451"/><ellipse cx="145.5" cy="48.6982" fill="#222222" rx="10" ry="10" style="stroke:#222222;stroke-width:1.0;"/><rect fill="#F1F1F1" height="47.9375" rx="12.5" ry="12.5" style="stroke:#181818;stroke-width:0.5;" width="190" x="50.5" y="78.6982"/><text fill="#000000" font-family="sans-serif" font-size="12" font-weight="bold" lengthAdjust="spacing" textLength="49" x="60.5" y="99.8369">inputs:</text><text fill="#000000" font-family="sans-serif" font-size="12" lengthAdjust="spacing" textLength="117" x="113.5" y="99.8369">description (dict) &amp;</text><text fill="#000000" font-family="sans-serif" font-size="12" lengthAdjust="spacing" textLength="100" x="112.5" y="113.8057">infer edge (bool)</text><polygon fill="#F1F1F1" points="110.5,379.0918,180.5,379.0918,192.5,391.0918,180.5,403.0918,110.5,403.0918,98.5,391.0918,110.5,379.0918" style="stroke:#181818;stroke-width:0.5;"/><text fill="#000000" font-family="sans-serif" font-size="11" lengthAdjust="spacing" textLength="141" x="149.5" y="413.3022">yes: node &amp; edge sublist</text><text fill="#000000" font-family="sans-serif" font-size="11" lengthAdjust="spacing" textLength="70" x="110.5" y="394.8999">infer edges?</text><text fill="#000000" font-family="sans-serif" font-size="11" lengthAdjust="spacing" textLength="14" x="84.5" y="388.4976">no</text><polygon fill="#F1F1F1" points="145.5,793.6079,157.5,805.6079,145.5,817.6079,133.5,805.6079,145.5,793.6079" style="stroke:#181818;stroke-width:0.5;"/><text fill="#000000" font-family="sans-serif" font-size="11" lengthAdjust="spacing" textLength="118" x="151.5" y="791.0137">updated edge sublist</text><rect fill="#F1F1F1" height="47.9375" rx="12.5" ry="12.5" style="stroke:#181818;stroke-width:0.5;" width="174" x="58.5" y="837.6079"/><text fill="#000000" font-family="sans-serif" font-size="12" lengthAdjust="spacing" textLength="150" x="68.5" y="858.7466">check naming standards</text><text fill="#000000" font-family="sans-serif" font-size="12" lengthAdjust="spacing" textLength="56" x="72.5" y="872.7153">for nodes</text><rect fill="#F1F1F1" height="33.9688" rx="12.5" ry="12.5" style="stroke:#181818;stroke-width:0.5;" width="150" x="70.5" y="953.9478"/><text fill="#000000" font-family="sans-serif" font-size="12" lengthAdjust="spacing" textLength="130" x="80.5" y="975.0864">raise DescriptionError</text><ellipse cx="145.5" cy="1025.4321" fill="none" rx="10" ry="10" style="stroke:#222222;stroke-width:1.5;"/><line style="stroke:#222222;stroke-width:2.5;" x1="139.3128" x2="151.6872" y1="1019.2449" y2="1031.6193"/><line style="stroke:#222222;stroke-width:2.5;" x1="151.6872" x2="139.3128" y1="1019.2449" y2="1031.6193"/><polygon fill="#F1F1F1" points="110,905.5454,181,905.5454,193,917.5454,181,929.5454,110,929.5454,98,917.5454,110,905.5454" style="stroke:#181818;stroke-width:0.5;"/><text fill="#000000" font-family="sans-serif" font-size="11" lengthAdjust="spacing" textLength="20" x="149.5" y="939.7559">yes</text><text fill="#000000" font-family="sans-serif" font-size="11" lengthAdjust="spacing" textLength="71" x="110" y="921.3535">error found?</text><text fill="#000000" font-family="sans-serif" font-size="11" lengthAdjust="spacing" textLength="14" x="193" y="914.9512">no</text><rect fill="#F1F1F1" height="33.9688" rx="12.5" ry="12.5" style="stroke:#181818;stroke-width:0.5;" width="249" x="21" y="1077.4321"/><text fill="#000000" font-family="sans-serif" font-size="12" lengthAdjust="spacing" textLength="229" x="31" y="1098.5708">check nodes/edges name consistency</text><rect fill="#F1F1F1" height="33.9688" rx="12.5" ry="12.5" style="stroke:#181818;stroke-width:0.5;" width="150" x="70.5" y="1179.8032"/><text fill="#000000" font-family="sans-serif" font-size="12" lengthAdjust="spacing" textLength="130" x="80.5" y="1200.9419">raise DescriptionError</text><ellipse cx="145.5" cy="1251.2876" fill="none" rx="10" ry="10" style="stroke:#222222;stroke-width:1.5;"/><line style="stroke:#222222;stroke-width:2.5;" x1="139.3128" x2="151.6872" y1="1245.1004" y2="1257.4748"/><line style="stroke:#222222;stroke-width:2.5;" x1="151.6872" x2="139.3128" y1="1245.1004" y2="1257.4748"/><polygon fill="#F1F1F1" points="110,1131.4009,181,1131.4009,193,1143.4009,181,1155.4009,110,1155.4009,98,1143.4009,110,1131.4009" style="stroke:#181818;stroke-width:0.5;"/><text fill="#000000" font-family="sans-serif" font-size="11" lengthAdjust="spacing" textLength="20" x="149.5" y="1165.6113">yes</text><text fill="#000000" font-family="sans-serif" font-size="11" lengthAdjust="spacing" textLength="71" x="110" y="1147.209">error found?</text><text fill="#000000" font-family="sans-serif" font-size="11" lengthAdjust="spacing" textLength="14" x="193" y="1140.8066">no</text><rect fill="#F1F1F1" height="47.9375" rx="12.5" ry="12.5" style="stroke:#181818;stroke-width:0.5;" width="212" x="39.5" y="1405.7437"/><text fill="#000000" font-family="sans-serif" font-size="12" lengthAdjust="spacing" textLength="104" x="49.5" y="1426.8823">make parent dict</text><text fill="#000000" font-family="sans-serif" font-size="12" lengthAdjust="spacing" textLength="188" x="53.5" y="1440.8511">according to node/edge names</text><ellipse cx="145.5" cy="1587.1372" fill="none" rx="11" ry="11" style="stroke:#222222;stroke-width:1.0;"/><ellipse cx="145.5" cy="1587.1372" fill="#222222" rx="6" ry="6" style="stroke:#111111;stroke-width:1.0;"/><line style="stroke:#000000;stroke-width:1.5;" x1="15" x2="15" y1="12.7451" y2="1598.1372"/><rect fill="#66B2B2" height="1585.3921" style="stroke:#66B2B2;stroke-width:1.0;" width="285" x="295.5" y="12.7451"/><polygon fill="#F1F1F1" points="388,207.895,473,207.895,485,219.895,473,231.895,388,231.895,376,219.895,388,207.895" style="stroke:#181818;stroke-width:0.5;"/><text fill="#000000" font-family="sans-serif" font-size="11" lengthAdjust="spacing" textLength="85" x="388" y="223.7031">'-&gt;' in the key?</text><text fill="#000000" font-family="sans-serif" font-size="11" lengthAdjust="spacing" textLength="20" x="356" y="217.3008">yes</text><text fill="#000000" font-family="sans-serif" font-size="11" lengthAdjust="spacing" textLength="14" x="485" y="217.3008">no</text><rect fill="#F1F1F1" height="47.9375" rx="12.5" ry="12.5" style="stroke:#181818;stroke-width:0.5;" width="75" x="328.5" y="241.895"/><text fill="#000000" font-family="sans-serif" font-size="12" lengthAdjust="spacing" textLength="39" x="338.5" y="263.0337">add to</text><text fill="#000000" font-family="sans-serif" font-size="12" lengthAdjust="spacing" textLength="51" x="342.5" y="277.0024">edge list</text><rect fill="#F1F1F1" height="47.9375" rx="12.5" ry="12.5" style="stroke:#181818;stroke-width:0.5;" width="99" x="445.5" y="241.895"/><text fill="#000000" font-family="sans-serif" font-size="12" lengthAdjust="spacing" textLength="39" x="455.5" y="263.0337">add to</text><text fill="#000000" font-family="sans-serif" font-size="12" lengthAdjust="spacing" textLength="75" x="459.5" y="277.0024">the node list</text><polygon fill="#F1F1F1" points="430.5,295.8325,442.5,307.8325,430.5,319.8325,418.5,307.8325,430.5,295.8325" style="stroke:#181818;stroke-width:0.5;"/><polygon fill="#F1F1F1" points="384.5,163.895,476.5,163.895,488.5,175.895,476.5,187.895,384.5,187.895,372.5,175.895,384.5,163.895" style="stroke:#181818;stroke-width:0.5;"/><text fill="#000000" font-family="sans-serif" font-size="11" lengthAdjust="spacing" textLength="92" x="384.5" y="179.7031">description lines</text><line style="stroke:#000000;stroke-width:1.5;" x1="295.5" x2="295.5" y1="12.7451" y2="1598.1372"/><rect fill="#71C7EC" height="1585.3921" style="stroke:#71C7EC;stroke-width:1.0;" width="203" x="580.5" y="12.7451"/><rect fill="#F1F1F1" height="47.9375" rx="12.5" ry="12.5" style="stroke:#181818;stroke-width:0.5;" width="100" x="626" y="471.4941"/><text fill="#000000" font-family="sans-serif" font-size="12" lengthAdjust="spacing" textLength="76" x="636" y="492.6328">search other</text><text fill="#000000" font-family="sans-serif" font-size="12" lengthAdjust="spacing" textLength="74" x="640" y="506.6016">node names</text><rect fill="#F1F1F1" height="47.9375" rx="12.5" ry="12.5" style="stroke:#181818;stroke-width:0.5;" width="91" x="630.5" y="587.834"/><text fill="#000000" font-family="sans-serif" font-size="12" lengthAdjust="spacing" textLength="39" x="640.5" y="608.9727">add to</text><text fill="#000000" font-family="sans-serif" font-size="12" lengthAdjust="spacing" textLength="67" x="644.5" y="622.9414">parents list</text><polygon fill="#F1F1F1" points="657,539.4316,695,539.4316,707,551.4316,695,563.4316,657,563.4316,645,551.4316,657,539.4316" style="stroke:#181818;stroke-width:0.5;"/><text fill="#000000" font-family="sans-serif" font-size="11" lengthAdjust="spacing" textLength="20" x="680" y="573.6421">yes</text><text fill="#000000" font-family="sans-serif" font-size="11" lengthAdjust="spacing" textLength="38" x="657" y="555.2397">found?</text><text fill="#000000" font-family="sans-serif" font-size="11" lengthAdjust="spacing" textLength="14" x="707" y="548.8374">no</text><polygon fill="#F1F1F1" points="676,655.7715,688,667.7715,676,679.7715,664,667.7715,676,655.7715" style="stroke:#181818;stroke-width:0.5;"/><polygon fill="#F1F1F1" points="659,427.4941,693,427.4941,705,439.4941,693,451.4941,659,451.4941,647,439.4941,659,427.4941" style="stroke:#181818;stroke-width:0.5;"/><text fill="#000000" font-family="sans-serif" font-size="11" lengthAdjust="spacing" textLength="34" x="659" y="443.3022">nodes</text><rect fill="#F1F1F1" height="47.9375" rx="12.5" ry="12.5" style="stroke:#181818;stroke-width:0.5;" width="141" x="605.5" y="721.7715"/><text fill="#000000" font-family="sans-serif" font-size="12" lengthAdjust="spacing" textLength="117" x="615.5" y="742.9102">add identity() edge</text><text fill="#000000" font-family="sans-serif" font-size="12" lengthAdjust="spacing" textLength="105" x="619.5" y="756.8789">for found parents</text><line style="stroke:#000000;stroke-width:1.5;" x1="580.5" x2="580.5" y1="12.7451" y2="1598.1372"/><rect fill="#E8F4EA" height="1585.3921" style="stroke:#E8F4EA;stroke-width:1.0;" width="134" x="783.5" y="12.7451"/><rect fill="#F1F1F1" height="47.9375" rx="12.5" ry="12.5" style="stroke:#181818;stroke-width:0.5;" width="124" x="789.5" y="1320.5469"/><text fill="#000000" font-family="sans-serif" font-size="12" lengthAdjust="spacing" textLength="70" x="799.5" y="1341.6855">Parse edge:</text><text fill="#000000" font-family="sans-serif" font-size="12" lengthAdjust="spacing" textLength="100" x="803.5" y="1355.6543">See edge_parser</text><line style="stroke:#000000;stroke-width:1.5;" x1="783.5" x2="783.5" y1="12.7451" y2="1598.1372"/><rect fill="#E8F4EA" height="1585.3921" style="stroke:#E8F4EA;stroke-width:1.0;" width="144" x="917.5" y="12.7451"/><rect fill="#F1F1F1" height="47.9375" rx="12.5" ry="12.5" style="stroke:#181818;stroke-width:0.5;" width="134" x="923.5" y="1490.9404"/><text fill="#000000" font-family="sans-serif" font-size="12" lengthAdjust="spacing" textLength="70" x="933.5" y="1512.0791">Parse node:</text><text fill="#000000" font-family="sans-serif" font-size="12" lengthAdjust="spacing" textLength="110" x="937.5" y="1526.0479">See node_parser()</text><line style="stroke:#000000;stroke-width:1.5;" x1="917.5" x2="917.5" y1="12.7451" y2="1598.1372"/><line style="stroke:#000000;stroke-width:1.5;" x1="1061.5" x2="1061.5" y1="12.7451" y2="1598.1372"/><line style="stroke:#181818;stroke-width:1.0;" x1="145.5" x2="145.5" y1="58.6982" y2="78.6982"/><polygon fill="#181818" points="141.5,68.6982,145.5,78.6982,149.5,68.6982,145.5,72.6982" style="stroke:#181818;stroke-width:1.0;"/><line style="stroke:#181818;stroke-width:1.0;" x1="98.5" x2="56" y1="391.0918" y2="391.0918"/><polygon fill="#181818" points="52,596.2051,56,606.2051,60,596.2051,56,600.2051" style="stroke:#181818;stroke-width:1.0;"/><line style="stroke:#181818;stroke-width:1.0;" x1="56" x2="56" y1="391.0918" y2="805.6079"/><line style="stroke:#181818;stroke-width:1.0;" x1="56" x2="133.5" y1="805.6079" y2="805.6079"/><polygon fill="#181818" points="123.5,801.6079,133.5,805.6079,123.5,809.6079,127.5,805.6079" style="stroke:#181818;stroke-width:1.0;"/><line style="stroke:#181818;stroke-width:1.0;" x1="145.5" x2="145.5" y1="817.6079" y2="837.6079"/><polygon fill="#181818" points="141.5,827.6079,145.5,837.6079,149.5,827.6079,145.5,831.6079" style="stroke:#181818;stroke-width:1.0;"/><line style="stroke:#181818;stroke-width:1.0;" x1="145.5" x2="145.5" y1="987.9165" y2="1015.4321"/><polygon fill="#181818" points="141.5,1005.4321,145.5,1015.4321,149.5,1005.4321,145.5,1009.4321" style="stroke:#181818;stroke-width:1.0;"/><line style="stroke:#181818;stroke-width:1.0;" x1="145.5" x2="145.5" y1="929.5454" y2="953.9478"/><polygon fill="#181818" points="141.5,943.9478,145.5,953.9478,149.5,943.9478,145.5,947.9478" style="stroke:#181818;stroke-width:1.0;"/><line style="stroke:#181818;stroke-width:1.0;" x1="193" x2="230.5" y1="917.5454" y2="917.5454"/><polygon fill="#181818" points="226.5,985.4321,230.5,995.4321,234.5,985.4321,230.5,989.4321" style="stroke:#181818;stroke-width:1.0;"/><line style="stroke:#181818;stroke-width:1.0;" x1="230.5" x2="230.5" y1="917.5454" y2="1057.4321"/><line style="stroke:#181818;stroke-width:1.0;" x1="230.5" x2="145.5" y1="1057.4321" y2="1057.4321"/><line style="stroke:#181818;stroke-width:1.0;" x1="145.5" x2="145.5" y1="1057.4321" y2="1077.4321"/><polygon fill="#181818" points="141.5,1067.4321,145.5,1077.4321,149.5,1067.4321,145.5,1071.4321" style="stroke:#181818;stroke-width:1.0;"/><line style="stroke:#181818;stroke-width:1.0;" x1="145.5" x2="145.5" y1="885.5454" y2="905.5454"/><polygon fill="#181818" points="141.5,895.5454,145.5,905.5454,149.5,895.5454,145.5,899.5454" style="stroke:#181818;stroke-width:1.0;"/><line style="stroke:#181818;stroke-width:1.0;" x1="145.5" x2="145.5" y1="1213.772" y2="1241.2876"/><polygon fill="#181818" points="141.5,1231.2876,145.5,1241.2876,149.5,1231.2876,145.5,1235.2876" style="stroke:#181818;stroke-width:1.0;"/><line style="stroke:#181818;stroke-width:1.0;" x1="145.5" x2="145.5" y1="1155.4009" y2="1179.8032"/><polygon fill="#181818" points="141.5,1169.8032,145.5,1179.8032,149.5,1169.8032,145.5,1173.8032" style="stroke:#181818;stroke-width:1.0;"/><line style="stroke:#181818;stroke-width:1.0;" x1="193" x2="230.5" y1="1143.4009" y2="1143.4009"/><polygon fill="#181818" points="226.5,1211.2876,230.5,1221.2876,234.5,1211.2876,230.5,1215.2876" style="stroke:#181818;stroke-width:1.0;"/><line style="stroke:#181818;stroke-width:1.0;" x1="230.5" x2="230.5" y1="1143.4009" y2="1283.2876"/><line style="stroke:#181818;stroke-width:1.0;" x1="230.5" x2="145.5" y1="1283.2876" y2="1283.2876"/><line style="stroke:#181818;stroke-width:1.0;" x1="145.5" x2="145.5" y1="1111.4009" y2="1131.4009"/><polygon fill="#181818" points="141.5,1121.4009,145.5,1131.4009,149.5,1121.4009,145.5,1125.4009" style="stroke:#181818;stroke-width:1.0;"/><line style="stroke:#181818;stroke-width:1.0;" x1="376" x2="366" y1="219.895" y2="219.895"/><line style="stroke:#181818;stroke-width:1.0;" x1="366" x2="366" y1="219.895" y2="241.895"/><polygon fill="#181818" points="362,231.895,366,241.895,370,231.895,366,235.895" style="stroke:#181818;stroke-width:1.0;"/><line style="stroke:#181818;stroke-width:1.0;" x1="485" x2="495" y1="219.895" y2="219.895"/><line style="stroke:#181818;stroke-width:1.0;" x1="495" x2="495" y1="219.895" y2="241.895"/><polygon fill="#181818" points="491,231.895,495,241.895,499,231.895,495,235.895" style="stroke:#181818;stroke-width:1.0;"/><line style="stroke:#181818;stroke-width:1.0;" x1="366" x2="366" y1="289.8325" y2="307.8325"/><line style="stroke:#181818;stroke-width:1.0;" x1="366" x2="418.5" y1="307.8325" y2="307.8325"/><polygon fill="#181818" points="408.5,303.8325,418.5,307.8325,408.5,311.8325,412.5,307.8325" style="stroke:#181818;stroke-width:1.0;"/><line style="stroke:#181818;stroke-width:1.0;" x1="495" x2="495" y1="289.8325" y2="307.8325"/><line style="stroke:#181818;stroke-width:1.0;" x1="495" x2="442.5" y1="307.8325" y2="307.8325"/><polygon fill="#181818" points="452.5,303.8325,442.5,307.8325,452.5,311.8325,448.5,307.8325" style="stroke:#181818;stroke-width:1.0;"/><line style="stroke:#181818;stroke-width:1.5;stroke-dasharray:7.0,7.0;" x1="430.5" x2="430.5" y1="187.895" y2="207.895"/><polygon fill="#181818" points="426.5,197.895,430.5,207.895,434.5,197.895,430.5,201.895" style="stroke:#181818;stroke-width:1.0;"/><line style="stroke:#181818;stroke-width:1.0;" x1="430.5" x2="430.5" y1="319.8325" y2="329.8325"/><line style="stroke:#181818;stroke-width:1.0;" x1="430.5" x2="561.5" y1="329.8325" y2="329.8325"/><polygon fill="#181818" points="557.5,261.8638,561.5,251.8638,565.5,261.8638,561.5,257.8638" style="stroke:#181818;stroke-width:1.0;"/><line style="stroke:#181818;stroke-width:1.0;" x1="561.5" x2="561.5" y1="175.895" y2="329.8325"/><line style="stroke:#181818;stroke-width:1.0;" x1="561.5" x2="488.5" y1="175.895" y2="175.895"/><polygon fill="#181818" points="498.5,171.895,488.5,175.895,498.5,179.895,494.5,175.895" style="stroke:#181818;stroke-width:1.0;"/><line style="stroke:#181818;stroke-width:1.5;stroke-dasharray:7.0,7.0;" x1="372.5" x2="314.5" y1="175.895" y2="175.895"/><polygon fill="#181818" points="310.5,247.8638,314.5,257.8638,318.5,247.8638,314.5,251.8638" style="stroke:#181818;stroke-width:1.5;stroke-dasharray:7.0,7.0;"/><line style="stroke:#181818;stroke-width:1.5;stroke-dasharray:7.0,7.0;" x1="314.5" x2="314.5" y1="175.895" y2="341.8325"/><line style="stroke:#181818;stroke-width:1.5;stroke-dasharray:7.0,7.0;" x1="314.5" x2="430.5" y1="341.8325" y2="341.8325"/><line style="stroke:#181818;stroke-width:1.0;" x1="676" x2="676" y1="563.4316" y2="587.834"/><polygon fill="#181818" points="672,577.834,676,587.834,680,577.834,676,581.834" style="stroke:#181818;stroke-width:1.0;"/><line style="stroke:#181818;stroke-width:1.0;" x1="707" x2="731.5" y1="551.4316" y2="551.4316"/><polygon fill="#181818" points="727.5,601.8027,731.5,611.8027,735.5,601.8027,731.5,605.8027" style="stroke:#181818;stroke-width:1.0;"/><line style="stroke:#181818;stroke-width:1.0;" x1="731.5" x2="731.5" y1="551.4316" y2="667.7715"/><line style="stroke:#181818;stroke-width:1.0;" x1="731.5" x2="688" y1="667.7715" y2="667.7715"/><polygon fill="#181818" points="698,663.7715,688,667.7715,698,671.7715,694,667.7715" style="stroke:#181818;stroke-width:1.0;"/><line style="stroke:#181818;stroke-width:1.0;" x1="676" x2="676" y1="635.7715" y2="655.7715"/><polygon fill="#181818" points="672,645.7715,676,655.7715,680,645.7715,676,649.7715" style="stroke:#181818;stroke-width:1.0;"/><line style="stroke:#181818;stroke-width:1.0;" x1="676" x2="676" y1="519.4316" y2="539.4316"/><polygon fill="#181818" points="672,529.4316,676,539.4316,680,529.4316,676,533.4316" style="stroke:#181818;stroke-width:1.0;"/><line style="stroke:#181818;stroke-width:1.5;stroke-dasharray:7.0,7.0;" x1="676" x2="676" y1="451.4941" y2="471.4941"/><polygon fill="#181818" points="672,461.4941,676,471.4941,680,461.4941,676,465.4941" style="stroke:#181818;stroke-width:1.0;"/><line style="stroke:#181818;stroke-width:1.0;" x1="676" x2="676" y1="679.7715" y2="689.7715"/><line style="stroke:#181818;stroke-width:1.0;" x1="676" x2="755.5" y1="689.7715" y2="689.7715"/><polygon fill="#181818" points="751.5,568.334,755.5,558.334,759.5,568.334,755.5,564.334" style="stroke:#181818;stroke-width:1.0;"/><line style="stroke:#181818;stroke-width:1.0;" x1="755.5" x2="755.5" y1="439.4941" y2="689.7715"/><line style="stroke:#181818;stroke-width:1.0;" x1="755.5" x2="705" y1="439.4941" y2="439.4941"/><polygon fill="#181818" points="715,435.4941,705,439.4941,715,443.4941,711,439.4941" style="stroke:#181818;stroke-width:1.0;"/><line style="stroke:#181818;stroke-width:1.0;" x1="647" x2="608.5" y1="439.4941" y2="439.4941"/><polygon fill="#181818" points="604.5,554.334,608.5,564.334,612.5,554.334,608.5,558.334" style="stroke:#181818;stroke-width:1.0;"/><line style="stroke:#181818;stroke-width:1.0;" x1="608.5" x2="608.5" y1="439.4941" y2="701.7715"/><line style="stroke:#181818;stroke-width:1.0;" x1="608.5" x2="676" y1="701.7715" y2="701.7715"/><line style="stroke:#181818;stroke-width:1.0;" x1="676" x2="676" y1="701.7715" y2="721.7715"/><polygon fill="#181818" points="672,711.7715,676,721.7715,680,711.7715,676,715.7715" style="stroke:#181818;stroke-width:1.0;"/><line style="stroke:#181818;stroke-width:1.5;stroke-dasharray:7.0,7.0;" x1="145.5" x2="145.5" y1="126.6357" y2="148.895"/><line style="stroke:#181818;stroke-width:1.5;stroke-dasharray:7.0,7.0;" x1="145.5" x2="430.5" y1="148.895" y2="148.895"/><line style="stroke:#181818;stroke-width:1.5;stroke-dasharray:7.0,7.0;" x1="430.5" x2="430.5" y1="148.895" y2="163.895"/><polygon fill="#181818" points="426.5,153.895,430.5,163.895,434.5,153.895,430.5,157.895" style="stroke:#181818;stroke-width:1.0;"/><text fill="#000000" font-family="sans-serif" font-size="11" lengthAdjust="spacing" textLength="92" x="149.5" y="142.395">pass description</text><line style="stroke:#181818;stroke-width:1.5;stroke-dasharray:7.0,7.0;" x1="145.5" x2="145.5" y1="403.0918" y2="415.293"/><line style="stroke:#181818;stroke-width:1.5;stroke-dasharray:7.0,7.0;" x1="145.5" x2="676" y1="415.293" y2="415.293"/><line style="stroke:#181818;stroke-width:1.5;stroke-dasharray:7.0,7.0;" x1="676" x2="676" y1="415.293" y2="427.4941"/><polygon fill="#181818" points="672,417.4941,676,427.4941,680,417.4941,676,421.4941" style="stroke:#181818;stroke-width:1.0;"/><line style="stroke:#181818;stroke-width:1.5;stroke-dasharray:7.0,7.0;" x1="676" x2="676" y1="769.709" y2="775.0044"/><line style="stroke:#181818;stroke-width:1.5;stroke-dasharray:7.0,7.0;" x1="676" x2="145.5" y1="775.0044" y2="775.0044"/><line style="stroke:#181818;stroke-width:1.5;stroke-dasharray:7.0,7.0;" x1="145.5" x2="145.5" y1="775.0044" y2="793.6079"/><polygon fill="#181818" points="141.5,783.6079,145.5,793.6079,149.5,783.6079,145.5,787.6079" style="stroke:#181818;stroke-width:1.0;"/><line style="stroke:#181818;stroke-width:1.5;stroke-dasharray:7.0,7.0;" x1="430.5" x2="430.5" y1="341.8325" y2="364.0918"/><line style="stroke:#181818;stroke-width:1.5;stroke-dasharray:7.0,7.0;" x1="430.5" x2="145.5" y1="364.0918" y2="364.0918"/><line style="stroke:#181818;stroke-width:1.5;stroke-dasharray:7.0,7.0;" x1="145.5" x2="145.5" y1="364.0918" y2="379.0918"/><polygon fill="#181818" points="141.5,369.0918,145.5,379.0918,149.5,369.0918,145.5,373.0918" style="stroke:#181818;stroke-width:1.0;"/><text fill="#000000" font-family="sans-serif" font-size="11" lengthAdjust="spacing" textLength="113" x="434.5" y="357.5918">node &amp; edge sublist</text><line style="stroke:#181818;stroke-width:1.5;stroke-dasharray:7.0,7.0;" x1="145.5" x2="145.5" y1="1283.2876" y2="1305.5469"/><line style="stroke:#181818;stroke-width:1.5;stroke-dasharray:7.0,7.0;" x1="145.5" x2="851.5" y1="1305.5469" y2="1305.5469"/><line style="stroke:#181818;stroke-width:1.5;stroke-dasharray:7.0,7.0;" x1="851.5" x2="851.5" y1="1305.5469" y2="1320.5469"/><polygon fill="#181818" points="847.5,1310.5469,851.5,1320.5469,855.5,1310.5469,851.5,1314.5469" style="stroke:#181818;stroke-width:1.0;"/><text fill="#000000" font-family="sans-serif" font-size="11" lengthAdjust="spacing" textLength="68" x="149.5" y="1299.0469">edge sublist</text><line style="stroke:#181818;stroke-width:1.5;stroke-dasharray:7.0,7.0;" x1="851.5" x2="851.5" y1="1368.4844" y2="1390.7437"/><line style="stroke:#181818;stroke-width:1.5;stroke-dasharray:7.0,7.0;" x1="851.5" x2="145.5" y1="1390.7437" y2="1390.7437"/><line style="stroke:#181818;stroke-width:1.5;stroke-dasharray:7.0,7.0;" x1="145.5" x2="145.5" y1="1390.7437" y2="1405.7437"/><polygon fill="#181818" points="141.5,1395.7437,145.5,1405.7437,149.5,1395.7437,145.5,1399.7437" style="stroke:#181818;stroke-width:1.0;"/><text fill="#000000" font-family="sans-serif" font-size="11" lengthAdjust="spacing" textLength="126" x="855.5" y="1384.2437">parsed edge info dicts</text><line style="stroke:#181818;stroke-width:1.5;stroke-dasharray:7.0,7.0;" x1="145.5" x2="145.5" y1="1453.6812" y2="1475.9404"/><line style="stroke:#181818;stroke-width:1.5;stroke-dasharray:7.0,7.0;" x1="145.5" x2="990.5" y1="1475.9404" y2="1475.9404"/><line style="stroke:#181818;stroke-width:1.5;stroke-dasharray:7.0,7.0;" x1="990.5" x2="990.5" y1="1475.9404" y2="1490.9404"/><polygon fill="#181818" points="986.5,1480.9404,990.5,1490.9404,994.5,1480.9404,990.5,1484.9404" style="stroke:#181818;stroke-width:1.0;"/><text fill="#000000" font-family="sans-serif" font-size="11" lengthAdjust="spacing" textLength="146" x="149.5" y="1469.4404">node sublist &amp; parent dict</text><line style="stroke:#181818;stroke-width:1.5;stroke-dasharray:7.0,7.0;" x1="990.5" x2="990.5" y1="1538.8779" y2="1561.1372"/><line style="stroke:#181818;stroke-width:1.5;stroke-dasharray:7.0,7.0;" x1="990.5" x2="145.5" y1="1561.1372" y2="1561.1372"/><line style="stroke:#181818;stroke-width:1.5;stroke-dasharray:7.0,7.0;" x1="145.5" x2="145.5" y1="1561.1372" y2="1576.1372"/><polygon fill="#181818" points="141.5,1566.1372,145.5,1576.1372,149.5,1566.1372,145.5,1570.1372" style="stroke:#181818;stroke-width:1.0;"/><text fill="#000000" font-family="sans-serif" font-size="11" lengthAdjust="spacing" textLength="132" x="994.5" y="1554.6372">parsed nodes info dicts</text><text fill="#000000" font-family="sans-serif" font-size="18" lengthAdjust="spacing" textLength="177" x="66.75" y="29.4531">description_parser()</text><text fill="#000000" font-family="sans-serif" font-size="18" lengthAdjust="spacing" textLength="146" x="365" y="29.4531">outline_splitter()</text><text fill="#000000" font-family="sans-serif" font-size="18" lengthAdjust="spacing" textLength="193" x="585.5" y="29.4531">infer_missing_edges()</text><text fill="#000000" font-family="sans-serif" font-size="18" lengthAdjust="spacing" textLength="123" x="789" y="29.4531">edge_parser()</text><text fill="#000000" font-family="sans-serif" font-size="18" lengthAdjust="spacing" textLength="123" x="928" y="29.4531">node_parser()</text><!--SRC=[jPH1Q-Cm48Nl-XKgWH0NsgMXjC61BRjixmizRagGfN4ZueoCHZuKzECxKaAhk2xqiZavawTvyxrH76VDqgpCAXeWxMqVhCDjhpo1NrHHK50-YFhoqc8_1E87MGZbmbWTAZdVu2R8zB7OWfTWNa0k6kUwQYsk_Xb5Ep3FLpzbhuZA1ciXH9pTtJNBPXdT43gBiAM-io4S_IyiwcxW4qCZnxzVzyEXk_Zzw-dnp0ET0Ja_pi37EaiXsqm3sbOkFeQcXqg67J3OAr0b4b7PcelrTF-aZBFx6tqFEkP-suCbilYopNsJLTAKF1Eo0cdiFVH61J0ZN-Y8aqPN2K1ZswyeXQZr3lHUeZgmcUIreb7UaDoWR9tFKBJEQO3tN6ZTWEPp6hLNbXt_VBWy9lan01xXqq3lnidWHuPCGu3K3eaH0FNhV_4jiplFBCvWrTw2YgbSXbJ_JSzPNQTWdk3uvQHPYz5Tvk9f7xnA9zD_WJFyQWNrGUqXdG8CMSiEIcldJTf8S3cYd50EY4Ps-TgT6FZw5NqAeYIQ84hbTw8ppJHJNjQteFW5uVet]--></g></svg>