<?xml version="1.0" encoding="us-ascii" standalone="no"?><svg xmlns="http://www.w3.org/2000/svg" xmlns:xlink="http://www.w3.org/1999/xlink" contentStyleType="text/css" height="2744px" preserveAspectRatio="none" style="width:790px;height:2744px;background:#FFFFFF;" version="1.1" viewBox="0 0 790 2744" width="790px" zoomAndPan="magnify"><defs/><g><rect fill="#FFFFFF" height="25" style="stroke:#181818;stroke-width:1.0;" width="10" x="198" y="471.6328"/><rect fill="#FFFFFF" height="40.1328" style="stroke:#181818;stroke-width:1.0;" width="10" x="198" y="644.1641"/><rect fill="#FFFFFF" height="40.1328" style="stroke:#181818;stroke-width:1.0;" width="10" x="198" y="1088.0234"/><rect fill="#FFFFFF" height="40.1328" style="stroke:#181818;stroke-width:1.0;" width="10" x="198" y="1643.2188"/><rect fill="#FFFFFF" height="40.1328" style="stroke:#181818;stroke-width:1.0;" width="10" x="198" y="2276.8125"/><rect fill="none" height="75.3984" style="stroke:#000000;stroke-width:1.5;" width="390.5" x="164" y="235.9609"/><rect fill="none" height="75.3984" style="stroke:#000000;stroke-width:1.5;" width="460.5" x="164" y="325.3594"/><rect fill="none" height="96.875" style="stroke:#000000;stroke-width:1.5;" width="205" x="164" y="414.7578"/><rect fill="none" height="101.3984" style="stroke:#000000;stroke-width:1.5;" width="176" x="164" y="597.8984"/><rect fill="none" height="139.6641" style="stroke:#000000;stroke-width:1.5;" width="575.5" x="164" y="771.5625"/><rect fill="none" height="101.3984" style="stroke:#000000;stroke-width:1.5;" width="176" x="164" y="1041.7578"/><rect fill="none" height="196.6016" style="stroke:#000000;stroke-width:1.5;" width="575.5" x="164" y="1239.5547"/><rect fill="none" height="101.3984" style="stroke:#000000;stroke-width:1.5;" width="176" x="164" y="1596.9531"/><rect fill="none" height="196.6016" style="stroke:#000000;stroke-width:1.5;" width="575.5" x="164" y="1888.2813"/><rect fill="none" height="101.3984" style="stroke:#000000;stroke-width:1.5;" width="176" x="164" y="2230.5469"/><rect fill="none" height="212.9297" style="stroke:#000000;stroke-width:1.5;" width="585.5" x="154" y="2404.2109"/><rect fill="none" height="59.2656" style="stroke:#000000;stroke-width:1.5;" width="225" x="164" y="2550.875"/><line style="stroke:#181818;stroke-width:0.5;stroke-dasharray:5.0,5.0;" x1="65" x2="65" y1="81.2969" y2="2663.2734"/><line style="stroke:#181818;stroke-width:0.5;stroke-dasharray:5.0,5.0;" x1="203" x2="203" y1="81.2969" y2="2663.2734"/><line style="stroke:#181818;stroke-width:0.5;stroke-dasharray:5.0,5.0;" x1="408.5" x2="408.5" y1="81.2969" y2="2663.2734"/><line style="stroke:#181818;stroke-width:0.5;stroke-dasharray:5.0,5.0;" x1="505.5" x2="505.5" y1="81.2969" y2="2663.2734"/><line style="stroke:#181818;stroke-width:0.5;stroke-dasharray:5.0,5.0;" x1="584.5" x2="584.5" y1="81.2969" y2="2663.2734"/><line style="stroke:#181818;stroke-width:0.5;stroke-dasharray:5.0,5.0;" x1="692.5" x2="692.5" y1="81.2969" y2="2663.2734"/><text fill="#000000" font-family="sans-serif" font-size="14" lengthAdjust="spacing" textLength="32" x="46" y="77.9951">User</text><ellipse cx="65" cy="13.5" fill="#179C7D" rx="8" ry="8" style="stroke:#181818;stroke-width:0.5;"/><path d="M65,21.5 L65,48.5 M52,29.5 L78,29.5 M65,48.5 L52,63.5 M65,48.5 L78,63.5 " fill="none" style="stroke:#181818;stroke-width:0.5;"/><text fill="#000000" font-family="sans-serif" font-size="14" lengthAdjust="spacing" textLength="32" x="46" y="2675.2686">User</text><ellipse cx="65" cy="2687.0703" fill="#179C7D" rx="8" ry="8" style="stroke:#181818;stroke-width:0.5;"/><path d="M65,2695.0703 L65,2722.0703 M52,2703.0703 L78,2703.0703 M65,2722.0703 L52,2737.0703 M65,2722.0703 L78,2737.0703 " fill="none" style="stroke:#181818;stroke-width:0.5;"/><rect fill="#C2F0FF" height="30.2969" rx="2.5" ry="2.5" style="stroke:#181818;stroke-width:0.5;" width="58" x="174" y="50"/><text fill="#000000" font-family="sans-serif" font-size="14" lengthAdjust="spacing" textLength="44" x="181" y="69.9951">Graph</text><rect fill="#C2F0FF" height="30.2969" rx="2.5" ry="2.5" style="stroke:#181818;stroke-width:0.5;" width="58" x="174" y="2662.2734"/><text fill="#000000" font-family="sans-serif" font-size="14" lengthAdjust="spacing" textLength="44" x="181" y="2682.2686">Graph</text><rect fill="#E2E2F0" height="30.2969" rx="2.5" ry="2.5" style="stroke:#181818;stroke-width:0.5;" width="95" x="361.5" y="50"/><text fill="#000000" font-family="sans-serif" font-size="14" lengthAdjust="spacing" textLength="81" x="368.5" y="69.9951">Description</text><rect fill="#E2E2F0" height="30.2969" rx="2.5" ry="2.5" style="stroke:#181818;stroke-width:0.5;" width="95" x="361.5" y="2662.2734"/><text fill="#000000" font-family="sans-serif" font-size="14" lengthAdjust="spacing" textLength="81" x="368.5" y="2682.2686">Description</text><rect fill="#E2E2F0" height="30.2969" rx="2.5" ry="2.5" style="stroke:#181818;stroke-width:0.5;" width="78" x="466.5" y="50"/><text fill="#000000" font-family="sans-serif" font-size="14" lengthAdjust="spacing" textLength="64" x="473.5" y="69.9951">[Nodes]()</text><rect fill="#E2E2F0" height="30.2969" rx="2.5" ry="2.5" style="stroke:#181818;stroke-width:0.5;" width="78" x="466.5" y="2662.2734"/><text fill="#000000" font-family="sans-serif" font-size="14" lengthAdjust="spacing" textLength="64" x="473.5" y="2682.2686">[Nodes]()</text><rect fill="#E2E2F0" height="30.2969" rx="2.5" ry="2.5" style="stroke:#181818;stroke-width:0.5;" width="60" x="554.5" y="50"/><text fill="#000000" font-family="sans-serif" font-size="14" lengthAdjust="spacing" textLength="46" x="561.5" y="69.9951">Edge()</text><rect fill="#E2E2F0" height="30.2969" rx="2.5" ry="2.5" style="stroke:#181818;stroke-width:0.5;" width="60" x="554.5" y="2662.2734"/><text fill="#000000" font-family="sans-serif" font-size="14" lengthAdjust="spacing" textLength="46" x="561.5" y="2682.2686">Edge()</text><rect fill="#E2E2F0" height="30.2969" rx="2.5" ry="2.5" style="stroke:#181818;stroke-width:0.5;" width="137" x="624.5" y="50"/><text fill="#000000" font-family="sans-serif" font-size="14" lengthAdjust="spacing" textLength="123" x="631.5" y="69.9951">topological_sort()</text><rect fill="#E2E2F0" height="30.2969" rx="2.5" ry="2.5" style="stroke:#181818;stroke-width:0.5;" width="137" x="624.5" y="2662.2734"/><text fill="#000000" font-family="sans-serif" font-size="14" lengthAdjust="spacing" textLength="123" x="631.5" y="2682.2686">topological_sort()</text><rect fill="#FFFFFF" height="25" style="stroke:#181818;stroke-width:1.0;" width="10" x="198" y="471.6328"/><rect fill="#FFFFFF" height="40.1328" style="stroke:#181818;stroke-width:1.0;" width="10" x="198" y="644.1641"/><rect fill="#FFFFFF" height="40.1328" style="stroke:#181818;stroke-width:1.0;" width="10" x="198" y="1088.0234"/><rect fill="#FFFFFF" height="40.1328" style="stroke:#181818;stroke-width:1.0;" width="10" x="198" y="1643.2188"/><rect fill="#FFFFFF" height="40.1328" style="stroke:#181818;stroke-width:1.0;" width="10" x="198" y="2276.8125"/><rect fill="#EEEEEE" height="3" style="stroke:#EEEEEE;stroke-width:1.0;" width="783.5" x="0" y="111.8633"/><line style="stroke:#000000;stroke-width:1.0;" x1="0" x2="783.5" y1="111.8633" y2="111.8633"/><line style="stroke:#000000;stroke-width:1.0;" x1="0" x2="783.5" y1="114.8633" y2="114.8633"/><rect fill="#EEEEEE" height="23.1328" style="stroke:#000000;stroke-width:2.0;" width="112" x="335.75" y="101.2969"/><text fill="#000000" font-family="sans-serif" font-size="13" font-weight="bold" lengthAdjust="spacing" textLength="93" x="341.75" y="117.3638">Instantiation</text><polygon fill="#181818" points="191,151.5625,201,155.5625,191,159.5625,195,155.5625" style="stroke:#181818;stroke-width:1.0;"/><line style="stroke:#181818;stroke-width:1.0;" x1="65" x2="197" y1="155.5625" y2="155.5625"/><text fill="#000000" font-family="sans-serif" font-size="13" lengthAdjust="spacing" textLength="72" x="72" y="150.4966">description</text><polygon fill="#181818" points="397,198.8281,407,202.8281,397,206.8281,401,202.8281" style="stroke:#181818;stroke-width:1.0;"/><line style="stroke:#181818;stroke-width:1.0;" x1="203" x2="403" y1="202.8281" y2="202.8281"/><text fill="#000000" font-family="sans-serif" font-size="13" lengthAdjust="spacing" textLength="62" x="210" y="197.7622">.unwrap()</text><path d="M414,168.5625 L414,223.5625 L559,223.5625 L559,178.5625 L549,168.5625 L414,168.5625 " fill="#FEFFDD" style="stroke:#181818;stroke-width:0.5;"/><path d="M549,168.5625 L549,178.5625 L559,178.5625 L549,168.5625 " fill="#FEFFDD" style="stroke:#181818;stroke-width:0.5;"/><text fill="#000000" font-family="sans-serif" font-size="13" lengthAdjust="spacing" textLength="84" x="420" y="185.6294">create info &amp;</text><text fill="#000000" font-family="sans-serif" font-size="13" lengthAdjust="spacing" textLength="120" x="420" y="200.7622">ensure description</text><text fill="#000000" font-family="sans-serif" font-size="13" lengthAdjust="spacing" textLength="107" x="424" y="215.895">is fully specified</text><path d="M164,235.9609 L240,235.9609 L240,243.0938 L230,253.0938 L164,253.0938 L164,235.9609 " fill="#EEEEEE" style="stroke:#000000;stroke-width:1.5;"/><rect fill="none" height="75.3984" style="stroke:#000000;stroke-width:1.5;" width="390.5" x="164" y="235.9609"/><text fill="#000000" font-family="sans-serif" font-size="13" font-weight="bold" lengthAdjust="spacing" textLength="31" x="179" y="249.0278">loop</text><text fill="#000000" font-family="sans-serif" font-size="11" font-weight="bold" lengthAdjust="spacing" textLength="67" x="255" y="248.1714">[all nodes]</text><path d="M559.5,240.9609 L559.5,280.9609 L768.5,280.9609 L768.5,250.9609 L758.5,240.9609 L559.5,240.9609 " fill="#FEFFDD" style="stroke:#181818;stroke-width:0.5;"/><path d="M758.5,240.9609 L758.5,250.9609 L768.5,250.9609 L758.5,240.9609 " fill="#FEFFDD" style="stroke:#181818;stroke-width:0.5;"/><text fill="#000000" font-family="sans-serif" font-size="13" lengthAdjust="spacing" textLength="179" x="565.5" y="258.0278">Including all types of nodes</text><text fill="#000000" font-family="sans-serif" font-size="13" lengthAdjust="spacing" textLength="184" x="569.5" y="273.1606">see next diagram for details</text><polygon fill="#181818" points="493.5,270.2266,503.5,274.2266,493.5,278.2266,497.5,274.2266" style="stroke:#181818;stroke-width:1.0;"/><line style="stroke:#181818;stroke-width:1.0;" x1="203" x2="499.5" y1="274.2266" y2="274.2266"/><text fill="#000000" font-family="sans-serif" font-size="13" lengthAdjust="spacing" textLength="67" x="210" y="269.1606">node dicts</text><polygon fill="#181818" points="214,299.3594,204,303.3594,214,307.3594,210,303.3594" style="stroke:#181818;stroke-width:1.0;"/><line style="stroke:#181818;stroke-width:1.0;" x1="208" x2="504.5" y1="303.3594" y2="303.3594"/><text fill="#000000" font-family="sans-serif" font-size="13" lengthAdjust="spacing" textLength="105" x="220" y="298.2935">[Node]() objects</text><path d="M164,325.3594 L240,325.3594 L240,332.4922 L230,342.4922 L164,342.4922 L164,325.3594 " fill="#EEEEEE" style="stroke:#000000;stroke-width:1.5;"/><rect fill="none" height="75.3984" style="stroke:#000000;stroke-width:1.5;" width="460.5" x="164" y="325.3594"/><text fill="#000000" font-family="sans-serif" font-size="13" font-weight="bold" lengthAdjust="spacing" textLength="31" x="179" y="338.4263">loop</text><text fill="#000000" font-family="sans-serif" font-size="11" font-weight="bold" lengthAdjust="spacing" textLength="66" x="255" y="337.5698">[all edges]</text><polygon fill="#181818" points="572.5,359.625,582.5,363.625,572.5,367.625,576.5,363.625" style="stroke:#181818;stroke-width:1.0;"/><line style="stroke:#181818;stroke-width:1.0;" x1="203" x2="578.5" y1="363.625" y2="363.625"/><text fill="#000000" font-family="sans-serif" font-size="13" lengthAdjust="spacing" textLength="67" x="210" y="358.5591">edge dicts</text><polygon fill="#181818" points="214,388.7578,204,392.7578,214,396.7578,210,392.7578" style="stroke:#181818;stroke-width:1.0;"/><line style="stroke:#181818;stroke-width:1.0;" x1="208" x2="583.5" y1="392.7578" y2="392.7578"/><text fill="#000000" font-family="sans-serif" font-size="13" lengthAdjust="spacing" textLength="93" x="220" y="387.6919">Edge() objects</text><path d="M164,414.7578 L228,414.7578 L228,421.8906 L218,431.8906 L164,431.8906 L164,414.7578 " fill="#EEEEEE" style="stroke:#000000;stroke-width:1.5;"/><rect fill="none" height="96.875" style="stroke:#000000;stroke-width:1.5;" width="205" x="164" y="414.7578"/><text fill="#000000" font-family="sans-serif" font-size="13" font-weight="bold" lengthAdjust="spacing" textLength="19" x="179" y="427.8247">alt</text><text fill="#000000" font-family="sans-serif" font-size="11" font-weight="bold" lengthAdjust="spacing" textLength="121" x="243" y="426.9683">[at least one object</text><text fill="#000000" font-family="sans-serif" font-size="11" font-weight="bold" lengthAdjust="spacing" textLength="95" x="247" y="439.7729">has correction]</text><path d="M374,419.7578 L374,444.7578 L509,444.7578 L509,429.7578 L499,419.7578 L374,419.7578 " fill="#FEFFDD" style="stroke:#181818;stroke-width:0.5;"/><path d="M499,419.7578 L499,429.7578 L509,429.7578 L499,419.7578 " fill="#FEFFDD" style="stroke:#181818;stroke-width:0.5;"/><text fill="#000000" font-family="sans-serif" font-size="13" lengthAdjust="spacing" textLength="114" x="380" y="436.8247">burn-out samples</text><line style="stroke:#181818;stroke-width:1.0;" x1="203" x2="250" y1="458.6328" y2="458.6328"/><line style="stroke:#181818;stroke-width:1.0;" x1="250" x2="250" y1="458.6328" y2="471.6328"/><line style="stroke:#181818;stroke-width:1.0;" x1="209" x2="250" y1="471.6328" y2="471.6328"/><polygon fill="#181818" points="219,467.6328,209,471.6328,219,475.6328,215,471.6328" style="stroke:#181818;stroke-width:1.0;"/><text fill="#000000" font-family="sans-serif" font-size="13" lengthAdjust="spacing" textLength="86" x="215" y="453.5669">.sample(500)</text><line style="stroke:#181818;stroke-width:1.0;" x1="208" x2="250" y1="495.6328" y2="495.6328"/><line style="stroke:#181818;stroke-width:1.0;" x1="250" x2="250" y1="495.6328" y2="508.6328"/><line style="stroke:#181818;stroke-width:1.0;" x1="203" x2="250" y1="508.6328" y2="508.6328"/><polygon fill="#181818" points="213,504.6328,203,508.6328,213,512.6328,209,508.6328" style="stroke:#181818;stroke-width:1.0;"/><rect fill="#EEEEEE" height="3" style="stroke:#EEEEEE;stroke-width:1.0;" width="783.5" x="0" y="539.1992"/><line style="stroke:#000000;stroke-width:1.0;" x1="0" x2="783.5" y1="539.1992" y2="539.1992"/><line style="stroke:#000000;stroke-width:1.0;" x1="0" x2="783.5" y1="542.1992" y2="542.1992"/><rect fill="#EEEEEE" height="23.1328" style="stroke:#000000;stroke-width:2.0;" width="89" x="347.25" y="528.6328"/><text fill="#000000" font-family="sans-serif" font-size="13" font-weight="bold" lengthAdjust="spacing" textLength="70" x="353.25" y="544.6997">.sample()</text><polygon fill="#181818" points="191,578.8984,201,582.8984,191,586.8984,195,582.8984" style="stroke:#181818;stroke-width:1.0;"/><line style="stroke:#181818;stroke-width:1.0;" x1="65" x2="197" y1="582.8984" y2="582.8984"/><text fill="#000000" font-family="sans-serif" font-size="13" lengthAdjust="spacing" textLength="91" x="72" y="577.8325">size OR errors</text><path d="M164,597.8984 L228,597.8984 L228,605.0313 L218,615.0313 L164,615.0313 L164,597.8984 " fill="#EEEEEE" style="stroke:#000000;stroke-width:1.5;"/><rect fill="none" height="101.3984" style="stroke:#000000;stroke-width:1.5;" width="176" x="164" y="597.8984"/><text fill="#000000" font-family="sans-serif" font-size="13" font-weight="bold" lengthAdjust="spacing" textLength="19" x="179" y="610.9653">alt</text><text fill="#000000" font-family="sans-serif" font-size="11" font-weight="bold" lengthAdjust="spacing" textLength="72" x="243" y="610.1089">[size given]</text><line style="stroke:#181818;stroke-width:1.0;" x1="203" x2="250" y1="631.1641" y2="631.1641"/><line style="stroke:#181818;stroke-width:1.0;" x1="250" x2="250" y1="631.1641" y2="644.1641"/><line style="stroke:#181818;stroke-width:1.0;" x1="209" x2="250" y1="644.1641" y2="644.1641"/><polygon fill="#181818" points="219,640.1641,209,644.1641,219,648.1641,215,644.1641" style="stroke:#181818;stroke-width:1.0;"/><text fill="#000000" font-family="sans-serif" font-size="13" lengthAdjust="spacing" textLength="113" x="215" y="626.0981">._get_errors(size)</text><line style="stroke:#181818;stroke-width:1.0;" x1="208" x2="250" y1="683.2969" y2="683.2969"/><line style="stroke:#181818;stroke-width:1.0;" x1="250" x2="250" y1="683.2969" y2="696.2969"/><line style="stroke:#181818;stroke-width:1.0;" x1="203" x2="250" y1="696.2969" y2="696.2969"/><polygon fill="#181818" points="213,692.2969,203,696.2969,213,700.2969,209,696.2969" style="stroke:#181818;stroke-width:1.0;"/><text fill="#000000" font-family="sans-serif" font-size="13" lengthAdjust="spacing" textLength="38" x="215" y="678.231">errors</text><polygon fill="#181818" points="397,723.4297,407,727.4297,397,731.4297,401,727.4297" style="stroke:#181818;stroke-width:1.0;"/><line style="stroke:#181818;stroke-width:1.0;" x1="203" x2="403" y1="727.4297" y2="727.4297"/><text fill="#000000" font-family="sans-serif" font-size="13" lengthAdjust="spacing" textLength="126" x="210" y="722.3638">get topological sort</text><polygon fill="#181818" points="214,752.5625,204,756.5625,214,760.5625,210,756.5625" style="stroke:#181818;stroke-width:1.0;"/><line style="stroke:#181818;stroke-width:1.0;" x1="208" x2="408" y1="756.5625" y2="756.5625"/><text fill="#000000" font-family="sans-serif" font-size="13" lengthAdjust="spacing" textLength="65" x="220" y="751.4966">sorted list</text><path d="M164,771.5625 L240,771.5625 L240,778.6953 L230,788.6953 L164,788.6953 L164,771.5625 " fill="#EEEEEE" style="stroke:#000000;stroke-width:1.5;"/><rect fill="none" height="139.6641" style="stroke:#000000;stroke-width:1.5;" width="575.5" x="164" y="771.5625"/><text fill="#000000" font-family="sans-serif" font-size="13" font-weight="bold" lengthAdjust="spacing" textLength="31" x="179" y="784.6294">loop</text><text fill="#000000" font-family="sans-serif" font-size="11" font-weight="bold" lengthAdjust="spacing" textLength="155" x="255" y="783.7729">[all nodes on sorted list]</text><polygon fill="#181818" points="572.5,805.8281,582.5,809.8281,572.5,813.8281,576.5,809.8281" style="stroke:#181818;stroke-width:1.0;"/><line style="stroke:#181818;stroke-width:1.0;" x1="203" x2="578.5" y1="809.8281" y2="809.8281"/><text fill="#000000" font-family="sans-serif" font-size="13" lengthAdjust="spacing" textLength="66" x="210" y="804.7622">input data</text><polygon fill="#181818" points="214,837.9609,204,841.9609,214,845.9609,210,841.9609" style="stroke:#181818;stroke-width:1.0;"/><line style="stroke:#181818;stroke-width:1.0;" x1="208" x2="583.5" y1="841.9609" y2="841.9609"/><text fill="#000000" font-family="sans-serif" font-size="13" lengthAdjust="spacing" textLength="113" x="220" y="836.895">transformed data</text><path d="M589,822.8281 L589,847.8281 L724,847.8281 L724,832.8281 L714,822.8281 L589,822.8281 " fill="#FEFFDD" style="stroke:#181818;stroke-width:0.5;"/><path d="M714,822.8281 L714,832.8281 L724,832.8281 L714,822.8281 " fill="#FEFFDD" style="stroke:#181818;stroke-width:0.5;"/><text fill="#000000" font-family="sans-serif" font-size="13" lengthAdjust="spacing" textLength="114" x="595" y="839.895">respective parent</text><polygon fill="#181818" points="493.5,870.0938,503.5,874.0938,493.5,878.0938,497.5,874.0938" style="stroke:#181818;stroke-width:1.0;"/><line style="stroke:#181818;stroke-width:1.0;" x1="203" x2="499.5" y1="874.0938" y2="874.0938"/><text fill="#000000" font-family="sans-serif" font-size="13" lengthAdjust="spacing" textLength="169" x="210" y="869.0278">transformed data &amp; errors</text><polygon fill="#181818" points="214,899.2266,204,903.2266,214,907.2266,210,903.2266" style="stroke:#181818;stroke-width:1.0;"/><line style="stroke:#181818;stroke-width:1.0;" x1="208" x2="504.5" y1="903.2266" y2="903.2266"/><text fill="#000000" font-family="sans-serif" font-size="13" lengthAdjust="spacing" textLength="55" x="220" y="898.1606">samples</text><polygon fill="#181818" points="76,935.3594,66,939.3594,76,943.3594,72,939.3594" style="stroke:#181818;stroke-width:1.0;"/><line style="stroke:#181818;stroke-width:1.0;" x1="70" x2="202" y1="939.3594" y2="939.3594"/><text fill="#000000" font-family="sans-serif" font-size="13" lengthAdjust="spacing" textLength="111" x="82" y="934.2935">samples &amp; errors</text><rect fill="#EEEEEE" height="3" style="stroke:#EEEEEE;stroke-width:1.0;" width="783.5" x="0" y="967.9258"/><line style="stroke:#000000;stroke-width:1.0;" x1="0" x2="783.5" y1="967.9258" y2="967.9258"/><line style="stroke:#000000;stroke-width:1.0;" x1="0" x2="783.5" y1="970.9258" y2="970.9258"/><rect fill="#EEEEEE" height="23.1328" style="stroke:#000000;stroke-width:2.0;" width="54" x="364.75" y="957.3594"/><text fill="#000000" font-family="sans-serif" font-size="13" font-weight="bold" lengthAdjust="spacing" textLength="35" x="370.75" y="973.4263">.do()</text><polygon fill="#181818" points="191,1022.7578,201,1026.7578,191,1030.7578,195,1026.7578" style="stroke:#181818;stroke-width:1.0;"/><line style="stroke:#181818;stroke-width:1.0;" x1="65" x2="197" y1="1026.7578" y2="1026.7578"/><text fill="#000000" font-family="sans-serif" font-size="13" lengthAdjust="spacing" textLength="91" x="72" y="1006.5591">size OR errors</text><text fill="#000000" font-family="sans-serif" font-size="13" lengthAdjust="spacing" textLength="86" x="76" y="1021.6919">interventions</text><path d="M164,1041.7578 L228,1041.7578 L228,1048.8906 L218,1058.8906 L164,1058.8906 L164,1041.7578 " fill="#EEEEEE" style="stroke:#000000;stroke-width:1.5;"/><rect fill="none" height="101.3984" style="stroke:#000000;stroke-width:1.5;" width="176" x="164" y="1041.7578"/><text fill="#000000" font-family="sans-serif" font-size="13" font-weight="bold" lengthAdjust="spacing" textLength="19" x="179" y="1054.8247">alt</text><text fill="#000000" font-family="sans-serif" font-size="11" font-weight="bold" lengthAdjust="spacing" textLength="72" x="243" y="1053.9683">[size given]</text><line style="stroke:#181818;stroke-width:1.0;" x1="203" x2="250" y1="1075.0234" y2="1075.0234"/><line style="stroke:#181818;stroke-width:1.0;" x1="250" x2="250" y1="1075.0234" y2="1088.0234"/><line style="stroke:#181818;stroke-width:1.0;" x1="209" x2="250" y1="1088.0234" y2="1088.0234"/><polygon fill="#181818" points="219,1084.0234,209,1088.0234,219,1092.0234,215,1088.0234" style="stroke:#181818;stroke-width:1.0;"/><text fill="#000000" font-family="sans-serif" font-size="13" lengthAdjust="spacing" textLength="113" x="215" y="1069.9575">._get_errors(size)</text><line style="stroke:#181818;stroke-width:1.0;" x1="208" x2="250" y1="1127.1563" y2="1127.1563"/><line style="stroke:#181818;stroke-width:1.0;" x1="250" x2="250" y1="1127.1563" y2="1140.1563"/><line style="stroke:#181818;stroke-width:1.0;" x1="203" x2="250" y1="1140.1563" y2="1140.1563"/><polygon fill="#181818" points="213,1136.1563,203,1140.1563,213,1144.1563,209,1140.1563" style="stroke:#181818;stroke-width:1.0;"/><text fill="#000000" font-family="sans-serif" font-size="13" lengthAdjust="spacing" textLength="38" x="215" y="1122.0903">errors</text><polygon fill="#181818" points="397,1167.2891,407,1171.2891,397,1175.2891,401,1171.2891" style="stroke:#181818;stroke-width:1.0;"/><line style="stroke:#181818;stroke-width:1.0;" x1="203" x2="403" y1="1171.2891" y2="1171.2891"/><text fill="#000000" font-family="sans-serif" font-size="13" lengthAdjust="spacing" textLength="126" x="210" y="1166.2231">get topological sort</text><polygon fill="#181818" points="214,1196.4219,204,1200.4219,214,1204.4219,210,1200.4219" style="stroke:#181818;stroke-width:1.0;"/><line style="stroke:#181818;stroke-width:1.0;" x1="208" x2="408" y1="1200.4219" y2="1200.4219"/><text fill="#000000" font-family="sans-serif" font-size="13" lengthAdjust="spacing" textLength="65" x="220" y="1195.356">sorted list</text><path d="M164,1239.5547 L228,1239.5547 L228,1246.6875 L218,1256.6875 L164,1256.6875 L164,1239.5547 " fill="#EEEEEE" style="stroke:#000000;stroke-width:1.5;"/><rect fill="none" height="196.6016" style="stroke:#000000;stroke-width:1.5;" width="575.5" x="164" y="1239.5547"/><text fill="#000000" font-family="sans-serif" font-size="13" font-weight="bold" lengthAdjust="spacing" textLength="19" x="179" y="1252.6216">alt</text><text fill="#000000" font-family="sans-serif" font-size="11" font-weight="bold" lengthAdjust="spacing" textLength="144" x="243" y="1251.7651">[node in interventions]</text><line style="stroke:#181818;stroke-width:1.0;" x1="203" x2="245" y1="1277.8203" y2="1277.8203"/><line style="stroke:#181818;stroke-width:1.0;" x1="245" x2="245" y1="1277.8203" y2="1290.8203"/><line style="stroke:#181818;stroke-width:1.0;" x1="204" x2="245" y1="1290.8203" y2="1290.8203"/><polygon fill="#181818" points="214,1286.8203,204,1290.8203,214,1294.8203,210,1290.8203" style="stroke:#181818;stroke-width:1.0;"/><text fill="#000000" font-family="sans-serif" font-size="13" lengthAdjust="spacing" textLength="153" x="210" y="1272.7544">samples = intervention</text><line style="stroke:#000000;stroke-width:1.0;stroke-dasharray:2.0,2.0;" x1="164" x2="739.5" y1="1299.8203" y2="1299.8203"/><text fill="#000000" font-family="sans-serif" font-size="11" font-weight="bold" lengthAdjust="spacing" textLength="169" x="169" y="1310.0308">[node not in interventions]</text><polygon fill="#181818" points="572.5,1330.7578,582.5,1334.7578,572.5,1338.7578,576.5,1334.7578" style="stroke:#181818;stroke-width:1.0;"/><line style="stroke:#181818;stroke-width:1.0;" x1="203" x2="578.5" y1="1334.7578" y2="1334.7578"/><text fill="#000000" font-family="sans-serif" font-size="13" lengthAdjust="spacing" textLength="66" x="210" y="1329.6919">input data</text><polygon fill="#181818" points="214,1362.8906,204,1366.8906,214,1370.8906,210,1366.8906" style="stroke:#181818;stroke-width:1.0;"/><line style="stroke:#181818;stroke-width:1.0;" x1="208" x2="583.5" y1="1366.8906" y2="1366.8906"/><text fill="#000000" font-family="sans-serif" font-size="13" lengthAdjust="spacing" textLength="113" x="220" y="1361.8247">transformed data</text><path d="M589,1347.7578 L589,1372.7578 L724,1372.7578 L724,1357.7578 L714,1347.7578 L589,1347.7578 " fill="#FEFFDD" style="stroke:#181818;stroke-width:0.5;"/><path d="M714,1347.7578 L714,1357.7578 L724,1357.7578 L714,1347.7578 " fill="#FEFFDD" style="stroke:#181818;stroke-width:0.5;"/><text fill="#000000" font-family="sans-serif" font-size="13" lengthAdjust="spacing" textLength="114" x="595" y="1364.8247">respective parent</text><polygon fill="#181818" points="493.5,1395.0234,503.5,1399.0234,493.5,1403.0234,497.5,1399.0234" style="stroke:#181818;stroke-width:1.0;"/><line style="stroke:#181818;stroke-width:1.0;" x1="203" x2="499.5" y1="1399.0234" y2="1399.0234"/><text fill="#000000" font-family="sans-serif" font-size="13" lengthAdjust="spacing" textLength="169" x="210" y="1393.9575">transformed data &amp; errors</text><polygon fill="#181818" points="214,1424.1563,204,1428.1563,214,1432.1563,210,1428.1563" style="stroke:#181818;stroke-width:1.0;"/><line style="stroke:#181818;stroke-width:1.0;" x1="208" x2="504.5" y1="1428.1563" y2="1428.1563"/><text fill="#000000" font-family="sans-serif" font-size="13" lengthAdjust="spacing" textLength="55" x="220" y="1423.0903">samples</text><polygon fill="#181818" points="76,1460.2891,66,1464.2891,76,1468.2891,72,1464.2891" style="stroke:#181818;stroke-width:1.0;"/><line style="stroke:#181818;stroke-width:1.0;" x1="70" x2="202" y1="1464.2891" y2="1464.2891"/><text fill="#000000" font-family="sans-serif" font-size="13" lengthAdjust="spacing" textLength="111" x="82" y="1459.2231">samples &amp; errors</text><rect fill="#EEEEEE" height="3" style="stroke:#EEEEEE;stroke-width:1.0;" width="783.5" x="0" y="1492.8555"/><line style="stroke:#000000;stroke-width:1.0;" x1="0" x2="783.5" y1="1492.8555" y2="1492.8555"/><line style="stroke:#000000;stroke-width:1.0;" x1="0" x2="783.5" y1="1495.8555" y2="1495.8555"/><rect fill="#EEEEEE" height="23.1328" style="stroke:#000000;stroke-width:2.0;" width="134" x="324.75" y="1482.2891"/><text fill="#000000" font-family="sans-serif" font-size="13" font-weight="bold" lengthAdjust="spacing" textLength="115" x="330.75" y="1498.356">.do_functional()</text><polygon fill="#181818" points="191,1577.9531,201,1581.9531,191,1585.9531,195,1581.9531" style="stroke:#181818;stroke-width:1.0;"/><line style="stroke:#181818;stroke-width:1.0;" x1="65" x2="197" y1="1581.9531" y2="1581.9531"/><text fill="#000000" font-family="sans-serif" font-size="13" lengthAdjust="spacing" textLength="91" x="72" y="1531.4888">size OR errors</text><text fill="#000000" font-family="sans-serif" font-size="13" lengthAdjust="spacing" textLength="106" x="76" y="1546.6216">intervened node</text><text fill="#000000" font-family="sans-serif" font-size="13" lengthAdjust="spacing" textLength="80" x="76" y="1561.7544">new parents</text><text fill="#000000" font-family="sans-serif" font-size="13" lengthAdjust="spacing" textLength="73" x="76" y="1576.8872">do function</text><path d="M164,1596.9531 L228,1596.9531 L228,1604.0859 L218,1614.0859 L164,1614.0859 L164,1596.9531 " fill="#EEEEEE" style="stroke:#000000;stroke-width:1.5;"/><rect fill="none" height="101.3984" style="stroke:#000000;stroke-width:1.5;" width="176" x="164" y="1596.9531"/><text fill="#000000" font-family="sans-serif" font-size="13" font-weight="bold" lengthAdjust="spacing" textLength="19" x="179" y="1610.02">alt</text><text fill="#000000" font-family="sans-serif" font-size="11" font-weight="bold" lengthAdjust="spacing" textLength="72" x="243" y="1609.1636">[size given]</text><line style="stroke:#181818;stroke-width:1.0;" x1="203" x2="250" y1="1630.2188" y2="1630.2188"/><line style="stroke:#181818;stroke-width:1.0;" x1="250" x2="250" y1="1630.2188" y2="1643.2188"/><line style="stroke:#181818;stroke-width:1.0;" x1="209" x2="250" y1="1643.2188" y2="1643.2188"/><polygon fill="#181818" points="219,1639.2188,209,1643.2188,219,1647.2188,215,1643.2188" style="stroke:#181818;stroke-width:1.0;"/><text fill="#000000" font-family="sans-serif" font-size="13" lengthAdjust="spacing" textLength="113" x="215" y="1625.1528">._get_errors(size)</text><line style="stroke:#181818;stroke-width:1.0;" x1="208" x2="250" y1="1682.3516" y2="1682.3516"/><line style="stroke:#181818;stroke-width:1.0;" x1="250" x2="250" y1="1682.3516" y2="1695.3516"/><line style="stroke:#181818;stroke-width:1.0;" x1="203" x2="250" y1="1695.3516" y2="1695.3516"/><polygon fill="#181818" points="213,1691.3516,203,1695.3516,213,1699.3516,209,1695.3516" style="stroke:#181818;stroke-width:1.0;"/><text fill="#000000" font-family="sans-serif" font-size="13" lengthAdjust="spacing" textLength="38" x="215" y="1677.2856">errors</text><line style="stroke:#181818;stroke-width:1.0;" x1="203" x2="245" y1="1741.6172" y2="1741.6172"/><line style="stroke:#181818;stroke-width:1.0;" x1="245" x2="245" y1="1741.6172" y2="1754.6172"/><line style="stroke:#181818;stroke-width:1.0;" x1="204" x2="245" y1="1754.6172" y2="1754.6172"/><polygon fill="#181818" points="214,1750.6172,204,1754.6172,214,1758.6172,210,1754.6172" style="stroke:#181818;stroke-width:1.0;"/><text fill="#000000" font-family="sans-serif" font-size="13" lengthAdjust="spacing" textLength="157" x="210" y="1721.4185">revise adjcancey matrix</text><text fill="#000000" font-family="sans-serif" font-size="13" lengthAdjust="spacing" textLength="143" x="214" y="1736.5513">based on new parents</text><polygon fill="#181818" points="681,1779.75,691,1783.75,681,1787.75,685,1783.75" style="stroke:#181818;stroke-width:1.0;"/><line style="stroke:#181818;stroke-width:1.0;" x1="203" x2="687" y1="1783.75" y2="1783.75"/><text fill="#000000" font-family="sans-serif" font-size="13" lengthAdjust="spacing" textLength="113" x="210" y="1778.6841">adjacency matrix</text><polygon fill="#181818" points="214,1827.0156,204,1831.0156,214,1835.0156,210,1831.0156" style="stroke:#181818;stroke-width:1.0;"/><line style="stroke:#181818;stroke-width:1.0;" x1="208" x2="692" y1="1831.0156" y2="1831.0156"/><text fill="#000000" font-family="sans-serif" font-size="13" lengthAdjust="spacing" textLength="65" x="220" y="1825.9497">sorted list</text><path d="M20,1796.75 L20,1851.75 L198,1851.75 L198,1806.75 L188,1796.75 L20,1796.75 " fill="#FEFFDD" style="stroke:#181818;stroke-width:0.5;"/><path d="M188,1796.75 L188,1806.75 L198,1806.75 L188,1796.75 " fill="#FEFFDD" style="stroke:#181818;stroke-width:0.5;"/><text fill="#000000" font-family="sans-serif" font-size="13" lengthAdjust="spacing" textLength="133" x="26" y="1813.8169">requires new sorting</text><text fill="#000000" font-family="sans-serif" font-size="13" lengthAdjust="spacing" textLength="138" x="30" y="1828.9497">because new parents</text><text fill="#000000" font-family="sans-serif" font-size="13" lengthAdjust="spacing" textLength="153" x="30" y="1844.0825">change the node orders</text><path d="M164,1888.2813 L228,1888.2813 L228,1895.4141 L218,1905.4141 L164,1905.4141 L164,1888.2813 " fill="#EEEEEE" style="stroke:#000000;stroke-width:1.5;"/><rect fill="none" height="196.6016" style="stroke:#000000;stroke-width:1.5;" width="575.5" x="164" y="1888.2813"/><text fill="#000000" font-family="sans-serif" font-size="13" font-weight="bold" lengthAdjust="spacing" textLength="19" x="179" y="1901.3481">alt</text><text fill="#000000" font-family="sans-serif" font-size="11" font-weight="bold" lengthAdjust="spacing" textLength="111" x="243" y="1900.4917">[intervened node]</text><line style="stroke:#181818;stroke-width:1.0;" x1="203" x2="245" y1="1926.5469" y2="1926.5469"/><line style="stroke:#181818;stroke-width:1.0;" x1="245" x2="245" y1="1926.5469" y2="1939.5469"/><line style="stroke:#181818;stroke-width:1.0;" x1="204" x2="245" y1="1939.5469" y2="1939.5469"/><polygon fill="#181818" points="214,1935.5469,204,1939.5469,214,1943.5469,210,1939.5469" style="stroke:#181818;stroke-width:1.0;"/><text fill="#000000" font-family="sans-serif" font-size="13" lengthAdjust="spacing" textLength="192" x="210" y="1921.481">samples = func(new parents)</text><line style="stroke:#000000;stroke-width:1.0;stroke-dasharray:2.0,2.0;" x1="164" x2="739.5" y1="1948.5469" y2="1948.5469"/><text fill="#000000" font-family="sans-serif" font-size="11" font-weight="bold" lengthAdjust="spacing" textLength="169" x="169" y="1958.7573">[node not in interventions]</text><polygon fill="#181818" points="572.5,1979.4844,582.5,1983.4844,572.5,1987.4844,576.5,1983.4844" style="stroke:#181818;stroke-width:1.0;"/><line style="stroke:#181818;stroke-width:1.0;" x1="203" x2="578.5" y1="1983.4844" y2="1983.4844"/><text fill="#000000" font-family="sans-serif" font-size="13" lengthAdjust="spacing" textLength="66" x="210" y="1978.4185">input data</text><polygon fill="#181818" points="214,2011.6172,204,2015.6172,214,2019.6172,210,2015.6172" style="stroke:#181818;stroke-width:1.0;"/><line style="stroke:#181818;stroke-width:1.0;" x1="208" x2="583.5" y1="2015.6172" y2="2015.6172"/><text fill="#000000" font-family="sans-serif" font-size="13" lengthAdjust="spacing" textLength="113" x="220" y="2010.5513">transformed data</text><path d="M589,1996.4844 L589,2021.4844 L724,2021.4844 L724,2006.4844 L714,1996.4844 L589,1996.4844 " fill="#FEFFDD" style="stroke:#181818;stroke-width:0.5;"/><path d="M714,1996.4844 L714,2006.4844 L724,2006.4844 L714,1996.4844 " fill="#FEFFDD" style="stroke:#181818;stroke-width:0.5;"/><text fill="#000000" font-family="sans-serif" font-size="13" lengthAdjust="spacing" textLength="114" x="595" y="2013.5513">respective parent</text><polygon fill="#181818" points="493.5,2043.75,503.5,2047.75,493.5,2051.75,497.5,2047.75" style="stroke:#181818;stroke-width:1.0;"/><line style="stroke:#181818;stroke-width:1.0;" x1="203" x2="499.5" y1="2047.75" y2="2047.75"/><text fill="#000000" font-family="sans-serif" font-size="13" lengthAdjust="spacing" textLength="169" x="210" y="2042.6841">transformed data &amp; errors</text><polygon fill="#181818" points="214,2072.8828,204,2076.8828,214,2080.8828,210,2076.8828" style="stroke:#181818;stroke-width:1.0;"/><line style="stroke:#181818;stroke-width:1.0;" x1="208" x2="504.5" y1="2076.8828" y2="2076.8828"/><text fill="#000000" font-family="sans-serif" font-size="13" lengthAdjust="spacing" textLength="55" x="220" y="2071.8169">samples</text><polygon fill="#181818" points="76,2109.0156,66,2113.0156,76,2117.0156,72,2113.0156" style="stroke:#181818;stroke-width:1.0;"/><line style="stroke:#181818;stroke-width:1.0;" x1="70" x2="202" y1="2113.0156" y2="2113.0156"/><text fill="#000000" font-family="sans-serif" font-size="13" lengthAdjust="spacing" textLength="111" x="82" y="2107.9497">samples &amp; errors</text><rect fill="#EEEEEE" height="3" style="stroke:#EEEEEE;stroke-width:1.0;" width="783.5" x="0" y="2141.582"/><line style="stroke:#000000;stroke-width:1.0;" x1="0" x2="783.5" y1="2141.582" y2="2141.582"/><line style="stroke:#000000;stroke-width:1.0;" x1="0" x2="783.5" y1="2144.582" y2="2144.582"/><rect fill="#EEEEEE" height="23.1328" style="stroke:#000000;stroke-width:2.0;" width="88" x="347.75" y="2131.0156"/><text fill="#000000" font-family="sans-serif" font-size="13" font-weight="bold" lengthAdjust="spacing" textLength="69" x="353.75" y="2147.0825">.do_self()</text><polygon fill="#181818" points="191,2211.5469,201,2215.5469,191,2219.5469,195,2215.5469" style="stroke:#181818;stroke-width:1.0;"/><line style="stroke:#181818;stroke-width:1.0;" x1="65" x2="197" y1="2215.5469" y2="2215.5469"/><text fill="#000000" font-family="sans-serif" font-size="13" lengthAdjust="spacing" textLength="91" x="72" y="2180.2153">size OR errors</text><text fill="#000000" font-family="sans-serif" font-size="13" lengthAdjust="spacing" textLength="106" x="76" y="2195.3481">intervened node</text><text fill="#000000" font-family="sans-serif" font-size="13" lengthAdjust="spacing" textLength="53" x="76" y="2210.481">function</text><path d="M164,2230.5469 L228,2230.5469 L228,2237.6797 L218,2247.6797 L164,2247.6797 L164,2230.5469 " fill="#EEEEEE" style="stroke:#000000;stroke-width:1.5;"/><rect fill="none" height="101.3984" style="stroke:#000000;stroke-width:1.5;" width="176" x="164" y="2230.5469"/><text fill="#000000" font-family="sans-serif" font-size="13" font-weight="bold" lengthAdjust="spacing" textLength="19" x="179" y="2243.6138">alt</text><text fill="#000000" font-family="sans-serif" font-size="11" font-weight="bold" lengthAdjust="spacing" textLength="72" x="243" y="2242.7573">[size given]</text><line style="stroke:#181818;stroke-width:1.0;" x1="203" x2="250" y1="2263.8125" y2="2263.8125"/><line style="stroke:#181818;stroke-width:1.0;" x1="250" x2="250" y1="2263.8125" y2="2276.8125"/><line style="stroke:#181818;stroke-width:1.0;" x1="209" x2="250" y1="2276.8125" y2="2276.8125"/><polygon fill="#181818" points="219,2272.8125,209,2276.8125,219,2280.8125,215,2276.8125" style="stroke:#181818;stroke-width:1.0;"/><text fill="#000000" font-family="sans-serif" font-size="13" lengthAdjust="spacing" textLength="113" x="215" y="2258.7466">._get_errors(size)</text><line style="stroke:#181818;stroke-width:1.0;" x1="208" x2="250" y1="2315.9453" y2="2315.9453"/><line style="stroke:#181818;stroke-width:1.0;" x1="250" x2="250" y1="2315.9453" y2="2328.9453"/><line style="stroke:#181818;stroke-width:1.0;" x1="203" x2="250" y1="2328.9453" y2="2328.9453"/><polygon fill="#181818" points="213,2324.9453,203,2328.9453,213,2332.9453,209,2328.9453" style="stroke:#181818;stroke-width:1.0;"/><text fill="#000000" font-family="sans-serif" font-size="13" lengthAdjust="spacing" textLength="38" x="215" y="2310.8794">errors</text><polygon fill="#181818" points="397,2356.0781,407,2360.0781,397,2364.0781,401,2360.0781" style="stroke:#181818;stroke-width:1.0;"/><line style="stroke:#181818;stroke-width:1.0;" x1="203" x2="403" y1="2360.0781" y2="2360.0781"/><text fill="#000000" font-family="sans-serif" font-size="13" lengthAdjust="spacing" textLength="126" x="210" y="2355.0122">get topological sort</text><polygon fill="#181818" points="214,2385.2109,204,2389.2109,214,2393.2109,210,2389.2109" style="stroke:#181818;stroke-width:1.0;"/><line style="stroke:#181818;stroke-width:1.0;" x1="208" x2="408" y1="2389.2109" y2="2389.2109"/><text fill="#000000" font-family="sans-serif" font-size="13" lengthAdjust="spacing" textLength="65" x="220" y="2384.145">sorted list</text><path d="M154,2404.2109 L230,2404.2109 L230,2411.3438 L220,2421.3438 L154,2421.3438 L154,2404.2109 " fill="#EEEEEE" style="stroke:#000000;stroke-width:1.5;"/><rect fill="none" height="212.9297" style="stroke:#000000;stroke-width:1.5;" width="585.5" x="154" y="2404.2109"/><text fill="#000000" font-family="sans-serif" font-size="13" font-weight="bold" lengthAdjust="spacing" textLength="31" x="169" y="2417.2778">loop</text><text fill="#000000" font-family="sans-serif" font-size="11" font-weight="bold" lengthAdjust="spacing" textLength="155" x="245" y="2416.4214">[all nodes on sorted list]</text><polygon fill="#181818" points="572.5,2438.4766,582.5,2442.4766,572.5,2446.4766,576.5,2442.4766" style="stroke:#181818;stroke-width:1.0;"/><line style="stroke:#181818;stroke-width:1.0;" x1="203" x2="578.5" y1="2442.4766" y2="2442.4766"/><text fill="#000000" font-family="sans-serif" font-size="13" lengthAdjust="spacing" textLength="66" x="210" y="2437.4106">input data</text><polygon fill="#181818" points="214,2470.6094,204,2474.6094,214,2478.6094,210,2474.6094" style="stroke:#181818;stroke-width:1.0;"/><line style="stroke:#181818;stroke-width:1.0;" x1="208" x2="583.5" y1="2474.6094" y2="2474.6094"/><text fill="#000000" font-family="sans-serif" font-size="13" lengthAdjust="spacing" textLength="113" x="220" y="2469.5435">transformed data</text><path d="M589,2455.4766 L589,2480.4766 L724,2480.4766 L724,2465.4766 L714,2455.4766 L589,2455.4766 " fill="#FEFFDD" style="stroke:#181818;stroke-width:0.5;"/><path d="M714,2455.4766 L714,2465.4766 L724,2465.4766 L714,2455.4766 " fill="#FEFFDD" style="stroke:#181818;stroke-width:0.5;"/><text fill="#000000" font-family="sans-serif" font-size="13" lengthAdjust="spacing" textLength="114" x="595" y="2472.5435">respective parent</text><polygon fill="#181818" points="493.5,2502.7422,503.5,2506.7422,493.5,2510.7422,497.5,2506.7422" style="stroke:#181818;stroke-width:1.0;"/><line style="stroke:#181818;stroke-width:1.0;" x1="203" x2="499.5" y1="2506.7422" y2="2506.7422"/><text fill="#000000" font-family="sans-serif" font-size="13" lengthAdjust="spacing" textLength="169" x="210" y="2501.6763">transformed data &amp; errors</text><polygon fill="#181818" points="214,2531.875,204,2535.875,214,2539.875,210,2535.875" style="stroke:#181818;stroke-width:1.0;"/><line style="stroke:#181818;stroke-width:1.0;" x1="208" x2="504.5" y1="2535.875" y2="2535.875"/><text fill="#000000" font-family="sans-serif" font-size="13" lengthAdjust="spacing" textLength="55" x="220" y="2530.8091">samples</text><path d="M164,2550.875 L228,2550.875 L228,2558.0078 L218,2568.0078 L164,2568.0078 L164,2550.875 " fill="#EEEEEE" style="stroke:#000000;stroke-width:1.5;"/><rect fill="none" height="59.2656" style="stroke:#000000;stroke-width:1.5;" width="225" x="164" y="2550.875"/><text fill="#000000" font-family="sans-serif" font-size="13" font-weight="bold" lengthAdjust="spacing" textLength="19" x="179" y="2563.9419">alt</text><text fill="#000000" font-family="sans-serif" font-size="11" font-weight="bold" lengthAdjust="spacing" textLength="111" x="243" y="2563.0854">[intervened node]</text><line style="stroke:#181818;stroke-width:1.0;" x1="203" x2="245" y1="2589.1406" y2="2589.1406"/><line style="stroke:#181818;stroke-width:1.0;" x1="245" x2="245" y1="2589.1406" y2="2602.1406"/><line style="stroke:#181818;stroke-width:1.0;" x1="204" x2="245" y1="2602.1406" y2="2602.1406"/><polygon fill="#181818" points="214,2598.1406,204,2602.1406,214,2606.1406,210,2602.1406" style="stroke:#181818;stroke-width:1.0;"/><text fill="#000000" font-family="sans-serif" font-size="13" lengthAdjust="spacing" textLength="167" x="210" y="2584.0747">samples = func(samples)</text><polygon fill="#181818" points="76,2641.2734,66,2645.2734,76,2649.2734,72,2645.2734" style="stroke:#181818;stroke-width:1.0;"/><line style="stroke:#181818;stroke-width:1.0;" x1="70" x2="202" y1="2645.2734" y2="2645.2734"/><text fill="#000000" font-family="sans-serif" font-size="13" lengthAdjust="spacing" textLength="111" x="82" y="2640.2075">samples &amp; errors</text><!--SRC=[xLPDQzj04BthLmm91FkGa1vAgC25Gal9fOL2JqqnwzsHl66zg-wkyj5VtvcHR4l20PTSGbeTZ7PcTkRDl3UsbSuXmlU44KxVNBtJLwPeLCnMsqRv39-ZQjQW4jJoSlgXQPpLAjlWHt4VCUbe6xPpjA7Zo7_ouqiWuy_P_8JzdWvZ_oTJO-z4UXqxSsY22pKLTiiKOku3sLmKYmLS-vGfq0ekM2mAwUVyVOUw53Wzkg9hX7niBE6YzVTacSqB7p92jFKwbw0ZAZfPNmKuk_7eKnjnc0PkFDW4LUlS8wG6jQqicg9m8JIWd9CEKm7qx0gogPHFC5RdpYl7FL8P4qq9mkeMEGQz6I6xzjgrnlfQgkJ71XE4gYl7e18YU7p8L49HpWrKHA_1hAnB0tWyumayDfNoEO0dnpsyZgKHk4Av32g3GvKo18-zbx2iYICTOgGJJtvKhKzuaTIcSJXxUtavbm15iNSyUmauS4TC1YTnqp6jskZFGvkXovz49jjYSvR8L2F9_aRu-WqmnX2JT2McsjxX4zYNDUPb5p_Zs2CxABSrdknaAbAg0uCT0Dw1Wbr3_6H30ywcF9KXiJ9o7w3T-eQ6PLHMXsZFKVb4GjfGXbtCSDmHUGUe3mHQNFHTZKFodwQ2i-4q9jkm9Ozdiil3lErS- -j2i0d7a2lBwpD6OfQL-VhPvlvajdRQEVJF5FHslejHF8UZIzWb8mKSJlXQnRMiMY_VPShzhSu8aTGdayVxlX69C06sQL-A3liB4UyiSQtChLPUuoDiL8xsWJ2lLAA6mgYN_NKMRydNb4QljzSADZyXOQ7ROILi_sejKIwfEOP_wxWaQjMoylOLoQhNofEQyhgNP8W6Opfs9IRa7B4CpDHi067-hsz4GbSzOnTUclB__zww_d_XSvUaFtOSyP2FKTKV]--></g></svg>