<?xml version="1.0" encoding="us-ascii" standalone="no"?><svg xmlns="http://www.w3.org/2000/svg" xmlns:xlink="http://www.w3.org/1999/xlink" contentStyleType="text/css" height="1818px" preserveAspectRatio="none" style="width:1834px;height:1818px;background:#FFFFFF;" version="1.1" viewBox="0 0 1834 1818" width="1834px" zoomAndPan="magnify"><defs/><g><rect fill="none" height="20.9531" style="stroke:none;stroke-width:1.0;" width="1801.5" x="15" y="12.7451"/><ellipse cx="109" cy="48.6982" fill="#222222" rx="10" ry="10" style="stroke:#222222;stroke-width:1.0;"/><ellipse cx="109" cy="1795.4775" fill="none" rx="11" ry="11" style="stroke:#222222;stroke-width:1.0;"/><ellipse cx="109" cy="1795.4775" fill="#222222" rx="6" ry="6" style="stroke:#111111;stroke-width:1.0;"/><line style="stroke:#000000;stroke-width:1.5;" x1="15" x2="15" y1="12.7451" y2="1806.4775"/><rect fill="#78C1F3" height="1793.7324" style="stroke:#78C1F3;stroke-width:1.0;" width="269.5" x="202" y="12.7451"/><rect fill="#F1F1F1" height="33.9688" rx="12.5" ry="12.5" style="stroke:#181818;stroke-width:0.5;" width="77" x="327" y="95.9575"/><text fill="#000000" font-family="sans-serif" font-size="12" lengthAdjust="spacing" textLength="57" x="337" y="117.0962">tag parse</text><rect fill="#F1F1F1" height="33.9688" rx="12.5" ry="12.5" style="stroke:#181818;stroke-width:0.5;" width="98" x="316.5" y="364.7847"/><text fill="#000000" font-family="sans-serif" font-size="12" lengthAdjust="spacing" textLength="78" x="326.5" y="385.9233">check if data</text><rect fill="#F1F1F1" height="33.9688" rx="12.5" ry="12.5" style="stroke:#181818;stroke-width:0.5;" width="124" x="303.5" y="633.6118"/><text fill="#000000" font-family="sans-serif" font-size="12" lengthAdjust="spacing" textLength="104" x="313.5" y="654.7505">check if constant</text><rect fill="#F1F1F1" height="33.9688" rx="12.5" ry="12.5" style="stroke:#181818;stroke-width:0.5;" width="150" x="290.5" y="888.4702"/><text fill="#000000" font-family="sans-serif" font-size="12" lengthAdjust="spacing" textLength="130" x="300.5" y="909.6089">check if deterministic</text><rect fill="#F1F1F1" height="33.9688" rx="12.5" ry="12.5" style="stroke:#181818;stroke-width:0.5;" width="132" x="299.5" y="1157.2974"/><text fill="#000000" font-family="sans-serif" font-size="12" lengthAdjust="spacing" textLength="112" x="309.5" y="1178.436">check if stochastic</text><rect fill="#F1F1F1" height="33.9688" rx="12.5" ry="12.5" style="stroke:#181818;stroke-width:0.5;" width="154" x="288.5" y="1467.7339"/><text fill="#000000" font-family="sans-serif" font-size="12" lengthAdjust="spacing" textLength="134" x="298.5" y="1488.8726">raise Description Error</text><ellipse cx="365.5" cy="1539.2183" fill="none" rx="10" ry="10" style="stroke:#222222;stroke-width:1.5;"/><line style="stroke:#222222;stroke-width:2.5;" x1="359.3128" x2="371.6872" y1="1533.0311" y2="1545.4054"/><line style="stroke:#222222;stroke-width:2.5;" x1="371.6872" x2="359.3128" y1="1533.0311" y2="1545.4054"/><polygon fill="#F1F1F1" points="305.5,1419.3315,425.5,1419.3315,437.5,1431.3315,425.5,1443.3315,305.5,1443.3315,293.5,1431.3315,305.5,1419.3315" style="stroke:#181818;stroke-width:0.5;"/><text fill="#000000" font-family="sans-serif" font-size="11" lengthAdjust="spacing" textLength="14" x="369.5" y="1453.542">no</text><text fill="#000000" font-family="sans-serif" font-size="11" lengthAdjust="spacing" textLength="120" x="305.5" y="1435.1396">was stochastic node?</text><text fill="#000000" font-family="sans-serif" font-size="11" lengthAdjust="spacing" textLength="20" x="437.5" y="1428.7373">yes</text><polygon fill="#F1F1F1" points="297,1108.895,434,1108.895,446,1120.895,434,1132.895,297,1132.895,285,1120.895,297,1108.895" style="stroke:#181818;stroke-width:0.5;"/><text fill="#000000" font-family="sans-serif" font-size="11" lengthAdjust="spacing" textLength="14" x="369.5" y="1143.1055">no</text><text fill="#000000" font-family="sans-serif" font-size="11" lengthAdjust="spacing" textLength="137" x="297" y="1124.7031">was deterministic node?</text><text fill="#000000" font-family="sans-serif" font-size="11" lengthAdjust="spacing" textLength="20" x="265" y="1118.3008">yes</text><polygon fill="#F1F1F1" points="365.5,1591.2183,377.5,1603.2183,365.5,1615.2183,353.5,1603.2183,365.5,1591.2183" style="stroke:#181818;stroke-width:0.5;"/><polygon fill="#F1F1F1" points="309.5,840.0679,421.5,840.0679,433.5,852.0679,421.5,864.0679,309.5,864.0679,297.5,852.0679,309.5,840.0679" style="stroke:#181818;stroke-width:0.5;"/><text fill="#000000" font-family="sans-serif" font-size="11" lengthAdjust="spacing" textLength="14" x="369.5" y="874.2783">no</text><text fill="#000000" font-family="sans-serif" font-size="11" lengthAdjust="spacing" textLength="112" x="309.5" y="855.876">was constant node?</text><text fill="#000000" font-family="sans-serif" font-size="11" lengthAdjust="spacing" textLength="20" x="277.5" y="849.4736">yes</text><polygon fill="#F1F1F1" points="365.5,1635.2183,377.5,1647.2183,365.5,1659.2183,353.5,1647.2183,365.5,1635.2183" style="stroke:#181818;stroke-width:0.5;"/><polygon fill="#F1F1F1" points="321,585.2095,410,585.2095,422,597.2095,410,609.2095,321,609.2095,309,597.2095,321,585.2095" style="stroke:#181818;stroke-width:0.5;"/><text fill="#000000" font-family="sans-serif" font-size="11" lengthAdjust="spacing" textLength="14" x="369.5" y="619.4199">no</text><text fill="#000000" font-family="sans-serif" font-size="11" lengthAdjust="spacing" textLength="89" x="321" y="601.0176">was data node?</text><text fill="#000000" font-family="sans-serif" font-size="11" lengthAdjust="spacing" textLength="20" x="289" y="594.6152">yes</text><polygon fill="#F1F1F1" points="365.5,1679.2183,377.5,1691.2183,365.5,1703.2183,353.5,1691.2183,365.5,1679.2183" style="stroke:#181818;stroke-width:0.5;"/><polygon fill="#F1F1F1" points="311.5,316.3823,419.5,316.3823,431.5,328.3823,419.5,340.3823,311.5,340.3823,299.5,328.3823,311.5,316.3823" style="stroke:#181818;stroke-width:0.5;"/><text fill="#000000" font-family="sans-serif" font-size="11" lengthAdjust="spacing" textLength="14" x="369.5" y="350.5928">no</text><text fill="#000000" font-family="sans-serif" font-size="11" lengthAdjust="spacing" textLength="108" x="311.5" y="332.1904">was random node?</text><text fill="#000000" font-family="sans-serif" font-size="11" lengthAdjust="spacing" textLength="20" x="279.5" y="325.7881">yes</text><polygon fill="#F1F1F1" points="365.5,1723.2183,377.5,1735.2183,365.5,1747.2183,353.5,1735.2183,365.5,1723.2183" style="stroke:#181818;stroke-width:0.5;"/><line style="stroke:#000000;stroke-width:1.5;" x1="202" x2="202" y1="12.7451" y2="1806.4775"/><rect fill="#9BE8D8" height="1793.7324" style="stroke:#9BE8D8;stroke-width:1.0;" width="283" x="471.5" y="12.7451"/><polygon fill="#F1F1F1" points="587.25,167.1855,676.25,167.1855,688.25,179.1855,676.25,191.1855,587.25,191.1855,575.25,179.1855,587.25,167.1855" style="stroke:#181818;stroke-width:0.5;"/><text fill="#000000" font-family="sans-serif" font-size="11" lengthAdjust="spacing" textLength="89" x="587.25" y="182.9937">'random' in str?</text><text fill="#000000" font-family="sans-serif" font-size="11" lengthAdjust="spacing" textLength="20" x="555.25" y="176.5913">yes</text><text fill="#000000" font-family="sans-serif" font-size="11" lengthAdjust="spacing" textLength="14" x="688.25" y="176.5913">no</text><rect fill="#F1F1F1" height="47.9375" rx="12.5" ry="12.5" style="stroke:#181818;stroke-width:0.5;" width="162" x="477.5" y="201.1855"/><text fill="#000000" font-family="sans-serif" font-size="12" lengthAdjust="spacing" textLength="55" x="487.5" y="222.3242">return all</text><text fill="#000000" font-family="sans-serif" font-size="12" lengthAdjust="spacing" textLength="138" x="491.5" y="236.293">'?' stochastic node dict</text><rect fill="#F1F1F1" height="33.9688" rx="12.5" ry="12.5" style="stroke:#181818;stroke-width:0.5;" width="91" x="659.5" y="201.1855"/><text fill="#000000" font-family="sans-serif" font-size="12" lengthAdjust="spacing" textLength="71" x="669.5" y="222.3242">not random</text><polygon fill="#F1F1F1" points="631.75,255.123,643.75,267.123,631.75,279.123,619.75,267.123,631.75,255.123" style="stroke:#181818;stroke-width:0.5;"/><line style="stroke:#000000;stroke-width:1.5;" x1="471.5" x2="471.5" y1="12.7451" y2="1806.4775"/><polygon fill="#F1F1F1" points="838.5,436.0127,928.5,436.0127,940.5,448.0127,928.5,460.0127,838.5,460.0127,826.5,448.0127,838.5,436.0127" style="stroke:#181818;stroke-width:0.5;"/><text fill="#000000" font-family="sans-serif" font-size="11" lengthAdjust="spacing" textLength="90" x="838.5" y="451.8208">'data(...)' in str?</text><text fill="#000000" font-family="sans-serif" font-size="11" lengthAdjust="spacing" textLength="20" x="806.5" y="445.4185">yes</text><text fill="#000000" font-family="sans-serif" font-size="11" lengthAdjust="spacing" textLength="14" x="940.5" y="445.4185">no</text><rect fill="#F1F1F1" height="47.9375" rx="12.5" ry="12.5" style="stroke:#181818;stroke-width:0.5;" width="112" x="760.5" y="470.0127"/><text fill="#000000" font-family="sans-serif" font-size="12" lengthAdjust="spacing" textLength="92" x="770.5" y="491.1514">parse csv_dir &amp;</text><text fill="#000000" font-family="sans-serif" font-size="12" lengthAdjust="spacing" textLength="83" x="774.5" y="505.1201">column name</text><rect fill="#F1F1F1" height="33.9688" rx="12.5" ry="12.5" style="stroke:#181818;stroke-width:0.5;" width="71" x="915" y="470.0127"/><text fill="#000000" font-family="sans-serif" font-size="12" lengthAdjust="spacing" textLength="51" x="925" y="491.1514">not data</text><polygon fill="#F1F1F1" points="883.5,523.9502,895.5,535.9502,883.5,547.9502,871.5,535.9502,883.5,523.9502" style="stroke:#181818;stroke-width:0.5;"/><line style="stroke:#000000;stroke-width:1.5;" x1="754.5" x2="754.5" y1="12.7451" y2="1806.4775"/><polygon fill="#F1F1F1" points="1062.5,704.8398,1163.5,704.8398,1175.5,716.8398,1163.5,728.8398,1062.5,728.8398,1050.5,716.8398,1062.5,704.8398" style="stroke:#181818;stroke-width:0.5;"/><text fill="#000000" font-family="sans-serif" font-size="11" lengthAdjust="spacing" textLength="101" x="1062.5" y="720.6479">'constant()' in str?</text><text fill="#000000" font-family="sans-serif" font-size="11" lengthAdjust="spacing" textLength="20" x="1030.5" y="714.2456">yes</text><text fill="#000000" font-family="sans-serif" font-size="11" lengthAdjust="spacing" textLength="14" x="1175.5" y="714.2456">no</text><rect fill="#F1F1F1" height="33.9688" rx="12.5" ry="12.5" style="stroke:#181818;stroke-width:0.5;" width="89" x="996" y="738.8398"/><text fill="#000000" font-family="sans-serif" font-size="12" lengthAdjust="spacing" textLength="69" x="1006" y="759.9785">parse value</text><rect fill="#F1F1F1" height="33.9688" rx="12.5" ry="12.5" style="stroke:#181818;stroke-width:0.5;" width="97" x="1137" y="738.8398"/><text fill="#000000" font-family="sans-serif" font-size="12" lengthAdjust="spacing" textLength="77" x="1147" y="759.9785">not constant</text><polygon fill="#F1F1F1" points="1113,778.8086,1125,790.8086,1113,802.8086,1101,790.8086,1113,778.8086" style="stroke:#181818;stroke-width:0.5;"/><line style="stroke:#000000;stroke-width:1.5;" x1="990" x2="990" y1="12.7451" y2="1806.4775"/><polygon fill="#F1F1F1" points="1326,959.6982,1452,959.6982,1464,971.6982,1452,983.6982,1326,983.6982,1314,971.6982,1326,959.6982" style="stroke:#181818;stroke-width:0.5;"/><text fill="#000000" font-family="sans-serif" font-size="11" lengthAdjust="spacing" textLength="126" x="1326" y="975.5063">'deterministic()' in str?</text><text fill="#000000" font-family="sans-serif" font-size="11" lengthAdjust="spacing" textLength="20" x="1294" y="969.104">yes</text><text fill="#000000" font-family="sans-serif" font-size="11" lengthAdjust="spacing" textLength="14" x="1464" y="969.104">no</text><rect fill="#F1F1F1" height="47.9375" rx="12.5" ry="12.5" style="stroke:#181818;stroke-width:0.5;" width="120" x="1244" y="993.6982"/><text fill="#000000" font-family="sans-serif" font-size="12" lengthAdjust="spacing" textLength="100" x="1254" y="1014.8369">read py function</text><text fill="#000000" font-family="sans-serif" font-size="12" lengthAdjust="spacing" textLength="77" x="1258" y="1028.8057">from module</text><rect fill="#F1F1F1" height="33.9688" rx="12.5" ry="12.5" style="stroke:#181818;stroke-width:0.5;" width="123" x="1412.5" y="993.6982"/><text fill="#000000" font-family="sans-serif" font-size="12" lengthAdjust="spacing" textLength="103" x="1422.5" y="1014.8369">not deterministic</text><polygon fill="#F1F1F1" points="1389,1047.6357,1401,1059.6357,1389,1071.6357,1377,1059.6357,1389,1047.6357" style="stroke:#181818;stroke-width:0.5;"/><line style="stroke:#000000;stroke-width:1.5;" x1="1238" x2="1238" y1="12.7451" y2="1806.4775"/><polygon fill="#F1F1F1" points="1649.25,1228.5254,1724.25,1228.5254,1736.25,1241.3301,1724.25,1254.1348,1649.25,1254.1348,1637.25,1241.3301,1649.25,1228.5254" style="stroke:#181818;stroke-width:0.5;"/><text fill="#000000" font-family="sans-serif" font-size="11" lengthAdjust="spacing" textLength="74" x="1649.25" y="1238.7358">a distribution</text><text fill="#000000" font-family="sans-serif" font-size="11" lengthAdjust="spacing" textLength="71" x="1653.25" y="1251.5405">name in str?</text><text fill="#000000" font-family="sans-serif" font-size="11" lengthAdjust="spacing" textLength="20" x="1617.25" y="1238.7358">yes</text><text fill="#000000" font-family="sans-serif" font-size="11" lengthAdjust="spacing" textLength="14" x="1736.25" y="1238.7358">no</text><rect fill="#F1F1F1" height="33.9688" rx="12.5" ry="12.5" style="stroke:#181818;stroke-width:0.5;" width="122" x="1554.5" y="1264.1348"/><text fill="#000000" font-family="sans-serif" font-size="12" lengthAdjust="spacing" textLength="102" x="1564.5" y="1285.2734">read dist params</text><rect fill="#F1F1F1" height="33.9688" rx="12.5" ry="12.5" style="stroke:#181818;stroke-width:0.5;" width="140" x="1545.5" y="1318.1035"/><text fill="#000000" font-family="sans-serif" font-size="12" lengthAdjust="spacing" textLength="120" x="1555.5" y="1339.2422">extract coef vectors</text><rect fill="#F1F1F1" height="33.9688" rx="12.5" ry="12.5" style="stroke:#181818;stroke-width:0.5;" width="105" x="1705.5" y="1264.1348"/><text fill="#000000" font-family="sans-serif" font-size="12" lengthAdjust="spacing" textLength="85" x="1715.5" y="1285.2734">not stochastic</text><polygon fill="#F1F1F1" points="1686.75,1358.0723,1698.75,1370.0723,1686.75,1382.0723,1674.75,1370.0723,1686.75,1358.0723" style="stroke:#181818;stroke-width:0.5;"/><line style="stroke:#000000;stroke-width:1.5;" x1="1539.5" x2="1539.5" y1="12.7451" y2="1806.4775"/><line style="stroke:#000000;stroke-width:1.5;" x1="1814.5" x2="1814.5" y1="12.7451" y2="1806.4775"/><line style="stroke:#181818;stroke-width:1.0;" x1="365.5" x2="365.5" y1="1501.7026" y2="1529.2183"/><polygon fill="#181818" points="361.5,1519.2183,365.5,1529.2183,369.5,1519.2183,365.5,1523.2183" style="stroke:#181818;stroke-width:1.0;"/><line style="stroke:#181818;stroke-width:1.0;" x1="365.5" x2="365.5" y1="1443.3315" y2="1467.7339"/><polygon fill="#181818" points="361.5,1457.7339,365.5,1467.7339,369.5,1457.7339,365.5,1461.7339" style="stroke:#181818;stroke-width:1.0;"/><line style="stroke:#181818;stroke-width:1.0;" x1="437.5" x2="452.5" y1="1431.3315" y2="1431.3315"/><polygon fill="#181818" points="448.5,1499.2183,452.5,1509.2183,456.5,1499.2183,452.5,1503.2183" style="stroke:#181818;stroke-width:1.0;"/><line style="stroke:#181818;stroke-width:1.0;" x1="452.5" x2="452.5" y1="1431.3315" y2="1571.2183"/><line style="stroke:#181818;stroke-width:1.0;" x1="452.5" x2="365.5" y1="1571.2183" y2="1571.2183"/><line style="stroke:#181818;stroke-width:1.0;" x1="365.5" x2="365.5" y1="1571.2183" y2="1591.2183"/><polygon fill="#181818" points="361.5,1581.2183,365.5,1591.2183,369.5,1581.2183,365.5,1585.2183" style="stroke:#181818;stroke-width:1.0;"/><line style="stroke:#181818;stroke-width:1.0;" x1="365.5" x2="365.5" y1="1132.895" y2="1157.2974"/><polygon fill="#181818" points="361.5,1147.2974,365.5,1157.2974,369.5,1147.2974,365.5,1151.2974" style="stroke:#181818;stroke-width:1.0;"/><line style="stroke:#181818;stroke-width:1.0;" x1="285" x2="251" y1="1120.895" y2="1120.895"/><polygon fill="#181818" points="247,1354.7012,251,1364.7012,255,1354.7012,251,1358.7012" style="stroke:#181818;stroke-width:1.0;"/><line style="stroke:#181818;stroke-width:1.0;" x1="251" x2="251" y1="1120.895" y2="1603.2183"/><line style="stroke:#181818;stroke-width:1.0;" x1="251" x2="353.5" y1="1603.2183" y2="1603.2183"/><polygon fill="#181818" points="343.5,1599.2183,353.5,1603.2183,343.5,1607.2183,347.5,1603.2183" style="stroke:#181818;stroke-width:1.0;"/><line style="stroke:#181818;stroke-width:1.0;" x1="365.5" x2="365.5" y1="864.0679" y2="888.4702"/><polygon fill="#181818" points="361.5,878.4702,365.5,888.4702,369.5,878.4702,365.5,882.4702" style="stroke:#181818;stroke-width:1.0;"/><line style="stroke:#181818;stroke-width:1.0;" x1="297.5" x2="241" y1="852.0679" y2="852.0679"/><polygon fill="#181818" points="237,1248.9434,241,1258.9434,245,1248.9434,241,1252.9434" style="stroke:#181818;stroke-width:1.0;"/><line style="stroke:#181818;stroke-width:1.0;" x1="241" x2="241" y1="852.0679" y2="1647.2183"/><line style="stroke:#181818;stroke-width:1.0;" x1="241" x2="353.5" y1="1647.2183" y2="1647.2183"/><polygon fill="#181818" points="343.5,1643.2183,353.5,1647.2183,343.5,1651.2183,347.5,1647.2183" style="stroke:#181818;stroke-width:1.0;"/><line style="stroke:#181818;stroke-width:1.0;" x1="365.5" x2="365.5" y1="1615.2183" y2="1635.2183"/><polygon fill="#181818" points="361.5,1625.2183,365.5,1635.2183,369.5,1625.2183,365.5,1629.2183" style="stroke:#181818;stroke-width:1.0;"/><line style="stroke:#181818;stroke-width:1.0;" x1="365.5" x2="365.5" y1="609.2095" y2="633.6118"/><polygon fill="#181818" points="361.5,623.6118,365.5,633.6118,369.5,623.6118,365.5,627.6118" style="stroke:#181818;stroke-width:1.0;"/><line style="stroke:#181818;stroke-width:1.0;" x1="309" x2="231" y1="597.2095" y2="597.2095"/><polygon fill="#181818" points="227,1145.7153,231,1155.7153,235,1145.7153,231,1149.7153" style="stroke:#181818;stroke-width:1.0;"/><line style="stroke:#181818;stroke-width:1.0;" x1="231" x2="231" y1="597.2095" y2="1691.2183"/><line style="stroke:#181818;stroke-width:1.0;" x1="231" x2="353.5" y1="1691.2183" y2="1691.2183"/><polygon fill="#181818" points="343.5,1687.2183,353.5,1691.2183,343.5,1695.2183,347.5,1691.2183" style="stroke:#181818;stroke-width:1.0;"/><line style="stroke:#181818;stroke-width:1.0;" x1="365.5" x2="365.5" y1="1659.2183" y2="1679.2183"/><polygon fill="#181818" points="361.5,1669.2183,365.5,1679.2183,369.5,1669.2183,365.5,1673.2183" style="stroke:#181818;stroke-width:1.0;"/><line style="stroke:#181818;stroke-width:1.0;" x1="365.5" x2="365.5" y1="340.3823" y2="364.7847"/><polygon fill="#181818" points="361.5,354.7847,365.5,364.7847,369.5,354.7847,365.5,358.7847" style="stroke:#181818;stroke-width:1.0;"/><line style="stroke:#181818;stroke-width:1.0;" x1="299.5" x2="221" y1="328.3823" y2="328.3823"/><polygon fill="#181818" points="217,1035.5029,221,1045.5029,225,1035.5029,221,1039.5029" style="stroke:#181818;stroke-width:1.0;"/><line style="stroke:#181818;stroke-width:1.0;" x1="221" x2="221" y1="328.3823" y2="1735.2183"/><line style="stroke:#181818;stroke-width:1.0;" x1="221" x2="353.5" y1="1735.2183" y2="1735.2183"/><polygon fill="#181818" points="343.5,1731.2183,353.5,1735.2183,343.5,1739.2183,347.5,1735.2183" style="stroke:#181818;stroke-width:1.0;"/><line style="stroke:#181818;stroke-width:1.0;" x1="365.5" x2="365.5" y1="1703.2183" y2="1723.2183"/><polygon fill="#181818" points="361.5,1713.2183,365.5,1723.2183,369.5,1713.2183,365.5,1717.2183" style="stroke:#181818;stroke-width:1.0;"/><line style="stroke:#181818;stroke-width:1.0;" x1="575.25" x2="558.5" y1="179.1855" y2="179.1855"/><line style="stroke:#181818;stroke-width:1.0;" x1="558.5" x2="558.5" y1="179.1855" y2="201.1855"/><polygon fill="#181818" points="554.5,191.1855,558.5,201.1855,562.5,191.1855,558.5,195.1855" style="stroke:#181818;stroke-width:1.0;"/><line style="stroke:#181818;stroke-width:1.0;" x1="688.25" x2="705" y1="179.1855" y2="179.1855"/><line style="stroke:#181818;stroke-width:1.0;" x1="705" x2="705" y1="179.1855" y2="201.1855"/><polygon fill="#181818" points="701,191.1855,705,201.1855,709,191.1855,705,195.1855" style="stroke:#181818;stroke-width:1.0;"/><line style="stroke:#181818;stroke-width:1.0;" x1="558.5" x2="558.5" y1="249.123" y2="267.123"/><line style="stroke:#181818;stroke-width:1.0;" x1="558.5" x2="619.75" y1="267.123" y2="267.123"/><polygon fill="#181818" points="609.75,263.123,619.75,267.123,609.75,271.123,613.75,267.123" style="stroke:#181818;stroke-width:1.0;"/><line style="stroke:#181818;stroke-width:1.0;" x1="705" x2="705" y1="235.1543" y2="267.123"/><line style="stroke:#181818;stroke-width:1.0;" x1="705" x2="643.75" y1="267.123" y2="267.123"/><polygon fill="#181818" points="653.75,263.123,643.75,267.123,653.75,271.123,649.75,267.123" style="stroke:#181818;stroke-width:1.0;"/><line style="stroke:#181818;stroke-width:1.0;" x1="826.5" x2="816.5" y1="448.0127" y2="448.0127"/><line style="stroke:#181818;stroke-width:1.0;" x1="816.5" x2="816.5" y1="448.0127" y2="470.0127"/><polygon fill="#181818" points="812.5,460.0127,816.5,470.0127,820.5,460.0127,816.5,464.0127" style="stroke:#181818;stroke-width:1.0;"/><line style="stroke:#181818;stroke-width:1.0;" x1="940.5" x2="950.5" y1="448.0127" y2="448.0127"/><line style="stroke:#181818;stroke-width:1.0;" x1="950.5" x2="950.5" y1="448.0127" y2="470.0127"/><polygon fill="#181818" points="946.5,460.0127,950.5,470.0127,954.5,460.0127,950.5,464.0127" style="stroke:#181818;stroke-width:1.0;"/><line style="stroke:#181818;stroke-width:1.0;" x1="816.5" x2="816.5" y1="517.9502" y2="535.9502"/><line style="stroke:#181818;stroke-width:1.0;" x1="816.5" x2="871.5" y1="535.9502" y2="535.9502"/><polygon fill="#181818" points="861.5,531.9502,871.5,535.9502,861.5,539.9502,865.5,535.9502" style="stroke:#181818;stroke-width:1.0;"/><line style="stroke:#181818;stroke-width:1.0;" x1="950.5" x2="950.5" y1="503.9814" y2="535.9502"/><line style="stroke:#181818;stroke-width:1.0;" x1="950.5" x2="895.5" y1="535.9502" y2="535.9502"/><polygon fill="#181818" points="905.5,531.9502,895.5,535.9502,905.5,539.9502,901.5,535.9502" style="stroke:#181818;stroke-width:1.0;"/><line style="stroke:#181818;stroke-width:1.0;" x1="1050.5" x2="1040.5" y1="716.8398" y2="716.8398"/><line style="stroke:#181818;stroke-width:1.0;" x1="1040.5" x2="1040.5" y1="716.8398" y2="738.8398"/><polygon fill="#181818" points="1036.5,728.8398,1040.5,738.8398,1044.5,728.8398,1040.5,732.8398" style="stroke:#181818;stroke-width:1.0;"/><line style="stroke:#181818;stroke-width:1.0;" x1="1175.5" x2="1185.5" y1="716.8398" y2="716.8398"/><line style="stroke:#181818;stroke-width:1.0;" x1="1185.5" x2="1185.5" y1="716.8398" y2="738.8398"/><polygon fill="#181818" points="1181.5,728.8398,1185.5,738.8398,1189.5,728.8398,1185.5,732.8398" style="stroke:#181818;stroke-width:1.0;"/><line style="stroke:#181818;stroke-width:1.0;" x1="1040.5" x2="1040.5" y1="772.8086" y2="790.8086"/><line style="stroke:#181818;stroke-width:1.0;" x1="1040.5" x2="1101" y1="790.8086" y2="790.8086"/><polygon fill="#181818" points="1091,786.8086,1101,790.8086,1091,794.8086,1095,790.8086" style="stroke:#181818;stroke-width:1.0;"/><line style="stroke:#181818;stroke-width:1.0;" x1="1185.5" x2="1185.5" y1="772.8086" y2="790.8086"/><line style="stroke:#181818;stroke-width:1.0;" x1="1185.5" x2="1125" y1="790.8086" y2="790.8086"/><polygon fill="#181818" points="1135,786.8086,1125,790.8086,1135,794.8086,1131,790.8086" style="stroke:#181818;stroke-width:1.0;"/><line style="stroke:#181818;stroke-width:1.0;" x1="1314" x2="1304" y1="971.6982" y2="971.6982"/><line style="stroke:#181818;stroke-width:1.0;" x1="1304" x2="1304" y1="971.6982" y2="993.6982"/><polygon fill="#181818" points="1300,983.6982,1304,993.6982,1308,983.6982,1304,987.6982" style="stroke:#181818;stroke-width:1.0;"/><line style="stroke:#181818;stroke-width:1.0;" x1="1464" x2="1474" y1="971.6982" y2="971.6982"/><line style="stroke:#181818;stroke-width:1.0;" x1="1474" x2="1474" y1="971.6982" y2="993.6982"/><polygon fill="#181818" points="1470,983.6982,1474,993.6982,1478,983.6982,1474,987.6982" style="stroke:#181818;stroke-width:1.0;"/><line style="stroke:#181818;stroke-width:1.0;" x1="1304" x2="1304" y1="1041.6357" y2="1059.6357"/><line style="stroke:#181818;stroke-width:1.0;" x1="1304" x2="1377" y1="1059.6357" y2="1059.6357"/><polygon fill="#181818" points="1367,1055.6357,1377,1059.6357,1367,1063.6357,1371,1059.6357" style="stroke:#181818;stroke-width:1.0;"/><line style="stroke:#181818;stroke-width:1.0;" x1="1474" x2="1474" y1="1027.667" y2="1059.6357"/><line style="stroke:#181818;stroke-width:1.0;" x1="1474" x2="1401" y1="1059.6357" y2="1059.6357"/><polygon fill="#181818" points="1411,1055.6357,1401,1059.6357,1411,1063.6357,1407,1059.6357" style="stroke:#181818;stroke-width:1.0;"/><line style="stroke:#181818;stroke-width:1.0;" x1="1615.5" x2="1615.5" y1="1298.1035" y2="1318.1035"/><polygon fill="#181818" points="1611.5,1308.1035,1615.5,1318.1035,1619.5,1308.1035,1615.5,1312.1035" style="stroke:#181818;stroke-width:1.0;"/><line style="stroke:#181818;stroke-width:1.0;" x1="1637.25" x2="1615.5" y1="1241.3301" y2="1241.3301"/><line style="stroke:#181818;stroke-width:1.0;" x1="1615.5" x2="1615.5" y1="1241.3301" y2="1264.1348"/><polygon fill="#181818" points="1611.5,1254.1348,1615.5,1264.1348,1619.5,1254.1348,1615.5,1258.1348" style="stroke:#181818;stroke-width:1.0;"/><line style="stroke:#181818;stroke-width:1.0;" x1="1736.25" x2="1758" y1="1241.3301" y2="1241.3301"/><line style="stroke:#181818;stroke-width:1.0;" x1="1758" x2="1758" y1="1241.3301" y2="1264.1348"/><polygon fill="#181818" points="1754,1254.1348,1758,1264.1348,1762,1254.1348,1758,1258.1348" style="stroke:#181818;stroke-width:1.0;"/><line style="stroke:#181818;stroke-width:1.0;" x1="1615.5" x2="1615.5" y1="1352.0723" y2="1370.0723"/><line style="stroke:#181818;stroke-width:1.0;" x1="1615.5" x2="1674.75" y1="1370.0723" y2="1370.0723"/><polygon fill="#181818" points="1664.75,1366.0723,1674.75,1370.0723,1664.75,1374.0723,1668.75,1370.0723" style="stroke:#181818;stroke-width:1.0;"/><line style="stroke:#181818;stroke-width:1.0;" x1="1758" x2="1758" y1="1298.1035" y2="1370.0723"/><line style="stroke:#181818;stroke-width:1.0;" x1="1758" x2="1698.75" y1="1370.0723" y2="1370.0723"/><polygon fill="#181818" points="1708.75,1366.0723,1698.75,1370.0723,1708.75,1374.0723,1704.75,1370.0723" style="stroke:#181818;stroke-width:1.0;"/><line style="stroke:#181818;stroke-width:1.5;stroke-dasharray:7.0,7.0;" x1="109" x2="109" y1="58.6982" y2="80.9575"/><line style="stroke:#181818;stroke-width:1.5;stroke-dasharray:7.0,7.0;" x1="109" x2="365.5" y1="80.9575" y2="80.9575"/><line style="stroke:#181818;stroke-width:1.5;stroke-dasharray:7.0,7.0;" x1="365.5" x2="365.5" y1="80.9575" y2="95.9575"/><polygon fill="#181818" points="361.5,85.9575,365.5,95.9575,369.5,85.9575,365.5,89.9575" style="stroke:#181818;stroke-width:1.0;"/><text fill="#000000" font-family="sans-serif" font-size="11" lengthAdjust="spacing" textLength="52" x="113" y="74.4575">node line</text><line style="stroke:#181818;stroke-width:1.5;stroke-dasharray:7.0,7.0;" x1="365.5" x2="365.5" y1="129.9263" y2="152.1855"/><line style="stroke:#181818;stroke-width:1.5;stroke-dasharray:7.0,7.0;" x1="365.5" x2="631.75" y1="152.1855" y2="152.1855"/><line style="stroke:#181818;stroke-width:1.5;stroke-dasharray:7.0,7.0;" x1="631.75" x2="631.75" y1="152.1855" y2="167.1855"/><polygon fill="#181818" points="627.75,157.1855,631.75,167.1855,635.75,157.1855,631.75,161.1855" style="stroke:#181818;stroke-width:1.0;"/><text fill="#000000" font-family="sans-serif" font-size="11" lengthAdjust="spacing" textLength="52" x="369.5" y="145.6855">node line</text><line style="stroke:#181818;stroke-width:1.5;stroke-dasharray:7.0,7.0;" x1="365.5" x2="365.5" y1="398.7534" y2="421.0127"/><line style="stroke:#181818;stroke-width:1.5;stroke-dasharray:7.0,7.0;" x1="365.5" x2="883.5" y1="421.0127" y2="421.0127"/><line style="stroke:#181818;stroke-width:1.5;stroke-dasharray:7.0,7.0;" x1="883.5" x2="883.5" y1="421.0127" y2="436.0127"/><polygon fill="#181818" points="879.5,426.0127,883.5,436.0127,887.5,426.0127,883.5,430.0127" style="stroke:#181818;stroke-width:1.0;"/><text fill="#000000" font-family="sans-serif" font-size="11" lengthAdjust="spacing" textLength="52" x="369.5" y="414.5127">node line</text><line style="stroke:#181818;stroke-width:1.5;stroke-dasharray:7.0,7.0;" x1="365.5" x2="365.5" y1="667.5806" y2="689.8398"/><line style="stroke:#181818;stroke-width:1.5;stroke-dasharray:7.0,7.0;" x1="365.5" x2="1113" y1="689.8398" y2="689.8398"/><line style="stroke:#181818;stroke-width:1.5;stroke-dasharray:7.0,7.0;" x1="1113" x2="1113" y1="689.8398" y2="704.8398"/><polygon fill="#181818" points="1109,694.8398,1113,704.8398,1117,694.8398,1113,698.8398" style="stroke:#181818;stroke-width:1.0;"/><text fill="#000000" font-family="sans-serif" font-size="11" lengthAdjust="spacing" textLength="52" x="369.5" y="683.3398">node line</text><line style="stroke:#181818;stroke-width:1.5;stroke-dasharray:7.0,7.0;" x1="365.5" x2="365.5" y1="922.439" y2="944.6982"/><line style="stroke:#181818;stroke-width:1.5;stroke-dasharray:7.0,7.0;" x1="365.5" x2="1389" y1="944.6982" y2="944.6982"/><line style="stroke:#181818;stroke-width:1.5;stroke-dasharray:7.0,7.0;" x1="1389" x2="1389" y1="944.6982" y2="959.6982"/><polygon fill="#181818" points="1385,949.6982,1389,959.6982,1393,949.6982,1389,953.6982" style="stroke:#181818;stroke-width:1.0;"/><text fill="#000000" font-family="sans-serif" font-size="11" lengthAdjust="spacing" textLength="52" x="369.5" y="938.1982">node line</text><line style="stroke:#181818;stroke-width:1.5;stroke-dasharray:7.0,7.0;" x1="365.5" x2="365.5" y1="1191.2661" y2="1213.5254"/><line style="stroke:#181818;stroke-width:1.5;stroke-dasharray:7.0,7.0;" x1="365.5" x2="1686.75" y1="1213.5254" y2="1213.5254"/><line style="stroke:#181818;stroke-width:1.5;stroke-dasharray:7.0,7.0;" x1="1686.75" x2="1686.75" y1="1213.5254" y2="1228.5254"/><polygon fill="#181818" points="1682.75,1218.5254,1686.75,1228.5254,1690.75,1218.5254,1686.75,1222.5254" style="stroke:#181818;stroke-width:1.0;"/><text fill="#000000" font-family="sans-serif" font-size="11" lengthAdjust="spacing" textLength="52" x="369.5" y="1207.0254">node line</text><line style="stroke:#181818;stroke-width:1.5;stroke-dasharray:7.0,7.0;" x1="1686.75" x2="1686.75" y1="1382.0723" y2="1404.3315"/><line style="stroke:#181818;stroke-width:1.5;stroke-dasharray:7.0,7.0;" x1="1686.75" x2="365.5" y1="1404.3315" y2="1404.3315"/><line style="stroke:#181818;stroke-width:1.5;stroke-dasharray:7.0,7.0;" x1="365.5" x2="365.5" y1="1404.3315" y2="1419.3315"/><polygon fill="#181818" points="361.5,1409.3315,365.5,1419.3315,369.5,1409.3315,365.5,1413.3315" style="stroke:#181818;stroke-width:1.0;"/><text fill="#000000" font-family="sans-serif" font-size="11" lengthAdjust="spacing" textLength="32" x="1690.75" y="1397.8315">result</text><line style="stroke:#181818;stroke-width:1.5;stroke-dasharray:7.0,7.0;" x1="1389" x2="1389" y1="1071.6357" y2="1093.895"/><line style="stroke:#181818;stroke-width:1.5;stroke-dasharray:7.0,7.0;" x1="1389" x2="365.5" y1="1093.895" y2="1093.895"/><line style="stroke:#181818;stroke-width:1.5;stroke-dasharray:7.0,7.0;" x1="365.5" x2="365.5" y1="1093.895" y2="1108.895"/><polygon fill="#181818" points="361.5,1098.895,365.5,1108.895,369.5,1098.895,365.5,1102.895" style="stroke:#181818;stroke-width:1.0;"/><text fill="#000000" font-family="sans-serif" font-size="11" lengthAdjust="spacing" textLength="32" x="1393" y="1087.395">result</text><line style="stroke:#181818;stroke-width:1.5;stroke-dasharray:7.0,7.0;" x1="1113" x2="1113" y1="802.8086" y2="825.0679"/><line style="stroke:#181818;stroke-width:1.5;stroke-dasharray:7.0,7.0;" x1="1113" x2="365.5" y1="825.0679" y2="825.0679"/><line style="stroke:#181818;stroke-width:1.5;stroke-dasharray:7.0,7.0;" x1="365.5" x2="365.5" y1="825.0679" y2="840.0679"/><polygon fill="#181818" points="361.5,830.0679,365.5,840.0679,369.5,830.0679,365.5,834.0679" style="stroke:#181818;stroke-width:1.0;"/><text fill="#000000" font-family="sans-serif" font-size="11" lengthAdjust="spacing" textLength="32" x="1117" y="818.5679">result</text><line style="stroke:#181818;stroke-width:1.5;stroke-dasharray:7.0,7.0;" x1="883.5" x2="883.5" y1="547.9502" y2="570.2095"/><line style="stroke:#181818;stroke-width:1.5;stroke-dasharray:7.0,7.0;" x1="883.5" x2="365.5" y1="570.2095" y2="570.2095"/><line style="stroke:#181818;stroke-width:1.5;stroke-dasharray:7.0,7.0;" x1="365.5" x2="365.5" y1="570.2095" y2="585.2095"/><polygon fill="#181818" points="361.5,575.2095,365.5,585.2095,369.5,575.2095,365.5,579.2095" style="stroke:#181818;stroke-width:1.0;"/><text fill="#000000" font-family="sans-serif" font-size="11" lengthAdjust="spacing" textLength="32" x="887.5" y="563.7095">result</text><line style="stroke:#181818;stroke-width:1.5;stroke-dasharray:7.0,7.0;" x1="631.75" x2="631.75" y1="279.123" y2="301.3823"/><line style="stroke:#181818;stroke-width:1.5;stroke-dasharray:7.0,7.0;" x1="631.75" x2="365.5" y1="301.3823" y2="301.3823"/><line style="stroke:#181818;stroke-width:1.5;stroke-dasharray:7.0,7.0;" x1="365.5" x2="365.5" y1="301.3823" y2="316.3823"/><polygon fill="#181818" points="361.5,306.3823,365.5,316.3823,369.5,306.3823,365.5,310.3823" style="stroke:#181818;stroke-width:1.0;"/><text fill="#000000" font-family="sans-serif" font-size="11" lengthAdjust="spacing" textLength="32" x="635.75" y="294.8823">result</text><line style="stroke:#181818;stroke-width:1.5;stroke-dasharray:7.0,7.0;" x1="365.5" x2="365.5" y1="1747.2183" y2="1769.4775"/><line style="stroke:#181818;stroke-width:1.5;stroke-dasharray:7.0,7.0;" x1="365.5" x2="109" y1="1769.4775" y2="1769.4775"/><line style="stroke:#181818;stroke-width:1.5;stroke-dasharray:7.0,7.0;" x1="109" x2="109" y1="1769.4775" y2="1784.4775"/><polygon fill="#181818" points="105,1774.4775,109,1784.4775,113,1774.4775,109,1778.4775" style="stroke:#181818;stroke-width:1.0;"/><text fill="#000000" font-family="sans-serif" font-size="11" lengthAdjust="spacing" textLength="52" x="369.5" y="1762.9775">node dict</text><text fill="#000000" font-family="sans-serif" font-size="18" lengthAdjust="spacing" textLength="177" x="20" y="29.4531">description_parser()</text><text fill="#000000" font-family="sans-serif" font-size="18" lengthAdjust="spacing" textLength="123" x="275.25" y="29.4531">node_parser()</text><text fill="#000000" font-family="sans-serif" font-size="18" lengthAdjust="spacing" textLength="194" x="516" y="29.4531">parse_random_node()</text><text fill="#000000" font-family="sans-serif" font-size="18" lengthAdjust="spacing" textLength="165" x="789.75" y="29.4531">parse_data_node()</text><text fill="#000000" font-family="sans-serif" font-size="18" lengthAdjust="spacing" textLength="202" x="1013" y="29.4531">parse_constant_node()</text><text fill="#000000" font-family="sans-serif" font-size="18" lengthAdjust="spacing" textLength="242" x="1267.75" y="29.4531">parse_deterministic_node()</text><text fill="#000000" font-family="sans-serif" font-size="18" lengthAdjust="spacing" textLength="215" x="1569.5" y="29.4531">parse_stochastic_node()</text><!--SRC=[ZPRTZjiW48NlUOgHAZNEnKQgUj5q8tMbThSlqLOH1Rn1jI42d7ObFtmP_u83YVTkuSnuvZi3fEN2CYFFJcfrF5DZXIcsBR6E6aSUVd1gJuB_UlW2IdC1bLJYGDftd_RVFdp_sE9Q44GU7Ns5xly3yQhFNr_sp_ksMpWQghYkZnY2sang8aieDhrs0rA1TUPf2-ua51Hlmcu9-Bz78rnZ5D2g-gbWyxJnCirEr3h9-cnSCdSWeh822gM7AAKTzAdzbkAo954PHjYcyb5NRM5DVwaTOhiFJ3LDoTb9i3_WfPmwwXl1nQ5rN9aQn_LSyxZN0S28OhVRRVCCkezs-O7Pov5B0-yz3AQhfbQWQEqJeYPcC77eg-m4FObbNIEDheybaR5Gf8APqanYBamhFrNA3Nq6VCQTYD4zJXEhCRgu0oi0Tg5LC-198vempKLFuXdNBMHPR26wCNiUtsAqX1EcbahYe0SSmbaB9LT0rq2TXp1CjORkS3GfX_CRb8rYUAducIoDFpMrvaqLGC-3dsSqRZUAZ5suvyHDDw9X3ZzvsvROcla2Mg0Cl9arIMFMcZFMI_qjv_sGlvk1CnxwLIRDHc46lB5fRGzfcVZd36Lu4aG95y6SDWbftid9pP3GLVYrdMiilMjhQEtYYRZfQm-8Ij_Ky_m-meinsgGv-GuoK98Ez0sl4CV2X6WMB3RxZM0nyUG5RsMR-o6Wp_y1]--></g></svg>