<?xml version="1.0" encoding="UTF-8" standalone="no"?>
<!-- Created with Inkscape (http://www.inkscape.org/) -->

<svg
   width="165.35826mm"
   height="62.300274mm"
   viewBox="0 0 165.35826 62.300274"
   version="1.1"
   id="svg5"
   xml:space="preserve"
   inkscape:version="1.2.2 (732a01da63, 2022-12-09)"
   sodipodi:docname="parcs.svg"
   xmlns:inkscape="http://www.inkscape.org/namespaces/inkscape"
   xmlns:sodipodi="http://sodipodi.sourceforge.net/DTD/sodipodi-0.dtd"
   xmlns:xlink="http://www.w3.org/1999/xlink"
   xmlns="http://www.w3.org/2000/svg"
   xmlns:svg="http://www.w3.org/2000/svg"><sodipodi:namedview
     id="namedview7"
     pagecolor="#ffffff"
     bordercolor="#000000"
     borderopacity="0.25"
     inkscape:showpageshadow="2"
     inkscape:pageopacity="0.0"
     inkscape:pagecheckerboard="0"
     inkscape:deskcolor="#d1d1d1"
     inkscape:document-units="mm"
     showgrid="false"
     inkscape:zoom="2.5877449"
     inkscape:cx="266.64142"
     inkscape:cy="148.58497"
     inkscape:window-width="3840"
     inkscape:window-height="2054"
     inkscape:window-x="-11"
     inkscape:window-y="-11"
     inkscape:window-maximized="1"
     inkscape:current-layer="text113" /><defs
     id="defs2"><linearGradient
       inkscape:collect="always"
       id="linearGradient3229"><stop
         style="stop-color:#005162;stop-opacity:1"
         offset="0"
         id="stop3225" /><stop
         style="stop-color:#005663;stop-opacity:1"
         offset="1"
         id="stop3227" /></linearGradient><linearGradient
       inkscape:collect="always"
       id="linearGradient1121"><stop
         style="stop-color:#009374;stop-opacity:1;"
         offset="0"
         id="stop1117" /><stop
         style="stop-color:#005162;stop-opacity:1;"
         offset="1"
         id="stop1119" /></linearGradient><inkscape:path-effect
       effect="bspline"
       id="path-effect7079"
       is_visible="true"
       lpeversion="1"
       weight="33.333333"
       steps="2"
       helper_size="0"
       apply_no_weight="true"
       apply_with_weight="true"
       only_selected="false" /><inkscape:path-effect
       effect="bspline"
       id="path-effect5392"
       is_visible="true"
       lpeversion="1"
       weight="33.333333"
       steps="2"
       helper_size="0"
       apply_no_weight="true"
       apply_with_weight="true"
       only_selected="false" /><inkscape:path-effect
       effect="bspline"
       id="path-effect4384"
       is_visible="true"
       lpeversion="1"
       weight="33.333333"
       steps="2"
       helper_size="0"
       apply_no_weight="true"
       apply_with_weight="true"
       only_selected="false" /><linearGradient
       inkscape:collect="always"
       xlink:href="#linearGradient3229"
       id="linearGradient6184"
       gradientUnits="userSpaceOnUse"
       x1="57.195168"
       y1="127.67381"
       x2="60.606056"
       y2="125.8315"
       gradientTransform="translate(0.5989354,-2.0557807)" /><linearGradient
       inkscape:collect="always"
       xlink:href="#linearGradient1121"
       id="linearGradient6186"
       gradientUnits="userSpaceOnUse"
       x1="62.331635"
       y1="106.19187"
       x2="56.850494"
       y2="126.52747"
       gradientTransform="translate(0.5989354,-2.0557807)" /></defs><g
     inkscape:label="Layer 1"
     inkscape:groupmode="layer"
     id="layer1"
     transform="translate(-25.710108,-88.778615)"><g
       aria-label="PARCS"
       id="text113"
       style="font-size:64.2534px;line-height:0;letter-spacing:1.53458px;fill:#373737;stroke-width:5.35444"><path
         d="m 26.673909,135.40401 q -0.963801,0 -0.963801,-0.9638 V 91.64744 q 1.156561,-0.19276 2.63439,-0.385521 1.477828,-0.19276 3.084163,-0.321267 1.670588,-0.19276 3.341177,-0.257013 1.734842,-0.128507 3.341177,-0.128507 7.646155,0 11.115839,3.40543 3.533937,3.341177 3.533937,10.987328 0,3.91946 -0.963801,6.6181 -0.899548,2.69865 -2.63439,4.43349 -1.670588,1.67059 -4.112218,2.44163 -2.441629,0.70679 -5.461539,0.70679 -1.991855,0 -4.626245,-0.25702 -2.570136,-0.25701 -5.525793,-0.83529 v 17.34842 z m 2.762896,-20.6896 q 2.24887,0.51403 4.690499,0.8353 2.441629,0.25701 4.883259,0.25701 2.505882,0 4.369231,-0.51403 1.863349,-0.51403 3.084163,-1.73484 1.285068,-1.28507 1.863349,-3.34118 0.642534,-2.12036 0.642534,-5.26878 0,-3.53393 -0.771041,-5.718549 -0.706787,-2.184615 -2.120362,-3.341177 -1.349322,-1.220814 -3.405431,-1.606335 -1.991855,-0.38552 -4.497738,-0.38552 -2.891403,0 -5.076019,0.19276 -2.184615,0.19276 -3.662444,0.449774 z"
         style="font-weight:300;font-family:'HP Simplified';-inkscape-font-specification:'HP Simplified Light';baseline-shift:baseline"
         id="path7833" /><path
         d="m 108.32493,93.896309 q -3.27692,0 -5.52579,0.19276 -2.24887,0.19276 -3.726699,0.449774 v 18.633487 h 9.638009 q 2.18462,0 3.98371,-0.38552 1.7991,-0.38552 3.08417,-1.41358 1.34932,-1.0923 2.0561,-2.95565 0.77105,-1.86335 0.77105,-4.75475 0,-2.82715 -0.64254,-4.690502 -0.64253,-1.863349 -1.9276,-2.955657 -1.22082,-1.156561 -3.21267,-1.606335 -1.9276,-0.514027 -4.49774,-0.514027 z m -0.0643,-3.341177 q 3.8552,0 6.48959,0.899548 2.69864,0.835294 4.36923,2.505882 1.73484,1.670589 2.50589,4.112218 0.77104,2.44163 0.77104,5.59005 0,3.01991 -0.70679,5.20452 -0.70679,2.12036 -1.99186,3.59819 -1.22081,1.41358 -2.95565,2.31312 -1.73485,0.8353 -3.7267,1.28507 1.67059,1.9276 3.40543,4.56199 1.79909,2.63439 3.34118,5.39729 1.60633,2.7629 2.8914,5.26878 1.28507,2.50588 1.99186,4.11222 h -3.14842 q -0.70679,0 -0.9638,-0.32127 -0.25702,-0.32127 -0.38552,-0.64253 -0.64254,-1.34933 -1.7991,-3.46969 -1.15656,-2.18461 -2.69864,-4.6905 -1.47783,-2.50588 -3.27692,-5.07602 -1.7991,-2.63438 -3.7267,-4.819 h -9.573759 v 19.01901 h -2.762896 q -0.963801,0 -0.963801,-0.9638 V 91.64744 q 2.313122,-0.385521 5.782806,-0.706788 3.46968,-0.38552 7.13213,-0.38552 z"
         style="font-weight:300;font-family:'HP Simplified';-inkscape-font-specification:'HP Simplified Light';baseline-shift:baseline"
         id="path7837" /><path
         d="m 148.2831,93.832055 q -3.46968,0 -5.84706,0.963801 -2.37737,0.963801 -3.8552,3.212671 -1.47783,2.184613 -2.12036,5.847063 -0.64254,3.59819 -0.64254,8.99547 0,6.23258 0.8353,10.08779 0.83529,3.8552 2.44163,5.97556 1.60633,2.12037 3.98371,2.89141 2.37737,0.70678 5.46154,0.70678 3.14841,0 5.26877,-0.44977 2.12037,-0.44977 3.14842,-0.44977 1.09231,0 1.09231,1.02805 v 1.73484 q -1.60634,0.57828 -4.24073,1.09231 -2.63438,0.51403 -5.71855,0.51403 -4.6905,0 -7.83891,-1.41358 -3.08417,-1.47783 -4.94752,-4.36923 -1.86334,-2.8914 -2.63438,-7.13213 -0.77105,-4.30497 -0.77105,-9.89502 0,-5.97557 0.8353,-10.28054 0.89955,-4.304983 2.76289,-7.067879 1.92761,-2.82715 4.94752,-4.112218 3.08416,-1.349321 7.45339,-1.349321 1.15656,0 2.37738,0.128506 1.28507,0.06425 2.44163,0.257014 1.22081,0.128507 2.24887,0.38552 1.0923,0.192761 1.79909,0.449774 0.89955,0.321267 0.89955,1.349322 v 1.863348 q -1.7991,-0.321267 -4.36923,-0.642534 -2.57014,-0.321267 -5.01177,-0.321267 z"
         style="font-weight:300;font-family:'HP Simplified';-inkscape-font-specification:'HP Simplified Light';baseline-shift:baseline"
         id="path7839" /><path
         d="m 177.06113,135.98229 q -3.08416,0 -6.10407,-0.44978 -3.01991,-0.44977 -4.6905,-1.02805 -0.89955,-0.32127 -0.89955,-1.34932 v -1.86335 q 1.99186,0.32127 4.94752,0.83529 3.01991,0.44978 6.48959,0.44978 3.08416,0 5.07602,-0.57828 2.05611,-0.64254 3.21267,-1.73485 1.15656,-1.15656 1.60633,-2.76289 0.51403,-1.67059 0.51403,-3.79095 0,-2.12036 -0.51403,-3.53394 -0.51402,-1.47783 -1.73484,-2.50588 -1.22081,-1.09231 -3.34118,-1.86335 -2.0561,-0.8353 -5.14027,-1.7991 -2.57013,-0.77104 -4.6905,-1.60633 -2.12036,-0.89955 -3.66244,-2.24887 -1.54208,-1.34932 -2.37738,-3.34118 -0.83529,-2.05611 -0.83529,-5.07602 0,-2.570132 0.70679,-4.626241 0.77104,-2.120362 2.37737,-3.598191 1.60634,-1.477828 4.17647,-2.313122 2.63439,-0.835294 6.29684,-0.835294 1.15656,0 2.57013,0.06425 1.41358,0.06425 2.7629,0.257014 1.34932,0.128506 2.50588,0.38552 1.22082,0.19276 2.05611,0.449774 0.89955,0.321267 0.89955,1.349321 V 94.7316 q -1.99186,-0.321267 -4.88326,-0.642534 -2.82715,-0.38552 -5.52579,-0.38552 -5.78281,0 -7.96742,2.056108 -2.18462,1.991856 -2.18462,5.911316 0,2.12036 0.51403,3.53394 0.57828,1.41357 1.73484,2.37737 1.15656,0.9638 2.95566,1.67059 1.86334,0.70679 4.36923,1.47783 3.34117,0.9638 5.71855,1.99186 2.44163,0.9638 3.98371,2.37737 1.60634,1.41358 2.31312,3.46969 0.77104,2.0561 0.77104,5.14027 0,6.16832 -3.34117,9.25249 -3.34118,3.01991 -10.66607,3.01991 z"
         style="font-weight:300;font-family:'HP Simplified';-inkscape-font-specification:'HP Simplified Light';baseline-shift:baseline"
         id="path7841" /></g><g
       id="g7001"
       transform="translate(2.0628379,0.85925678)"><circle
         style="display:inline;fill:#009374;fill-opacity:1;stroke-width:0.134375"
         id="circle6160"
         cx="69.367622"
         cy="91.463409"
         r="3.5440514"
         inkscape:label="node green" /><path
         id="path6164"
         style="fill:url(#linearGradient6186);fill-opacity:1;stroke-width:0.45495"
         inkscape:label="arrow_main"
         d="m 65.379825,96.685759 c 0.73317,-1.18795 1.65195,-0.88259 1.21837,0.44435 -3.18844,9.757961 -4.1129,14.902571 -5.01401,18.745201 -0.84642,3.60947 -3.20974,16.11384 -5.1881,15.90905 -0.45909,-0.0475 -1.353284,-1.34673 -1.38124,-2.60892 -0.07732,-3.49095 1.87961,-9.88499 2.99629,-13.77716 1.82801,-6.37147 4.01687,-13.28161 7.36869,-18.712521 z"
         sodipodi:nodetypes="sssssss" /><path
         id="path6166"
         style="display:inline;fill:#009374;fill-opacity:1;stroke-width:0.485621"
         inkscape:label="arrow_main 2"
         d="m 72.707725,96.288119 c -0.83535,-1.18795 -1.999791,-0.832657 -1.38817,0.44435 3.371389,7.039141 3.508368,6.712241 7.37568,20.263461 3.172912,11.11801 2.72588,26.21732 4.92477,26.75374 1.93367,0.47172 0.69787,-18.09956 -2.51658,-28.74903 -1.937,-6.41729 -4.57671,-13.28161 -8.3957,-18.712521 z"
         sodipodi:nodetypes="ssssss" /><path
         id="path6168"
         style="fill:#005162;fill-opacity:1;stroke-width:0.264583"
         d="m 53.569202,122.19383 c 0.06314,-0.78454 0.356012,-2.02142 0.668372,-2.22699 0.556575,-0.3663 -0.287194,1.93892 1.177473,5.95007 0.784548,2.14856 1.999708,3.9681 1.999708,3.9681 0,0 -0.11813,1.92655 -0.90116,1.94859 -0.4442,0.0125 -1.526918,-0.0844 -2.253978,-2.7599 -0.655717,-2.413 -0.846915,-4.93515 -0.690415,-6.87987 z"
         sodipodi:nodetypes="ssscsss"
         inkscape:label="tip 1" /><path
         id="path6170"
         style="fill:url(#linearGradient6184);fill-opacity:1;stroke-width:0.34707"
         inkscape:label="tip 2"
         d="m 62.382065,120.76457 c 0.57503,-0.36372 1.28158,0.21762 0.89236,0.7854 -1.53614,2.24078 -1.80807,3.20312 -4.02087,7.05986 -1.01701,1.77263 -2.17832,3.46965 -2.93857,3.19089 -0.833058,-0.30546 -0.35602,-1.73383 -0.11063,-2.54766 1.01029,-3.3505 5.49136,-8.05435 6.17771,-8.48849 z"
         sodipodi:nodetypes="ssssas" /><path
         id="path6172"
         style="fill:#009374;fill-opacity:1;stroke-width:0.264583"
         inkscape:label="tip 3"
         d="m 85.663645,129.29091 c 1.09365,-0.53193 1.5101,0.15424 0.82654,1.67947 -0.61468,1.37152 -0.97716,2.69507 -1.52516,5.45255 -0.4006,2.0157 -0.30099,7.15045 -1.32332,7.20604 -1.10889,0.0603 -0.029,-7.22521 0.34081,-9.43343 0.36988,-2.20824 1.21798,-4.67937 1.68113,-4.90463 z"
         sodipodi:nodetypes="sssszs" /><path
         id="path6174"
         style="fill:#009374;fill-opacity:1;stroke-width:0.217785"
         inkscape:label="tip 3"
         d="m 79.620805,133.14976 c -1.02287,-0.20163 -1.26832,0.39378 -0.4357,1.42198 0.74872,0.92458 1.27366,1.85917 2.1899,3.84428 0.66977,1.4511 1.41663,5.35316 2.30122,5.2076 0.95948,-0.15788 -1.1461,-5.47028 -1.82074,-7.07265 -0.67467,-1.60236 -1.80151,-3.31582 -2.23468,-3.40121 z"
         sodipodi:nodetypes="sssszs" /><circle
         style="display:inline;fill:#005162;fill-opacity:1;stroke-width:0.113053"
         id="circle6176"
         cx="55.717949"
         cy="135.99098"
         r="2.9817052"
         inkscape:label="node green" /><circle
         style="display:inline;fill:#009374;fill-opacity:1;stroke-width:0.106269"
         id="circle6180"
         cx="84.065308"
         cy="147.41685"
         r="2.8027771"
         inkscape:label="node green" /></g></g></svg>
