<?xml version="1.0" encoding="UTF-8"?>
<svg xmlns="http://www.w3.org/2000/svg" xmlns:xlink="http://www.w3.org/1999/xlink" width="100px" height="38px" viewBox="0 0 100 38" version="1.1">
<g id="surface1">
<path style=" stroke:none;fill-rule:nonzero;fill:rgb(100%,100%,100%);fill-opacity:1;" d="M 0.582031 28.40625 C 0.195312 28.40625 0 28.210938 0 27.820312 L 0 1.746094 C 0.464844 1.667969 0.996094 1.589844 1.59375 1.511719 C 2.1875 1.433594 2.808594 1.371094 3.457031 1.316406 C 4.132812 1.238281 4.804688 1.1875 5.476562 1.160156 C 6.175781 1.109375 6.851562 1.082031 7.5 1.082031 C 10.582031 1.082031 12.820312 1.773438 14.21875 3.15625 C 15.644531 4.515625 16.355469 6.746094 16.355469 9.851562 C 16.355469 11.441406 16.164062 12.789062 15.773438 13.882812 C 15.410156 14.980469 14.878906 15.878906 14.179688 16.585938 C 13.507812 17.261719 12.679688 17.757812 11.695312 18.070312 C 10.710938 18.359375 9.609375 18.503906 8.390625 18.503906 C 7.589844 18.503906 6.65625 18.449219 5.59375 18.347656 C 4.558594 18.242188 3.445312 18.070312 2.253906 17.835938 L 2.253906 28.40625 Z M 2.253906 15.800781 C 3.160156 16.011719 4.105469 16.179688 5.089844 16.308594 C 6.074219 16.414062 7.058594 16.46875 8.042969 16.46875 C 9.050781 16.46875 9.933594 16.363281 10.683594 16.152344 C 11.433594 15.945312 12.058594 15.59375 12.550781 15.097656 C 13.066406 14.574219 13.441406 13.894531 13.675781 13.0625 C 13.933594 12.199219 14.0625 11.128906 14.0625 9.851562 C 14.0625 8.414062 13.910156 7.253906 13.597656 6.367188 C 13.3125 5.480469 12.886719 4.800781 12.316406 4.332031 C 11.773438 3.835938 11.085938 3.507812 10.257812 3.351562 C 9.453125 3.195312 8.546875 3.117188 7.539062 3.117188 C 6.371094 3.117188 5.347656 3.15625 4.46875 3.234375 C 3.585938 3.3125 2.847656 3.40625 2.253906 3.507812 Z M 2.253906 15.800781 "/>
<path style=" stroke:none;fill-rule:nonzero;fill:rgb(100%,100%,100%);fill-opacity:1;" d="M 49.953125 3.117188 C 48.632812 3.117188 47.519531 3.15625 46.613281 3.234375 C 45.707031 3.3125 44.953125 3.40625 44.359375 3.507812 L 44.359375 14.863281 L 50.1875 14.863281 C 51.066406 14.863281 51.871094 14.785156 52.597656 14.628906 C 53.320312 14.46875 53.941406 14.183594 54.460938 13.765625 C 55.003906 13.320312 55.417969 12.722656 55.703125 11.964844 C 56.015625 11.207031 56.171875 10.242188 56.171875 9.066406 C 56.171875 7.921875 56.039062 6.96875 55.78125 6.210938 C 55.523438 5.453125 55.132812 4.851562 54.617188 4.410156 C 54.125 3.941406 53.476562 3.613281 52.671875 3.429688 C 51.894531 3.222656 50.988281 3.117188 49.953125 3.117188 Z M 49.914062 1.082031 C 51.46875 1.082031 52.777344 1.265625 53.839844 1.628906 C 54.925781 1.96875 55.808594 2.480469 56.480469 3.15625 C 57.179688 3.835938 57.683594 4.671875 57.996094 5.664062 C 58.308594 6.652344 58.460938 7.789062 58.460938 9.066406 C 58.460938 10.292969 58.320312 11.351562 58.035156 12.238281 C 57.75 13.101562 57.347656 13.832031 56.832031 14.429688 C 56.339844 15.003906 55.742188 15.476562 55.042969 15.839844 C 54.34375 16.179688 53.59375 16.441406 52.789062 16.625 C 53.464844 17.40625 54.148438 18.332031 54.847656 19.402344 C 55.574219 20.472656 56.246094 21.570312 56.871094 22.691406 C 57.515625 23.8125 58.101562 24.882812 58.617188 25.902344 C 59.136719 26.917969 59.539062 27.753906 59.820312 28.40625 L 57.917969 28.40625 C 57.632812 28.40625 57.4375 28.339844 57.335938 28.210938 C 57.230469 28.082031 57.15625 27.949219 57.101562 27.820312 C 56.84375 27.273438 56.480469 26.566406 56.015625 25.707031 C 55.546875 24.820312 55.003906 23.867188 54.382812 22.847656 C 53.789062 21.832031 53.125 20.800781 52.402344 19.753906 C 51.675781 18.683594 50.925781 17.707031 50.148438 16.820312 L 44.359375 16.820312 L 44.359375 28.40625 L 42.6875 28.40625 C 42.300781 28.40625 42.105469 28.210938 42.105469 27.820312 L 42.105469 1.746094 C 43.039062 1.589844 44.203125 1.449219 45.601562 1.316406 C 47 1.160156 48.4375 1.082031 49.914062 1.082031 Z M 49.914062 1.082031 "/>
<path style=" stroke:none;fill-rule:nonzero;fill:rgb(100%,100%,100%);fill-opacity:1;" d="M 74.113281 3.078125 C 72.714844 3.078125 71.539062 3.273438 70.578125 3.667969 C 69.621094 4.058594 68.84375 4.710938 68.25 5.625 C 67.652344 6.511719 67.226562 7.699219 66.964844 9.1875 C 66.707031 10.648438 66.578125 12.472656 66.578125 14.667969 C 66.578125 17.199219 66.746094 19.246094 67.082031 20.8125 C 67.417969 22.378906 67.910156 23.589844 68.558594 24.453125 C 69.207031 25.3125 70.007812 25.902344 70.96875 26.214844 C 71.925781 26.5 73.027344 26.644531 74.269531 26.644531 C 75.539062 26.644531 76.601562 26.554688 77.457031 26.371094 C 78.3125 26.1875 78.945312 26.097656 79.359375 26.097656 C 79.800781 26.097656 80.019531 26.304688 80.019531 26.722656 L 80.019531 27.78125 C 79.371094 28.015625 78.519531 28.238281 77.457031 28.445312 C 76.394531 28.65625 75.242188 28.757812 74 28.757812 C 72.109375 28.757812 70.527344 28.472656 69.257812 27.898438 C 68.015625 27.296875 67.019531 26.410156 66.265625 25.234375 C 65.515625 24.0625 64.984375 22.613281 64.675781 20.890625 C 64.363281 19.140625 64.207031 17.132812 64.207031 14.863281 C 64.207031 12.433594 64.375 10.347656 64.714844 8.597656 C 65.074219 6.851562 65.632812 5.414062 66.382812 4.292969 C 67.160156 3.144531 68.15625 2.308594 69.375 1.785156 C 70.617188 1.238281 72.121094 0.964844 73.882812 0.964844 C 74.347656 0.964844 74.828125 0.992188 75.320312 1.042969 C 75.835938 1.070312 76.328125 1.121094 76.796875 1.199219 C 77.289062 1.253906 77.742188 1.332031 78.15625 1.433594 C 78.597656 1.511719 78.957031 1.605469 79.242188 1.707031 C 79.605469 1.839844 79.789062 2.113281 79.789062 2.53125 L 79.789062 3.667969 C 79.0625 3.535156 78.179688 3.40625 77.144531 3.273438 C 76.109375 3.144531 75.097656 3.078125 74.113281 3.078125 Z M 74.113281 3.078125 "/>
<path style=" stroke:none;fill-rule:nonzero;fill:rgb(100%,100%,100%);fill-opacity:1;" d="M 91.515625 28.757812 C 90.273438 28.757812 89.042969 28.667969 87.824219 28.484375 C 86.609375 28.300781 85.664062 28.09375 84.988281 27.859375 C 84.625 27.726562 84.445312 27.453125 84.445312 27.035156 L 84.445312 25.902344 C 85.246094 26.03125 86.246094 26.203125 87.4375 26.410156 C 88.652344 26.59375 89.960938 26.683594 91.359375 26.683594 C 92.605469 26.683594 93.625 26.566406 94.429688 26.332031 C 95.257812 26.070312 95.90625 25.71875 96.371094 25.273438 C 96.839844 24.804688 97.164062 24.246094 97.34375 23.589844 C 97.550781 22.914062 97.65625 22.144531 97.65625 21.28125 C 97.65625 20.421875 97.550781 19.703125 97.34375 19.128906 C 97.136719 18.527344 96.785156 18.019531 96.292969 17.601562 C 95.800781 17.160156 95.128906 16.78125 94.273438 16.46875 C 93.445312 16.128906 92.410156 15.761719 91.167969 15.371094 C 90.128906 15.058594 89.183594 14.730469 88.328125 14.390625 C 87.476562 14.027344 86.738281 13.570312 86.117188 13.023438 C 85.492188 12.472656 85.015625 11.796875 84.679688 10.988281 C 84.339844 10.152344 84.171875 9.121094 84.171875 7.894531 C 84.171875 6.851562 84.316406 5.910156 84.601562 5.074219 C 84.910156 4.214844 85.390625 3.484375 86.039062 2.882812 C 86.683594 2.28125 87.527344 1.8125 88.5625 1.472656 C 89.625 1.132812 90.894531 0.964844 92.371094 0.964844 C 92.835938 0.964844 93.355469 0.976562 93.925781 1.003906 C 94.496094 1.03125 95.050781 1.082031 95.59375 1.160156 C 96.140625 1.210938 96.644531 1.292969 97.109375 1.394531 C 97.601562 1.472656 98.015625 1.566406 98.355469 1.667969 C 98.714844 1.800781 98.898438 2.074219 98.898438 2.492188 L 98.898438 3.625 C 98.09375 3.496094 97.109375 3.367188 95.945312 3.234375 C 94.804688 3.078125 93.691406 3 92.605469 3 C 90.273438 3 88.667969 3.417969 87.785156 4.253906 C 86.90625 5.0625 86.464844 6.261719 86.464844 7.855469 C 86.464844 8.714844 86.570312 9.433594 86.777344 10.007812 C 87.007812 10.582031 87.359375 11.066406 87.824219 11.457031 C 88.292969 11.847656 88.886719 12.1875 89.613281 12.472656 C 90.363281 12.761719 91.242188 13.0625 92.253906 13.375 C 93.601562 13.765625 94.753906 14.171875 95.710938 14.589844 C 96.695312 14.980469 97.5 15.460938 98.121094 16.035156 C 98.769531 16.609375 99.234375 17.316406 99.519531 18.148438 C 99.832031 18.984375 99.984375 20.03125 99.984375 21.28125 C 99.984375 23.789062 99.3125 25.667969 97.964844 26.917969 C 96.617188 28.144531 94.46875 28.757812 91.515625 28.757812 Z M 91.515625 28.757812 "/>
<path style=" stroke:none;fill-rule:nonzero;fill:rgb(100%,100%,100%);fill-opacity:1;" d="M 29.789062 2.160156 C 29.789062 3.351562 28.828125 4.320312 27.644531 4.320312 C 26.460938 4.320312 25.503906 3.351562 25.503906 2.160156 C 25.503906 0.964844 26.460938 0 27.644531 0 C 28.828125 0 29.789062 0.964844 29.789062 2.160156 Z M 29.789062 2.160156 "/>
<path style=" stroke:none;fill-rule:nonzero;fill:rgb(100%,100%,100%);fill-opacity:1;" d="M 25.234375 5.339844 C 25.675781 4.617188 26.234375 4.804688 25.96875 5.613281 C 24.042969 11.558594 23.484375 14.691406 22.9375 17.03125 C 22.425781 19.230469 21 26.851562 19.800781 26.726562 C 19.523438 26.695312 18.984375 25.90625 18.964844 25.136719 C 18.921875 23.007812 20.101562 19.113281 20.777344 16.742188 C 21.882812 12.859375 23.207031 8.648438 25.234375 5.339844 Z M 25.234375 5.339844 "/>
<path style=" stroke:none;fill-rule:nonzero;fill:rgb(100%,100%,100%);fill-opacity:1;" d="M 29.664062 5.097656 C 29.160156 4.375 28.457031 4.589844 28.824219 5.371094 C 30.863281 9.65625 30.945312 9.457031 33.285156 17.714844 C 35.203125 24.488281 34.933594 33.6875 36.261719 34.015625 C 37.433594 34.300781 36.683594 22.988281 34.742188 16.5 C 33.570312 12.589844 31.972656 8.40625 29.664062 5.097656 Z M 29.664062 5.097656 "/>
<path style=" stroke:none;fill-rule:nonzero;fill:rgb(100%,100%,100%);fill-opacity:1;" d="M 18.09375 20.882812 C 18.128906 20.402344 18.308594 19.648438 18.496094 19.523438 C 18.832031 19.300781 18.324219 20.707031 19.207031 23.148438 C 19.683594 24.460938 20.417969 25.566406 20.417969 25.566406 C 20.417969 25.566406 20.347656 26.742188 19.871094 26.753906 C 19.605469 26.761719 18.949219 26.703125 18.511719 25.074219 C 18.113281 23.601562 17.996094 22.066406 18.09375 20.882812 Z M 18.09375 20.882812 "/>
<path style=" stroke:none;fill-rule:nonzero;fill:rgb(100%,100%,100%);fill-opacity:1;" d="M 23.421875 20.011719 C 23.769531 19.789062 24.195312 20.144531 23.960938 20.488281 C 23.03125 21.855469 22.867188 22.441406 21.53125 24.789062 C 20.914062 25.871094 20.210938 26.90625 19.753906 26.734375 C 19.25 26.550781 19.539062 25.679688 19.6875 25.183594 C 20.296875 23.140625 23.007812 20.277344 23.421875 20.011719 Z M 23.421875 20.011719 "/>
<path style=" stroke:none;fill-rule:nonzero;fill:rgb(100%,100%,100%);fill-opacity:1;" d="M 37.5 25.207031 C 38.160156 24.882812 38.410156 25.300781 38 26.230469 C 37.625 27.066406 37.40625 27.871094 37.078125 29.550781 C 36.835938 30.777344 36.894531 33.90625 36.277344 33.941406 C 35.605469 33.976562 36.257812 29.539062 36.480469 28.195312 C 36.707031 26.847656 37.21875 25.34375 37.5 25.207031 Z M 37.5 25.207031 "/>
<path style=" stroke:none;fill-rule:nonzero;fill:rgb(100%,100%,100%);fill-opacity:1;" d="M 33.84375 27.558594 C 33.226562 27.433594 33.078125 27.796875 33.582031 28.421875 C 34.035156 28.988281 34.351562 29.554688 34.90625 30.765625 C 35.3125 31.648438 35.761719 34.027344 36.296875 33.9375 C 36.878906 33.84375 35.605469 30.605469 35.195312 29.628906 C 34.789062 28.652344 34.105469 27.609375 33.84375 27.558594 Z M 33.84375 27.558594 "/>
<path style=" stroke:none;fill-rule:nonzero;fill:rgb(100%,100%,100%);fill-opacity:1;" d="M 21.195312 29.289062 C 21.195312 30.292969 20.386719 31.105469 19.390625 31.105469 C 18.394531 31.105469 17.589844 30.292969 17.589844 29.289062 C 17.589844 28.285156 18.394531 27.472656 19.390625 27.472656 C 20.386719 27.472656 21.195312 28.285156 21.195312 29.289062 Z M 21.195312 29.289062 "/>
<path style=" stroke:none;fill-rule:nonzero;fill:rgb(100%,100%,100%);fill-opacity:1;" d="M 38.226562 36.25 C 38.226562 37.191406 37.46875 37.957031 36.53125 37.957031 C 35.597656 37.957031 34.835938 37.191406 34.835938 36.25 C 34.835938 35.304688 35.597656 34.542969 36.53125 34.542969 C 37.46875 34.542969 38.226562 35.304688 38.226562 36.25 Z M 38.226562 36.25 "/>
</g>
</svg>
