<?xml version="1.0" encoding="us-ascii" standalone="no"?><svg xmlns="http://www.w3.org/2000/svg" xmlns:xlink="http://www.w3.org/1999/xlink" contentStyleType="text/css" height="570px" preserveAspectRatio="none" style="width:906px;height:570px;background:#FFFFFF;" version="1.1" viewBox="0 0 906 570" width="906px" zoomAndPan="magnify"><defs/><g><rect fill="#87CEEB" height="214.7969" style="stroke:#181818;stroke-width:1.0;" width="10" x="176" y="266.0938"/><line style="stroke:#181818;stroke-width:0.5;stroke-dasharray:5.0,5.0;" x1="24" x2="24" y1="81.2969" y2="489.8906"/><line style="stroke:#181818;stroke-width:0.5;stroke-dasharray:5.0,5.0;" x1="180.5" x2="180.5" y1="81.2969" y2="489.8906"/><line style="stroke:#181818;stroke-width:0.5;stroke-dasharray:5.0,5.0;" x1="386.5" x2="386.5" y1="81.2969" y2="489.8906"/><line style="stroke:#181818;stroke-width:0.5;stroke-dasharray:5.0,5.0;" x1="536.5" x2="536.5" y1="81.2969" y2="489.8906"/><line style="stroke:#181818;stroke-width:0.5;stroke-dasharray:5.0,5.0;" x1="688.5" x2="688.5" y1="81.2969" y2="489.8906"/><line style="stroke:#181818;stroke-width:0.5;stroke-dasharray:5.0,5.0;" x1="831.5" x2="831.5" y1="81.2969" y2="489.8906"/><text fill="#000000" font-family="sans-serif" font-size="14" lengthAdjust="spacing" textLength="32" x="5" y="77.9951">User</text><ellipse cx="24" cy="13.5" fill="#179C7D" rx="8" ry="8" style="stroke:#181818;stroke-width:0.5;"/><path d="M24,21.5 L24,48.5 M11,29.5 L37,29.5 M24,48.5 L11,63.5 M24,48.5 L37,63.5 " fill="none" style="stroke:#181818;stroke-width:0.5;"/><text fill="#000000" font-family="sans-serif" font-size="14" lengthAdjust="spacing" textLength="32" x="5" y="501.8857">User</text><ellipse cx="24" cy="513.6875" fill="#179C7D" rx="8" ry="8" style="stroke:#181818;stroke-width:0.5;"/><path d="M24,521.6875 L24,548.6875 M11,529.6875 L37,529.6875 M24,548.6875 L11,563.6875 M24,548.6875 L37,563.6875 " fill="none" style="stroke:#181818;stroke-width:0.5;"/><rect fill="#C2F0FF" height="30.2969" rx="2.5" ry="2.5" style="stroke:#181818;stroke-width:0.5;" width="95" x="133.5" y="50"/><text fill="#000000" font-family="sans-serif" font-size="14" lengthAdjust="spacing" textLength="81" x="140.5" y="69.9951">Description</text><rect fill="#C2F0FF" height="30.2969" rx="2.5" ry="2.5" style="stroke:#181818;stroke-width:0.5;" width="95" x="133.5" y="488.8906"/><text fill="#000000" font-family="sans-serif" font-size="14" lengthAdjust="spacing" textLength="81" x="140.5" y="508.8857">Description</text><rect fill="#E2E2F0" height="30.2969" rx="2.5" ry="2.5" style="stroke:#181818;stroke-width:0.5;" width="123" x="325.5" y="50"/><text fill="#000000" font-family="sans-serif" font-size="14" lengthAdjust="spacing" textLength="109" x="332.5" y="69.9951">digest_outline()</text><rect fill="#E2E2F0" height="30.2969" rx="2.5" ry="2.5" style="stroke:#181818;stroke-width:0.5;" width="123" x="325.5" y="488.8906"/><text fill="#000000" font-family="sans-serif" font-size="14" lengthAdjust="spacing" textLength="109" x="332.5" y="508.8857">digest_outline()</text><rect fill="#E2E2F0" height="30.2969" rx="2.5" ry="2.5" style="stroke:#181818;stroke-width:0.5;" width="156" x="458.5" y="50"/><text fill="#000000" font-family="sans-serif" font-size="14" lengthAdjust="spacing" textLength="142" x="465.5" y="69.9951">description_parser()</text><rect fill="#E2E2F0" height="30.2969" rx="2.5" ry="2.5" style="stroke:#181818;stroke-width:0.5;" width="156" x="458.5" y="488.8906"/><text fill="#000000" font-family="sans-serif" font-size="14" lengthAdjust="spacing" textLength="142" x="465.5" y="508.8857">description_parser()</text><rect fill="#E2E2F0" height="30.2969" rx="2.5" ry="2.5" style="stroke:#181818;stroke-width:0.5;" width="129" x="624.5" y="50"/><text fill="#000000" font-family="sans-serif" font-size="14" lengthAdjust="spacing" textLength="115" x="631.5" y="69.9951">get_adj_matrix()</text><rect fill="#E2E2F0" height="30.2969" rx="2.5" ry="2.5" style="stroke:#181818;stroke-width:0.5;" width="129" x="624.5" y="488.8906"/><text fill="#000000" font-family="sans-serif" font-size="14" lengthAdjust="spacing" textLength="115" x="631.5" y="508.8857">get_adj_matrix()</text><rect fill="#E2E2F0" height="30.2969" rx="2.5" ry="2.5" style="stroke:#181818;stroke-width:0.5;" width="137" x="763.5" y="50"/><text fill="#000000" font-family="sans-serif" font-size="14" lengthAdjust="spacing" textLength="123" x="770.5" y="69.9951">topological_sort()</text><rect fill="#E2E2F0" height="30.2969" rx="2.5" ry="2.5" style="stroke:#181818;stroke-width:0.5;" width="137" x="763.5" y="488.8906"/><text fill="#000000" font-family="sans-serif" font-size="14" lengthAdjust="spacing" textLength="123" x="770.5" y="508.8857">topological_sort()</text><rect fill="#87CEEB" height="214.7969" style="stroke:#181818;stroke-width:1.0;" width="10" x="176" y="266.0938"/><polygon fill="#181818" points="169,108.4297,179,112.4297,169,116.4297,173,112.4297" style="stroke:#181818;stroke-width:1.0;"/><line style="stroke:#181818;stroke-width:1.0;" x1="24" x2="175" y1="112.4297" y2="112.4297"/><text fill="#000000" font-family="sans-serif" font-size="13" lengthAdjust="spacing" textLength="133" x="31" y="107.3638">outline (dict or path)</text><polygon fill="#181818" points="375,137.5625,385,141.5625,375,145.5625,379,141.5625" style="stroke:#181818;stroke-width:1.0;"/><line style="stroke:#181818;stroke-width:1.0;" x1="181" x2="381" y1="141.5625" y2="141.5625"/><text fill="#000000" font-family="sans-serif" font-size="13" lengthAdjust="spacing" textLength="80" x="188" y="136.4966">send outline</text><polygon fill="#181818" points="192,166.6953,182,170.6953,192,174.6953,188,170.6953" style="stroke:#181818;stroke-width:1.0;"/><line style="stroke:#181818;stroke-width:1.0;" x1="186" x2="386" y1="170.6953" y2="170.6953"/><text fill="#000000" font-family="sans-serif" font-size="13" lengthAdjust="spacing" textLength="59" x="198" y="165.6294">send dict</text><polygon fill="#181818" points="524.5,195.8281,534.5,199.8281,524.5,203.8281,528.5,199.8281" style="stroke:#181818;stroke-width:1.0;"/><line style="stroke:#181818;stroke-width:1.0;" x1="181" x2="530.5" y1="199.8281" y2="199.8281"/><text fill="#000000" font-family="sans-serif" font-size="13" lengthAdjust="spacing" textLength="196" x="188" y="194.7622">[outline dict , infer_edges arg]</text><polygon fill="#181818" points="192,224.9609,182,228.9609,192,232.9609,188,228.9609" style="stroke:#181818;stroke-width:1.0;"/><line style="stroke:#181818;stroke-width:1.0;" x1="186" x2="535.5" y1="228.9609" y2="228.9609"/><text fill="#000000" font-family="sans-serif" font-size="13" lengthAdjust="spacing" textLength="96" x="198" y="223.895">[nodes, edges]</text><line style="stroke:#181818;stroke-width:1.0;" x1="181" x2="228" y1="253.0938" y2="253.0938"/><line style="stroke:#181818;stroke-width:1.0;" x1="228" x2="228" y1="253.0938" y2="266.0938"/><line style="stroke:#181818;stroke-width:1.0;" x1="187" x2="228" y1="266.0938" y2="266.0938"/><polygon fill="#181818" points="197,262.0938,187,266.0938,197,270.0938,193,266.0938" style="stroke:#181818;stroke-width:1.0;"/><text fill="#000000" font-family="sans-serif" font-size="13" lengthAdjust="spacing" textLength="103" x="193" y="248.0278">setup attributes</text><line style="stroke:#181818;stroke-width:1.0;" x1="186" x2="228" y1="300.2266" y2="300.2266"/><line style="stroke:#181818;stroke-width:1.0;" x1="228" x2="228" y1="300.2266" y2="313.2266"/><line style="stroke:#181818;stroke-width:1.0;" x1="187" x2="228" y1="313.2266" y2="313.2266"/><polygon fill="#181818" points="197,309.2266,187,313.2266,197,317.2266,193,313.2266" style="stroke:#181818;stroke-width:1.0;"/><text fill="#000000" font-family="sans-serif" font-size="13" lengthAdjust="spacing" textLength="158" x="193" y="295.1606">extract node types, tags</text><line style="stroke:#181818;stroke-width:1.0;" x1="186" x2="228" y1="342.3594" y2="342.3594"/><line style="stroke:#181818;stroke-width:1.0;" x1="228" x2="228" y1="342.3594" y2="355.3594"/><line style="stroke:#181818;stroke-width:1.0;" x1="187" x2="228" y1="355.3594" y2="355.3594"/><polygon fill="#181818" points="197,351.3594,187,355.3594,197,359.3594,193,355.3594" style="stroke:#181818;stroke-width:1.0;"/><text fill="#000000" font-family="sans-serif" font-size="13" lengthAdjust="spacing" textLength="182" x="193" y="337.2935">sorted node list, parents list</text><polygon fill="#181818" points="677,380.4922,687,384.4922,677,388.4922,681,384.4922" style="stroke:#181818;stroke-width:1.0;"/><line style="stroke:#181818;stroke-width:1.0;" x1="186" x2="683" y1="384.4922" y2="384.4922"/><text fill="#000000" font-family="sans-serif" font-size="13" lengthAdjust="spacing" textLength="106" x="193" y="379.4263">[nodes, parents]</text><polygon fill="#181818" points="197,409.625,187,413.625,197,417.625,193,413.625" style="stroke:#181818;stroke-width:1.0;"/><line style="stroke:#181818;stroke-width:1.0;" x1="191" x2="688" y1="413.625" y2="413.625"/><text fill="#000000" font-family="sans-serif" font-size="13" lengthAdjust="spacing" textLength="113" x="203" y="408.5591">adjacency matrix</text><polygon fill="#181818" points="820,438.7578,830,442.7578,820,446.7578,824,442.7578" style="stroke:#181818;stroke-width:1.0;"/><line style="stroke:#181818;stroke-width:1.0;" x1="186" x2="826" y1="442.7578" y2="442.7578"/><text fill="#000000" font-family="sans-serif" font-size="13" lengthAdjust="spacing" textLength="113" x="193" y="437.6919">adjacency matrix</text><polygon fill="#181818" points="197,467.8906,187,471.8906,197,475.8906,193,471.8906" style="stroke:#181818;stroke-width:1.0;"/><line style="stroke:#181818;stroke-width:1.0;" x1="191" x2="831" y1="471.8906" y2="471.8906"/><text fill="#000000" font-family="sans-serif" font-size="13" lengthAdjust="spacing" textLength="206" x="203" y="466.8247">topological sorting of the nodes</text><!--SRC=[RP7FJiCm3CRlUGfhkspIE72Qs049n1iWJbDLcSJh0YM94XTjRu-JjiisSVJddp__Gyq-maUY2Cl7xPFU6XKmijKse6DuewIZ3Moz0qmbXELB2BtLcCKRU65iHubRFt1l7QtMYrmpYdTWjMqb8TrdM1AJSblH4RTeljeVv6XF4ot2BSK- -DvtCbpV9XzvuhAiL5douRaiiODfI5WPgnda1W7vk5Qgh2ZKEFOE4ZapmseKgqb9PeDQLXVOmNvkKdfimBe3nPQCc036hb5NT3NTEo_w1WhNN9pdZZm4G9OhV0vCIQ5c-ujCqs_Uly-l_K1tLNJYA21aP-1poFQCNRetbvEH6QdU9jx8KI8vJYMwm7BsEkL4D4hKwYG1QdBw3EF3BhNv5V-airohhzvOPhAk0ty0FbAPBIcb_W00]--></g></svg>