<?xml version="1.0" encoding="us-ascii" standalone="no"?><svg xmlns="http://www.w3.org/2000/svg" xmlns:xlink="http://www.w3.org/1999/xlink" contentStyleType="text/css" height="912px" preserveAspectRatio="none" style="width:1028px;height:912px;background:#FFFFFF;" version="1.1" viewBox="0 0 1028 912" width="1028px" zoomAndPan="magnify"><defs/><g><rect fill="none" height="223.208" style="stroke:#000000;stroke-width:1.5;" width="716.5" x="268.5" y="354.1089"/><rect fill="none" height="133.755" style="stroke:#000000;stroke-width:1.5;" width="696.5" x="278.5" y="436.5619"/><rect fill="none" height="223.208" style="stroke:#000000;stroke-width:1.5;" width="716.5" x="268.5" y="591.3169"/><rect fill="none" height="133.755" style="stroke:#000000;stroke-width:1.5;" width="696.5" x="278.5" y="673.7699"/><line style="stroke:#181818;stroke-width:0.5;stroke-dasharray:5.0,5.0;" x1="24" x2="24" y1="81.2969" y2="831.5249"/><line style="stroke:#181818;stroke-width:0.5;stroke-dasharray:5.0,5.0;" x1="335.5" x2="335.5" y1="81.2969" y2="831.5249"/><line style="stroke:#181818;stroke-width:0.5;stroke-dasharray:5.0,5.0;" x1="536" x2="536" y1="81.2969" y2="831.5249"/><line style="stroke:#181818;stroke-width:0.5;stroke-dasharray:5.0,5.0;" x1="679" x2="679" y1="81.2969" y2="831.5249"/><line style="stroke:#181818;stroke-width:0.5;stroke-dasharray:5.0,5.0;" x1="870" x2="870" y1="81.2969" y2="831.5249"/><text fill="#000000" font-family="sans-serif" font-size="14" lengthAdjust="spacing" textLength="32" x="5" y="77.9951">User</text><ellipse cx="24" cy="13.5" fill="#179C7D" rx="8" ry="8" style="stroke:#181818;stroke-width:0.5;"/><path d="M24,21.5 L24,48.5 M11,29.5 L37,29.5 M24,48.5 L11,63.5 M24,48.5 L37,63.5 " fill="none" style="stroke:#181818;stroke-width:0.5;"/><text fill="#000000" font-family="sans-serif" font-size="14" lengthAdjust="spacing" textLength="32" x="5" y="843.52">User</text><ellipse cx="24" cy="855.3218" fill="#179C7D" rx="8" ry="8" style="stroke:#181818;stroke-width:0.5;"/><path d="M24,863.3218 L24,890.3218 M11,871.3218 L37,871.3218 M24,890.3218 L11,905.3218 M24,890.3218 L37,905.3218 " fill="none" style="stroke:#181818;stroke-width:0.5;"/><rect fill="#C2F0FF" height="30.2969" rx="2.5" ry="2.5" style="stroke:#181818;stroke-width:0.5;" width="95" x="288.5" y="50"/><text fill="#000000" font-family="sans-serif" font-size="14" lengthAdjust="spacing" textLength="81" x="295.5" y="69.9951">Description</text><rect fill="#C2F0FF" height="30.2969" rx="2.5" ry="2.5" style="stroke:#181818;stroke-width:0.5;" width="95" x="288.5" y="830.5249"/><text fill="#000000" font-family="sans-serif" font-size="14" lengthAdjust="spacing" textLength="81" x="295.5" y="850.52">Description</text><rect fill="#E2E2F0" height="30.2969" rx="2.5" ry="2.5" style="stroke:#181818;stroke-width:0.5;" width="94" x="489" y="50"/><text fill="#000000" font-family="sans-serif" font-size="14" lengthAdjust="spacing" textLength="80" x="496" y="69.9951">is_eligible()</text><rect fill="#E2E2F0" height="30.2969" rx="2.5" ry="2.5" style="stroke:#181818;stroke-width:0.5;" width="94" x="489" y="830.5249"/><text fill="#000000" font-family="sans-serif" font-size="14" lengthAdjust="spacing" textLength="80" x="496" y="850.52">is_eligible()</text><rect fill="#E2E2F0" height="30.2969" rx="2.5" ry="2.5" style="stroke:#181818;stroke-width:0.5;" width="172" x="593" y="50"/><text fill="#000000" font-family="sans-serif" font-size="14" lengthAdjust="spacing" textLength="158" x="600" y="69.9951">randomize_functions()</text><rect fill="#E2E2F0" height="30.2969" rx="2.5" ry="2.5" style="stroke:#181818;stroke-width:0.5;" width="172" x="593" y="830.5249"/><text fill="#000000" font-family="sans-serif" font-size="14" lengthAdjust="spacing" textLength="158" x="600" y="850.52">randomize_functions()</text><rect fill="#E2E2F0" height="30.2969" rx="2.5" ry="2.5" style="stroke:#181818;stroke-width:0.5;" width="190" x="775" y="50"/><text fill="#000000" font-family="sans-serif" font-size="14" lengthAdjust="spacing" textLength="176" x="782" y="69.9951">randomize_parameters()</text><rect fill="#E2E2F0" height="30.2969" rx="2.5" ry="2.5" style="stroke:#181818;stroke-width:0.5;" width="190" x="775" y="830.5249"/><text fill="#000000" font-family="sans-serif" font-size="14" lengthAdjust="spacing" textLength="176" x="782" y="850.52">randomize_parameters()</text><path d="M462,96.2969 L462,151.2969 L609,151.2969 L609,106.2969 L599,96.2969 L462,96.2969 " fill="#FEFFDD" style="stroke:#181818;stroke-width:0.5;"/><path d="M599,96.2969 L599,106.2969 L609,106.2969 L599,96.2969 " fill="#FEFFDD" style="stroke:#181818;stroke-width:0.5;"/><text fill="#000000" font-family="sans-serif" font-size="13" lengthAdjust="spacing" textLength="98" x="468" y="113.3783">checks if a line</text><text fill="#000000" font-family="sans-serif" font-size="13" lengthAdjust="spacing" textLength="124" x="468" y="128.5293">must be addressed</text><text fill="#000000" font-family="sans-serif" font-size="13" lengthAdjust="spacing" textLength="126" x="468" y="143.6803">by the randomizers</text><path d="M563,161.7499 L563,231.7499 L794,231.7499 L794,171.7499 L784,161.7499 L563,161.7499 " fill="#FEFFDD" style="stroke:#181818;stroke-width:0.5;"/><path d="M784,161.7499 L784,171.7499 L794,171.7499 L784,161.7499 " fill="#FEFFDD" style="stroke:#181818;stroke-width:0.5;"/><text fill="#000000" font-family="sans-serif" font-size="13" lengthAdjust="spacing" textLength="210" x="569" y="178.8313">alias for the following functions:</text><text fill="#000000" font-family="sans-serif" font-size="13" lengthAdjust="spacing" textLength="4" x="569" y="193.9823">&#160;</text><text fill="#000000" font-family="sans-serif" font-size="13" lengthAdjust="spacing" textLength="178" x="569" y="209.1333">randomize_edge_function()</text><text fill="#000000" font-family="sans-serif" font-size="13" lengthAdjust="spacing" textLength="199" x="569" y="224.2843">randomize_node_distribution()</text><path d="M719,242.3539 L719,312.3539 L1021,312.3539 L1021,252.3539 L1011,242.3539 L719,242.3539 " fill="#FEFFDD" style="stroke:#181818;stroke-width:0.5;"/><path d="M1011,242.3539 L1011,252.3539 L1021,252.3539 L1011,242.3539 " fill="#FEFFDD" style="stroke:#181818;stroke-width:0.5;"/><text fill="#000000" font-family="sans-serif" font-size="13" lengthAdjust="spacing" textLength="210" x="725" y="259.4353">alias for the following functions:</text><text fill="#000000" font-family="sans-serif" font-size="13" lengthAdjust="spacing" textLength="4" x="725" y="274.5863">&#160;</text><text fill="#000000" font-family="sans-serif" font-size="13" lengthAdjust="spacing" textLength="260" x="725" y="289.7373">randomize_edge_function_parameters()</text><text fill="#000000" font-family="sans-serif" font-size="13" lengthAdjust="spacing" textLength="281" x="725" y="304.8883">randomize_node_distribution_parameters()</text><polygon fill="#181818" points="324,335.1089,334,339.1089,324,343.1089,328,339.1089" style="stroke:#181818;stroke-width:1.0;"/><line style="stroke:#181818;stroke-width:1.0;" x1="24" x2="330" y1="339.1089" y2="339.1089"/><text fill="#000000" font-family="sans-serif" font-size="13" lengthAdjust="spacing" textLength="288" x="31" y="334.0393">call .randomize_parameters(guideline, tags)</text><path d="M268.5,354.1089 L344.5,354.1089 L344.5,361.2599 L334.5,371.2599 L268.5,371.2599 L268.5,354.1089 " fill="#EEEEEE" style="stroke:#000000;stroke-width:1.5;"/><rect fill="none" height="223.208" style="stroke:#000000;stroke-width:1.5;" width="716.5" x="268.5" y="354.1089"/><text fill="#000000" font-family="sans-serif" font-size="13" font-weight="bold" lengthAdjust="spacing" textLength="31" x="283.5" y="367.1903">loop</text><text fill="#000000" font-family="sans-serif" font-size="11" font-weight="bold" lengthAdjust="spacing" textLength="47" x="359.5" y="366.3338">[edges]</text><polygon fill="#181818" points="524,388.4109,534,392.4109,524,396.4109,528,392.4109" style="stroke:#181818;stroke-width:1.0;"/><line style="stroke:#181818;stroke-width:1.0;" x1="336" x2="530" y1="392.4109" y2="392.4109"/><text fill="#000000" font-family="sans-serif" font-size="13" lengthAdjust="spacing" textLength="100" x="343" y="387.3413">edge, edge_tag</text><polygon fill="#181818" points="347,417.5619,337,421.5619,347,425.5619,343,421.5619" style="stroke:#181818;stroke-width:1.0;"/><line style="stroke:#181818;stroke-width:1.0;" x1="341" x2="535" y1="421.5619" y2="421.5619"/><text fill="#000000" font-family="sans-serif" font-size="13" lengthAdjust="spacing" textLength="70" x="353" y="416.4923">is eligible?</text><path d="M278.5,436.5619 L342.5,436.5619 L342.5,443.7129 L332.5,453.7129 L278.5,453.7129 L278.5,436.5619 " fill="#EEEEEE" style="stroke:#000000;stroke-width:1.5;"/><rect fill="none" height="133.755" style="stroke:#000000;stroke-width:1.5;" width="696.5" x="278.5" y="436.5619"/><text fill="#000000" font-family="sans-serif" font-size="13" font-weight="bold" lengthAdjust="spacing" textLength="19" x="293.5" y="449.6433">alt</text><text fill="#000000" font-family="sans-serif" font-size="11" font-weight="bold" lengthAdjust="spacing" textLength="56" x="357.5" y="448.7868">[eligible]</text><polygon fill="#181818" points="667,470.8639,677,474.8639,667,478.8639,671,474.8639" style="stroke:#181818;stroke-width:1.0;"/><line style="stroke:#181818;stroke-width:1.0;" x1="336" x2="673" y1="474.8639" y2="474.8639"/><text fill="#000000" font-family="sans-serif" font-size="13" lengthAdjust="spacing" textLength="100" x="343" y="469.7943">edge, guideline</text><polygon fill="#181818" points="347,500.0149,337,504.0149,347,508.0149,343,504.0149" style="stroke:#181818;stroke-width:1.0;"/><line style="stroke:#181818;stroke-width:1.0;stroke-dasharray:2.0,2.0;" x1="341" x2="678" y1="504.0149" y2="504.0149"/><text fill="#000000" font-family="sans-serif" font-size="13" lengthAdjust="spacing" textLength="187" x="353" y="498.9453">edge function filled (inplace)</text><polygon fill="#181818" points="858,529.1659,868,533.1659,858,537.1659,862,533.1659" style="stroke:#181818;stroke-width:1.0;"/><line style="stroke:#181818;stroke-width:1.0;" x1="336" x2="864" y1="533.1659" y2="533.1659"/><text fill="#000000" font-family="sans-serif" font-size="13" lengthAdjust="spacing" textLength="100" x="343" y="528.0963">edge, guideline</text><polygon fill="#181818" points="347,558.3169,337,562.3169,347,566.3169,343,562.3169" style="stroke:#181818;stroke-width:1.0;"/><line style="stroke:#181818;stroke-width:1.0;stroke-dasharray:2.0,2.0;" x1="341" x2="869" y1="562.3169" y2="562.3169"/><text fill="#000000" font-family="sans-serif" font-size="13" lengthAdjust="spacing" textLength="266" x="353" y="557.2473">edge function parameters filled (inplace)</text><path d="M268.5,591.3169 L344.5,591.3169 L344.5,598.4679 L334.5,608.4679 L268.5,608.4679 L268.5,591.3169 " fill="#EEEEEE" style="stroke:#000000;stroke-width:1.5;"/><rect fill="none" height="223.208" style="stroke:#000000;stroke-width:1.5;" width="716.5" x="268.5" y="591.3169"/><text fill="#000000" font-family="sans-serif" font-size="13" font-weight="bold" lengthAdjust="spacing" textLength="31" x="283.5" y="604.3983">loop</text><text fill="#000000" font-family="sans-serif" font-size="11" font-weight="bold" lengthAdjust="spacing" textLength="48" x="359.5" y="603.5418">[nodes]</text><polygon fill="#181818" points="524,625.6189,534,629.6189,524,633.6189,528,629.6189" style="stroke:#181818;stroke-width:1.0;"/><line style="stroke:#181818;stroke-width:1.0;" x1="336" x2="530" y1="629.6189" y2="629.6189"/><text fill="#000000" font-family="sans-serif" font-size="13" lengthAdjust="spacing" textLength="176" x="343" y="624.5493">node, node_type, node_tag</text><polygon fill="#181818" points="347,654.7699,337,658.7699,347,662.7699,343,658.7699" style="stroke:#181818;stroke-width:1.0;"/><line style="stroke:#181818;stroke-width:1.0;" x1="341" x2="535" y1="658.7699" y2="658.7699"/><text fill="#000000" font-family="sans-serif" font-size="13" lengthAdjust="spacing" textLength="70" x="353" y="653.7003">is eligible?</text><path d="M278.5,673.7699 L342.5,673.7699 L342.5,680.9209 L332.5,690.9209 L278.5,690.9209 L278.5,673.7699 " fill="#EEEEEE" style="stroke:#000000;stroke-width:1.5;"/><rect fill="none" height="133.755" style="stroke:#000000;stroke-width:1.5;" width="696.5" x="278.5" y="673.7699"/><text fill="#000000" font-family="sans-serif" font-size="13" font-weight="bold" lengthAdjust="spacing" textLength="19" x="293.5" y="686.8513">alt</text><text fill="#000000" font-family="sans-serif" font-size="11" font-weight="bold" lengthAdjust="spacing" textLength="56" x="357.5" y="685.9949">[eligible]</text><polygon fill="#181818" points="667,708.0719,677,712.0719,667,716.0719,671,712.0719" style="stroke:#181818;stroke-width:1.0;"/><line style="stroke:#181818;stroke-width:1.0;" x1="336" x2="673" y1="712.0719" y2="712.0719"/><text fill="#000000" font-family="sans-serif" font-size="13" lengthAdjust="spacing" textLength="100" x="343" y="707.0023">node, guideline</text><polygon fill="#181818" points="347,737.2229,337,741.2229,347,745.2229,343,741.2229" style="stroke:#181818;stroke-width:1.0;"/><line style="stroke:#181818;stroke-width:1.0;stroke-dasharray:2.0,2.0;" x1="341" x2="678" y1="741.2229" y2="741.2229"/><text fill="#000000" font-family="sans-serif" font-size="13" lengthAdjust="spacing" textLength="208" x="353" y="736.1533">node distribution filled (inplace)</text><polygon fill="#181818" points="858,766.3739,868,770.3739,858,774.3739,862,770.3739" style="stroke:#181818;stroke-width:1.0;"/><line style="stroke:#181818;stroke-width:1.0;" x1="336" x2="864" y1="770.3739" y2="770.3739"/><text fill="#000000" font-family="sans-serif" font-size="13" lengthAdjust="spacing" textLength="100" x="343" y="765.3043">node, guideline</text><polygon fill="#181818" points="347,795.5249,337,799.5249,347,803.5249,343,799.5249" style="stroke:#181818;stroke-width:1.0;"/><line style="stroke:#181818;stroke-width:1.0;stroke-dasharray:2.0,2.0;" x1="341" x2="869" y1="799.5249" y2="799.5249"/><text fill="#000000" font-family="sans-serif" font-size="13" lengthAdjust="spacing" textLength="250" x="353" y="794.4553">node distribution parameters (inplace)</text><!--SRC=[hLAnJiCm4Dtp5QTsQQGMYQcY0mW9c2CaviYnB-64QqUs0ofVJ-mcJWfDse4ELdFt_DxpksFSQGDl5WqiRxTtV2kIcXb7d6gc73oXvOPgHre1i-4JbezrBOapNpm1ByZcAAcYGk8gNVWBpztdASum9VIUlZ4l6yKzZ-tmhqgyJ67RCjkZGpC2PqcYj4FGd-q3eXYqF_wE_CC2bS10aZeMzurrK20m8GnQYo9KYmEuTuIeP6o2Ie0d7jC7RnxF9BNgPPkRlrPgAVKNgGhYOtO15ex1FefgUEyg_TLLMc0ko3f3HTCX9anarvgOCt2IvYKlf-31LbYRpNrOYnrm9YNSd9rNrP10FuKrE5RPD4carZLuHpQ8XyLgcVeHxa9l7SwylH90VNEG90lzmZrqgRXO2OKnkHzWJnmTHPJlmYPIUrWC4qgI4WMiIDMISKoJS-JPB7asIJu4zLV7Nsu3zw5teVdfJ8NcU-jmvkvGnx__cjzHus9-7WRZ9Rewmnc1R5PWbEFv07y0]--></g></svg>