<?xml version="1.0" encoding="us-ascii" standalone="no"?><svg xmlns="http://www.w3.org/2000/svg" xmlns:xlink="http://www.w3.org/1999/xlink" contentStyleType="text/css" height="837px" preserveAspectRatio="none" style="width:700px;height:837px;background:#FFFFFF;" version="1.1" viewBox="0 0 700 837" width="700px" zoomAndPan="magnify"><defs/><g><rect fill="#E6E6FA" height="47.9375" style="stroke:#181818;stroke-width:0.5;" width="173" x="161.375" y="11"/><line style="stroke:#181818;stroke-width:0.5;" x1="166.375" x2="166.375" y1="11" y2="58.9375"/><line style="stroke:#181818;stroke-width:0.5;" x1="329.375" x2="329.375" y1="11" y2="58.9375"/><text fill="#000000" font-family="sans-serif" font-size="12" lengthAdjust="spacing" textLength="55" x="171.375" y="32.1387">edge line</text><text fill="#000000" font-family="sans-serif" font-size="12" lengthAdjust="spacing" textLength="153" x="171.375" y="46.1074">from description_parser()</text><ellipse cx="247.875" cy="88.9375" fill="#222222" rx="10" ry="10" style="stroke:#222222;stroke-width:1.0;"/><rect fill="#F1F1F1" height="33.9688" rx="12.5" ry="12.5" style="stroke:#181818;stroke-width:0.5;" width="77" x="209.375" y="118.9375"/><text fill="#000000" font-family="sans-serif" font-size="12" lengthAdjust="spacing" textLength="57" x="219.375" y="140.0762">tag parse</text><polygon fill="#F1F1F1" points="205.375,172.9063,290.375,172.9063,302.375,184.9063,290.375,196.9063,205.375,196.9063,193.375,184.9063,205.375,172.9063" style="stroke:#181818;stroke-width:0.5;"/><text fill="#000000" font-family="sans-serif" font-size="11" lengthAdjust="spacing" textLength="85" x="205.375" y="188.7144">line='random'?</text><text fill="#000000" font-family="sans-serif" font-size="11" lengthAdjust="spacing" textLength="20" x="173.375" y="182.312">yes</text><text fill="#000000" font-family="sans-serif" font-size="11" lengthAdjust="spacing" textLength="14" x="302.375" y="182.312">no</text><rect fill="#F1F1F1" height="33.9688" rx="12.5" ry="12.5" style="stroke:#181818;stroke-width:0.5;" width="114" x="11" y="206.9063"/><text fill="#000000" font-family="sans-serif" font-size="12" lengthAdjust="spacing" textLength="94" x="21" y="228.0449">edge is random</text><rect fill="#F1F1F1" height="33.9688" rx="12.5" ry="12.5" style="stroke:#181818;stroke-width:0.5;" width="151" x="382.25" y="206.9063"/><text fill="#000000" font-family="sans-serif" font-size="12" lengthAdjust="spacing" textLength="131" x="392.25" y="228.0449">detect function name</text><polygon fill="#F1F1F1" points="405.25,260.875,510.25,260.875,522.25,272.875,510.25,284.875,405.25,284.875,393.25,272.875,405.25,260.875" style="stroke:#181818;stroke-width:0.5;"/><text fill="#000000" font-family="sans-serif" font-size="11" lengthAdjust="spacing" textLength="105" x="405.25" y="276.6831">valid name found?</text><text fill="#000000" font-family="sans-serif" font-size="11" lengthAdjust="spacing" textLength="20" x="373.25" y="270.2808">yes</text><text fill="#000000" font-family="sans-serif" font-size="11" lengthAdjust="spacing" textLength="14" x="522.25" y="270.2808">no</text><rect fill="#F1F1F1" height="33.9688" rx="12.5" ry="12.5" style="stroke:#181818;stroke-width:0.5;" width="112" x="245.5" y="294.875"/><text fill="#000000" font-family="sans-serif" font-size="12" lengthAdjust="spacing" textLength="92" x="255.5" y="316.0137">extract params</text><polygon fill="#F1F1F1" points="282,348.8438,321,348.8438,333,360.8438,321,372.8438,282,372.8438,270,360.8438,282,348.8438" style="stroke:#181818;stroke-width:0.5;"/><text fill="#000000" font-family="sans-serif" font-size="11" lengthAdjust="spacing" textLength="39" x="282" y="364.6519">all '?' ?</text><text fill="#000000" font-family="sans-serif" font-size="11" lengthAdjust="spacing" textLength="20" x="250" y="358.2495">yes</text><text fill="#000000" font-family="sans-serif" font-size="11" lengthAdjust="spacing" textLength="14" x="333" y="358.2495">no</text><rect fill="#F1F1F1" height="33.9688" rx="12.5" ry="12.5" style="stroke:#181818;stroke-width:0.5;" width="136" x="135" y="382.8438"/><text fill="#000000" font-family="sans-serif" font-size="12" lengthAdjust="spacing" textLength="116" x="145" y="403.9824">set all params to '?'</text><rect fill="#F1F1F1" height="33.9688" rx="12.5" ry="12.5" style="stroke:#181818;stroke-width:0.5;" width="139" x="330.5" y="430.8438"/><text fill="#000000" font-family="sans-serif" font-size="12" lengthAdjust="spacing" textLength="119" x="340.5" y="451.9824">read param &amp; value</text><rect fill="#F1F1F1" height="33.9688" rx="12.5" ry="12.5" style="stroke:#181818;stroke-width:0.5;" width="150" x="325" y="534.8242"/><text fill="#000000" font-family="sans-serif" font-size="12" lengthAdjust="spacing" textLength="130" x="335" y="555.9629">raise DescriptionError</text><ellipse cx="400" cy="598.793" fill="none" rx="10" ry="10" style="stroke:#222222;stroke-width:1.5;"/><line style="stroke:#222222;stroke-width:2.5;" x1="393.8128" x2="406.1872" y1="592.6058" y2="604.9802"/><line style="stroke:#222222;stroke-width:2.5;" x1="406.1872" x2="393.8128" y1="592.6058" y2="604.9802"/><polygon fill="#F1F1F1" points="352,484.8125,448,484.8125,460,497.6172,448,510.4219,352,510.4219,340,497.6172,352,484.8125" style="stroke:#181818;stroke-width:0.5;"/><text fill="#000000" font-family="sans-serif" font-size="11" lengthAdjust="spacing" textLength="20" x="404" y="520.6323">yes</text><text fill="#000000" font-family="sans-serif" font-size="11" lengthAdjust="spacing" textLength="92" x="352" y="495.0229">error reading or</text><text fill="#000000" font-family="sans-serif" font-size="11" lengthAdjust="spacing" textLength="79" x="356" y="507.8276">name invalid?</text><text fill="#000000" font-family="sans-serif" font-size="11" lengthAdjust="spacing" textLength="14" x="460" y="495.0229">no</text><polygon fill="#F1F1F1" points="360,382.8438,440,382.8438,452,394.8438,440,406.8438,360,406.8438,348,394.8438,360,382.8438" style="stroke:#181818;stroke-width:0.5;"/><text fill="#000000" font-family="sans-serif" font-size="11" lengthAdjust="spacing" textLength="80" x="360" y="398.6519">for all params</text><polygon fill="#F1F1F1" points="301.5,658.793,313.5,670.793,301.5,682.793,289.5,670.793,301.5,658.793" style="stroke:#181818;stroke-width:0.5;"/><rect fill="#F1F1F1" height="33.9688" rx="12.5" ry="12.5" style="stroke:#181818;stroke-width:0.5;" width="150" x="539" y="294.875"/><text fill="#000000" font-family="sans-serif" font-size="12" lengthAdjust="spacing" textLength="130" x="549" y="316.0137">raise DescriptionError</text><ellipse cx="614" cy="358.8438" fill="none" rx="10" ry="10" style="stroke:#222222;stroke-width:1.5;"/><line style="stroke:#222222;stroke-width:2.5;" x1="607.8128" x2="620.1872" y1="352.6566" y2="365.0309"/><line style="stroke:#222222;stroke-width:2.5;" x1="620.1872" x2="607.8128" y1="352.6566" y2="365.0309"/><polygon fill="#F1F1F1" points="247.875,692.793,259.875,704.793,247.875,716.793,235.875,704.793,247.875,692.793" style="stroke:#181818;stroke-width:0.5;"/><rect fill="#E6E6FA" height="47.9375" rx="12.5" ry="12.5" style="stroke:#181818;stroke-width:0.5;" width="161" x="167.375" y="736.793"/><text fill="#000000" font-family="sans-serif" font-size="12" lengthAdjust="spacing" textLength="83" x="177.375" y="757.9316">edge info dict</text><text fill="#000000" font-family="sans-serif" font-size="12" lengthAdjust="spacing" textLength="137" x="181.375" y="771.9004">to description_parser()</text><ellipse cx="247.875" cy="815.7305" fill="none" rx="11" ry="11" style="stroke:#222222;stroke-width:1.0;"/><ellipse cx="247.875" cy="815.7305" fill="#222222" rx="6" ry="6" style="stroke:#111111;stroke-width:1.0;"/><line style="stroke:#181818;stroke-width:1.0;" x1="247.875" x2="247.875" y1="58.9375" y2="78.9375"/><polygon fill="#181818" points="243.875,68.9375,247.875,78.9375,251.875,68.9375,247.875,72.9375" style="stroke:#181818;stroke-width:1.0;"/><line style="stroke:#181818;stroke-width:1.0;" x1="247.875" x2="247.875" y1="98.9375" y2="118.9375"/><polygon fill="#181818" points="243.875,108.9375,247.875,118.9375,251.875,108.9375,247.875,112.9375" style="stroke:#181818;stroke-width:1.0;"/><line style="stroke:#181818;stroke-width:1.0;" x1="400" x2="400" y1="568.793" y2="588.793"/><polygon fill="#181818" points="396,578.793,400,588.793,404,578.793,400,582.793" style="stroke:#181818;stroke-width:1.0;"/><line style="stroke:#181818;stroke-width:1.0;" x1="400" x2="400" y1="510.4219" y2="534.8242"/><polygon fill="#181818" points="396,524.8242,400,534.8242,404,524.8242,400,528.8242" style="stroke:#181818;stroke-width:1.0;"/><line style="stroke:#181818;stroke-width:1.0;" x1="460" x2="509" y1="497.6172" y2="497.6172"/><line style="stroke:#181818;stroke-width:1.0;" x1="509" x2="509" y1="394.8438" y2="497.6172"/><line style="stroke:#181818;stroke-width:1.0;" x1="509" x2="452" y1="394.8438" y2="394.8438"/><polygon fill="#181818" points="462,390.8438,452,394.8438,462,398.8438,458,394.8438" style="stroke:#181818;stroke-width:1.0;"/><line style="stroke:#181818;stroke-width:1.0;" x1="400" x2="400" y1="464.8125" y2="484.8125"/><polygon fill="#181818" points="396,474.8125,400,484.8125,404,474.8125,400,478.8125" style="stroke:#181818;stroke-width:1.0;"/><line style="stroke:#181818;stroke-width:1.0;" x1="400" x2="400" y1="406.8438" y2="430.8438"/><polygon fill="#181818" points="396,420.8438,400,430.8438,404,420.8438,400,424.8438" style="stroke:#181818;stroke-width:1.0;"/><line style="stroke:#181818;stroke-width:1.0;" x1="348" x2="303" y1="394.8438" y2="394.8438"/><polygon fill="#181818" points="299,519.0195,303,529.0195,307,519.0195,303,523.0195" style="stroke:#181818;stroke-width:1.0;"/><line style="stroke:#181818;stroke-width:1.0;" x1="303" x2="303" y1="394.8438" y2="652.793"/><line style="stroke:#181818;stroke-width:1.0;" x1="303" x2="400" y1="652.793" y2="652.793"/><line style="stroke:#181818;stroke-width:1.0;" x1="400" x2="400" y1="652.793" y2="670.793"/><line style="stroke:#181818;stroke-width:1.0;" x1="400" x2="313.5" y1="670.793" y2="670.793"/><polygon fill="#181818" points="323.5,666.793,313.5,670.793,323.5,674.793,319.5,670.793" style="stroke:#181818;stroke-width:1.0;"/><line style="stroke:#181818;stroke-width:1.0;" x1="270" x2="203" y1="360.8438" y2="360.8438"/><line style="stroke:#181818;stroke-width:1.0;" x1="203" x2="203" y1="360.8438" y2="382.8438"/><polygon fill="#181818" points="199,372.8438,203,382.8438,207,372.8438,203,376.8438" style="stroke:#181818;stroke-width:1.0;"/><line style="stroke:#181818;stroke-width:1.0;" x1="333" x2="400" y1="360.8438" y2="360.8438"/><line style="stroke:#181818;stroke-width:1.0;" x1="400" x2="400" y1="360.8438" y2="382.8438"/><polygon fill="#181818" points="396,372.8438,400,382.8438,404,372.8438,400,376.8438" style="stroke:#181818;stroke-width:1.0;"/><line style="stroke:#181818;stroke-width:1.0;" x1="203" x2="203" y1="416.8125" y2="670.793"/><line style="stroke:#181818;stroke-width:1.0;" x1="203" x2="289.5" y1="670.793" y2="670.793"/><polygon fill="#181818" points="279.5,666.793,289.5,670.793,279.5,674.793,283.5,670.793" style="stroke:#181818;stroke-width:1.0;"/><line style="stroke:#181818;stroke-width:1.0;" x1="301.5" x2="301.5" y1="328.8438" y2="348.8438"/><polygon fill="#181818" points="297.5,338.8438,301.5,348.8438,305.5,338.8438,301.5,342.8438" style="stroke:#181818;stroke-width:1.0;"/><line style="stroke:#181818;stroke-width:1.0;" x1="614" x2="614" y1="328.8438" y2="348.8438"/><polygon fill="#181818" points="610,338.8438,614,348.8438,618,338.8438,614,342.8438" style="stroke:#181818;stroke-width:1.0;"/><line style="stroke:#181818;stroke-width:1.0;" x1="393.25" x2="301.5" y1="272.875" y2="272.875"/><line style="stroke:#181818;stroke-width:1.0;" x1="301.5" x2="301.5" y1="272.875" y2="294.875"/><polygon fill="#181818" points="297.5,284.875,301.5,294.875,305.5,284.875,301.5,288.875" style="stroke:#181818;stroke-width:1.0;"/><line style="stroke:#181818;stroke-width:1.0;" x1="522.25" x2="614" y1="272.875" y2="272.875"/><line style="stroke:#181818;stroke-width:1.0;" x1="614" x2="614" y1="272.875" y2="294.875"/><polygon fill="#181818" points="610,284.875,614,294.875,618,284.875,614,288.875" style="stroke:#181818;stroke-width:1.0;"/><line style="stroke:#181818;stroke-width:1.0;" x1="301.5" x2="301.5" y1="682.793" y2="704.793"/><line style="stroke:#181818;stroke-width:1.0;" x1="301.5" x2="259.875" y1="704.793" y2="704.793"/><polygon fill="#181818" points="269.875,700.793,259.875,704.793,269.875,708.793,265.875,704.793" style="stroke:#181818;stroke-width:1.0;"/><line style="stroke:#181818;stroke-width:1.0;" x1="457.75" x2="457.75" y1="240.875" y2="260.875"/><polygon fill="#181818" points="453.75,250.875,457.75,260.875,461.75,250.875,457.75,254.875" style="stroke:#181818;stroke-width:1.0;"/><line style="stroke:#181818;stroke-width:1.0;" x1="193.375" x2="68" y1="184.9063" y2="184.9063"/><line style="stroke:#181818;stroke-width:1.0;" x1="68" x2="68" y1="184.9063" y2="206.9063"/><polygon fill="#181818" points="64,196.9063,68,206.9063,72,196.9063,68,200.9063" style="stroke:#181818;stroke-width:1.0;"/><line style="stroke:#181818;stroke-width:1.0;" x1="302.375" x2="457.75" y1="184.9063" y2="184.9063"/><line style="stroke:#181818;stroke-width:1.0;" x1="457.75" x2="457.75" y1="184.9063" y2="206.9063"/><polygon fill="#181818" points="453.75,196.9063,457.75,206.9063,461.75,196.9063,457.75,200.9063" style="stroke:#181818;stroke-width:1.0;"/><line style="stroke:#181818;stroke-width:1.0;" x1="68" x2="68" y1="240.875" y2="704.793"/><line style="stroke:#181818;stroke-width:1.0;" x1="68" x2="235.875" y1="704.793" y2="704.793"/><polygon fill="#181818" points="225.875,700.793,235.875,704.793,225.875,708.793,229.875,704.793" style="stroke:#181818;stroke-width:1.0;"/><line style="stroke:#181818;stroke-width:1.0;" x1="247.875" x2="247.875" y1="152.9063" y2="172.9063"/><polygon fill="#181818" points="243.875,162.9063,247.875,172.9063,251.875,162.9063,247.875,166.9063" style="stroke:#181818;stroke-width:1.0;"/><line style="stroke:#181818;stroke-width:1.0;" x1="247.875" x2="247.875" y1="716.793" y2="736.793"/><polygon fill="#181818" points="243.875,726.793,247.875,736.793,251.875,726.793,247.875,730.793" style="stroke:#181818;stroke-width:1.0;"/><line style="stroke:#181818;stroke-width:1.0;" x1="247.875" x2="247.875" y1="784.7305" y2="804.7305"/><polygon fill="#181818" points="243.875,794.7305,247.875,804.7305,251.875,794.7305,247.875,798.7305" style="stroke:#181818;stroke-width:1.0;"/><!--SRC=[XLBBQiGm3BpxAmGBJV8B6yfUsbi_OQ6OMCuA73dOphQ5VdpbkDjj7gK-X23DZ4QFmuk-8XiCHpGzWYF6CzlW1p0Okq1Z8i-lemuHGzrygfXqI4eTa-vXZhQABDIPzrW5pSOFrQc1T466-WDZeq1U4QS81T4gT16XPl-TDfYmIs0dxd8zO3s8S4vbyQjsPEOOM3-nsUgN6kyfQ54HMtg8xKyYIsZde3fLi4-TwH4JP5YXG_APS5TPEhwzjmiv2LiVVd6N494Eg4t9mGD8DnEsAqZsY268JCOIzo2_vp8889udyBVtKaIJE7owR-qvwxKRe6nx5TjlRKQILQl8tB7QGhOY_pgwEIaYvQlKONcHnDQ3eIx9D6GdUrVPobNwyGi0]--></g></svg>