<?xml version="1.0" encoding="us-ascii" standalone="no"?><svg xmlns="http://www.w3.org/2000/svg" xmlns:xlink="http://www.w3.org/1999/xlink" contentStyleType="text/css" height="1206px" preserveAspectRatio="none" style="width:1098px;height:1206px;background:#FFFFFF;" version="1.1" viewBox="0 0 1098 1206" width="1098px" zoomAndPan="magnify"><defs/><g><rect fill="none" height="20.9531" style="stroke:none;stroke-width:1.0;" width="1065" x="15" y="12.7451"/><ellipse cx="82" cy="48.6982" fill="#222222" rx="10" ry="10" style="stroke:#222222;stroke-width:1.0;"/><ellipse cx="82" cy="1183.5459" fill="none" rx="11" ry="11" style="stroke:#222222;stroke-width:1.0;"/><ellipse cx="82" cy="1183.5459" fill="#222222" rx="6" ry="6" style="stroke:#111111;stroke-width:1.0;"/><line style="stroke:#000000;stroke-width:1.5;" x1="15" x2="15" y1="12.7451" y2="1194.5459"/><rect fill="#D5FFE4" height="1181.8008" style="stroke:#D5FFE4;stroke-width:1.0;" width="190" x="148" y="12.7451"/><rect fill="#F1F1F1" height="33.9688" rx="12.5" ry="12.5" style="stroke:#181818;stroke-width:0.5;" width="84" x="192" y="95.9575"/><text fill="#000000" font-family="sans-serif" font-size="12" lengthAdjust="spacing" textLength="64" x="202" y="117.0962">split terms</text><rect fill="#F1F1F1" height="33.9688" rx="12.5" ry="12.5" style="stroke:#181818;stroke-width:0.5;" width="150" x="159" y="1032.2046"/><text fill="#000000" font-family="sans-serif" font-size="12" lengthAdjust="spacing" textLength="130" x="169" y="1053.3433">raise DescriptionError</text><ellipse cx="234" cy="1103.2866" fill="none" rx="10" ry="10" style="stroke:#222222;stroke-width:1.5;"/><line style="stroke:#222222;stroke-width:2.5;" x1="227.8128" x2="240.1872" y1="1097.0994" y2="1109.4738"/><line style="stroke:#222222;stroke-width:2.5;" x1="240.1872" x2="227.8128" y1="1097.0994" y2="1109.4738"/><polygon fill="#F1F1F1" points="175,982.1929,293,982.1929,305,994.9976,293,1007.8022,175,1007.8022,163,994.9976,175,982.1929" style="stroke:#181818;stroke-width:0.5;"/><text fill="#000000" font-family="sans-serif" font-size="11" lengthAdjust="spacing" textLength="20" x="238" y="1018.0127">yes</text><text fill="#000000" font-family="sans-serif" font-size="11" lengthAdjust="spacing" textLength="118" x="175" y="992.4033">duplicate parent lists</text><text fill="#000000" font-family="sans-serif" font-size="11" lengthAdjust="spacing" textLength="82" x="195" y="1005.208">among terms?</text><text fill="#000000" font-family="sans-serif" font-size="11" lengthAdjust="spacing" textLength="14" x="305" y="992.4033">no</text><line style="stroke:#000000;stroke-width:1.5;" x1="148" x2="148" y1="12.7451" y2="1194.5459"/><rect fill="#8BE8E5" height="1181.8008" style="stroke:#8BE8E5;stroke-width:1.0;" width="740" x="338" y="12.7451"/><polygon fill="#F1F1F1" points="676.5,211.1855,747.5,211.1855,759.5,223.1855,747.5,235.1855,676.5,235.1855,664.5,223.1855,676.5,211.1855" style="stroke:#181818;stroke-width:0.5;"/><text fill="#000000" font-family="sans-serif" font-size="11" lengthAdjust="spacing" textLength="71" x="676.5" y="226.9937">'p^2' found?</text><text fill="#000000" font-family="sans-serif" font-size="11" lengthAdjust="spacing" textLength="20" x="644.5" y="220.5913">yes</text><text fill="#000000" font-family="sans-serif" font-size="11" lengthAdjust="spacing" textLength="14" x="759.5" y="220.5913">no</text><rect fill="#F1F1F1" height="33.9688" rx="12.5" ry="12.5" style="stroke:#181818;stroke-width:0.5;" width="124" x="454.75" y="245.1855"/><text fill="#000000" font-family="sans-serif" font-size="12" lengthAdjust="spacing" textLength="104" x="464.75" y="266.3242">term is quadratic</text><path d="M611.75,362.5566 L611.75,378.6895 L591.75,382.6895 L611.75,386.6895 L611.75,402.8223 A0,0 0 0 0 611.75,402.8223 L760.75,402.8223 A0,0 0 0 0 760.75,402.8223 L760.75,372.5566 L750.75,362.5566 L611.75,362.5566 A0,0 0 0 0 611.75,362.5566 " fill="#FEFFDD" style="stroke:#181818;stroke-width:0.5;"/><path d="M750.75,362.5566 L750.75,372.5566 L760.75,372.5566 L750.75,362.5566 " fill="#FEFFDD" style="stroke:#181818;stroke-width:0.5;"/><text fill="#000000" font-family="sans-serif" font-size="13" lengthAdjust="spacing" textLength="124" x="617.75" y="379.6235">quad term must be</text><text fill="#000000" font-family="sans-serif" font-size="13" lengthAdjust="spacing" textLength="88" x="621.75" y="394.7563">the only term</text><rect fill="#F1F1F1" height="33.9688" rx="12.5" ry="12.5" style="stroke:#181818;stroke-width:0.5;" width="150" x="441.75" y="365.7051"/><text fill="#000000" font-family="sans-serif" font-size="12" lengthAdjust="spacing" textLength="130" x="451.75" y="386.8438">raise DescriptionError</text><ellipse cx="516.75" cy="447.8223" fill="none" rx="10" ry="10" style="stroke:#222222;stroke-width:1.5;"/><line style="stroke:#222222;stroke-width:2.5;" x1="510.5628" x2="522.9372" y1="441.6351" y2="454.0094"/><line style="stroke:#222222;stroke-width:2.5;" x1="522.9372" x2="510.5628" y1="441.6351" y2="454.0094"/><polygon fill="#F1F1F1" points="433.75,314.1543,599.75,314.1543,611.75,326.1543,599.75,338.1543,433.75,338.1543,421.75,326.1543,433.75,314.1543" style="stroke:#181818;stroke-width:0.5;"/><text fill="#000000" font-family="sans-serif" font-size="11" lengthAdjust="spacing" textLength="20" x="520.75" y="348.3647">yes</text><text fill="#000000" font-family="sans-serif" font-size="11" lengthAdjust="spacing" textLength="166" x="433.75" y="329.9624">other parents already found?</text><text fill="#000000" font-family="sans-serif" font-size="11" lengthAdjust="spacing" textLength="14" x="611.75" y="323.5601">no</text><rect fill="#F1F1F1" height="33.9688" rx="12.5" ry="12.5" style="stroke:#181818;stroke-width:0.5;" width="142" x="836.25" y="293.5879"/><text fill="#000000" font-family="sans-serif" font-size="12" lengthAdjust="spacing" textLength="122" x="846.25" y="314.7266">add p to parents list</text><rect fill="#F1F1F1" height="33.9688" rx="12.5" ry="12.5" style="stroke:#181818;stroke-width:0.5;" width="189" x="812.75" y="362.5566"/><text fill="#000000" font-family="sans-serif" font-size="12" lengthAdjust="spacing" textLength="169" x="822.75" y="383.6953">delete p from the line string</text><polygon fill="#F1F1F1" points="862.25,245.1855,952.25,245.1855,964.25,257.1855,952.25,269.1855,862.25,269.1855,850.25,257.1855,862.25,245.1855" style="stroke:#181818;stroke-width:0.5;"/><text fill="#000000" font-family="sans-serif" font-size="11" lengthAdjust="spacing" textLength="20" x="911.25" y="279.396">yes</text><text fill="#000000" font-family="sans-serif" font-size="11" lengthAdjust="spacing" textLength="90" x="862.25" y="260.9937">'p' alone found?</text><polygon fill="#F1F1F1" points="907.25,420.9277,919.25,432.9277,907.25,444.9277,895.25,432.9277,907.25,420.9277" style="stroke:#181818;stroke-width:0.5;"/><polygon fill="#F1F1F1" points="639.5,167.1855,784.5,167.1855,796.5,179.1855,784.5,191.1855,639.5,191.1855,627.5,179.1855,639.5,167.1855" style="stroke:#181818;stroke-width:0.5;"/><text fill="#000000" font-family="sans-serif" font-size="11" lengthAdjust="spacing" textLength="145" x="639.5" y="182.9937">for all possible parents: p</text><rect fill="#F1F1F1" height="47.9375" rx="12.5" ry="12.5" style="stroke:#181818;stroke-width:0.5;" width="106" x="659" y="539.8223"/><text fill="#000000" font-family="sans-serif" font-size="12" lengthAdjust="spacing" textLength="82" x="669" y="560.9609">what remains</text><text fill="#000000" font-family="sans-serif" font-size="12" lengthAdjust="spacing" textLength="62" x="673" y="574.9297">is the coef</text><polygon fill="#F1F1F1" points="365,607.7598,459,607.7598,471,619.7598,459,631.7598,365,631.7598,353,619.7598,365,607.7598" style="stroke:#181818;stroke-width:0.5;"/><text fill="#000000" font-family="sans-serif" font-size="11" lengthAdjust="spacing" textLength="20" x="416" y="641.9702">yes</text><text fill="#000000" font-family="sans-serif" font-size="11" lengthAdjust="spacing" textLength="94" x="365" y="623.5679">remaining = '-' ?</text><rect fill="#F1F1F1" height="33.9688" rx="12.5" ry="12.5" style="stroke:#181818;stroke-width:0.5;" width="74" x="375" y="664.5645"/><text fill="#000000" font-family="sans-serif" font-size="12" lengthAdjust="spacing" textLength="54" x="385" y="685.7031">coef is -1</text><polygon fill="#F1F1F1" points="503,607.7598,593,607.7598,605,619.7598,593,631.7598,503,631.7598,491,619.7598,503,607.7598" style="stroke:#181818;stroke-width:0.5;"/><text fill="#000000" font-family="sans-serif" font-size="11" lengthAdjust="spacing" textLength="20" x="552" y="641.9702">yes</text><text fill="#000000" font-family="sans-serif" font-size="11" lengthAdjust="spacing" textLength="90" x="503" y="623.5679">remaining = '' ?</text><rect fill="#F1F1F1" height="33.9688" rx="12.5" ry="12.5" style="stroke:#181818;stroke-width:0.5;" width="80" x="508" y="664.5645"/><text fill="#000000" font-family="sans-serif" font-size="12" lengthAdjust="spacing" textLength="60" x="518" y="685.7031">coef is +1</text><polygon fill="#F1F1F1" points="637,607.7598,733,607.7598,745,619.7598,733,631.7598,637,631.7598,625,619.7598,637,607.7598" style="stroke:#181818;stroke-width:0.5;"/><text fill="#000000" font-family="sans-serif" font-size="11" lengthAdjust="spacing" textLength="20" x="689" y="641.9702">yes</text><text fill="#000000" font-family="sans-serif" font-size="11" lengthAdjust="spacing" textLength="96" x="637" y="623.5679">remaining = '?' ?</text><text fill="#000000" font-family="sans-serif" font-size="11" lengthAdjust="spacing" textLength="14" x="745" y="617.1655">no</text><rect fill="#F1F1F1" height="33.9688" rx="12.5" ry="12.5" style="stroke:#181818;stroke-width:0.5;" width="74" x="648" y="664.5645"/><text fill="#000000" font-family="sans-serif" font-size="12" lengthAdjust="spacing" textLength="54" x="658" y="685.7031">coef is '?'</text><rect fill="#F1F1F1" height="33.9688" rx="12.5" ry="12.5" style="stroke:#181818;stroke-width:0.5;" width="160" x="770" y="646.9609"/><text fill="#000000" font-family="sans-serif" font-size="12" lengthAdjust="spacing" textLength="140" x="780" y="668.0996">coef = float(remaining)</text><path d="M945,764.332 L945,780.4648 L925,784.4648 L945,788.4648 L945,804.5977 A0,0 0 0 0 945,804.5977 L1049,804.5977 A0,0 0 0 0 1049,804.5977 L1049,774.332 L1039,764.332 L945,764.332 A0,0 0 0 0 945,764.332 " fill="#FEFFDD" style="stroke:#181818;stroke-width:0.5;"/><path d="M1039,764.332 L1039,774.332 L1049,774.332 L1039,764.332 " fill="#FEFFDD" style="stroke:#181818;stroke-width:0.5;"/><text fill="#000000" font-family="sans-serif" font-size="13" lengthAdjust="spacing" textLength="79" x="951" y="781.3989">non-number</text><text fill="#000000" font-family="sans-serif" font-size="13" lengthAdjust="spacing" textLength="68" x="955" y="796.5317">characters</text><rect fill="#F1F1F1" height="33.9688" rx="12.5" ry="12.5" style="stroke:#181818;stroke-width:0.5;" width="150" x="775" y="767.4805"/><text fill="#000000" font-family="sans-serif" font-size="12" lengthAdjust="spacing" textLength="130" x="785" y="788.6191">raise DescriptionError</text><ellipse cx="850" cy="838.9648" fill="none" rx="10" ry="10" style="stroke:#222222;stroke-width:1.5;"/><line style="stroke:#222222;stroke-width:2.5;" x1="843.8128" x2="856.1872" y1="832.7777" y2="845.152"/><line style="stroke:#222222;stroke-width:2.5;" x1="856.1872" x2="843.8128" y1="832.7777" y2="845.152"/><polygon fill="#F1F1F1" points="832.5,715.9297,867.5,715.9297,879.5,727.9297,867.5,739.9297,832.5,739.9297,820.5,727.9297,832.5,715.9297" style="stroke:#181818;stroke-width:0.5;"/><text fill="#000000" font-family="sans-serif" font-size="11" lengthAdjust="spacing" textLength="20" x="854" y="750.1401">yes</text><text fill="#000000" font-family="sans-serif" font-size="11" lengthAdjust="spacing" textLength="35" x="832.5" y="731.7378">error?</text><text fill="#000000" font-family="sans-serif" font-size="11" lengthAdjust="spacing" textLength="14" x="879.5" y="725.3354">no</text><rect fill="#F1F1F1" height="33.9688" rx="12.5" ry="12.5" style="stroke:#181818;stroke-width:0.5;" width="141" x="641.5" y="910.9648"/><text fill="#000000" font-family="sans-serif" font-size="12" lengthAdjust="spacing" textLength="121" x="651.5" y="932.1035">term parents &amp; coef</text><line style="stroke:#000000;stroke-width:1.5;" x1="338" x2="338" y1="12.7451" y2="1194.5459"/><line style="stroke:#000000;stroke-width:1.5;" x1="1078" x2="1078" y1="12.7451" y2="1194.5459"/><line style="stroke:#181818;stroke-width:1.0;" x1="234" x2="234" y1="1066.1733" y2="1093.2866"/><polygon fill="#181818" points="230,1083.2866,234,1093.2866,238,1083.2866,234,1087.2866" style="stroke:#181818;stroke-width:1.0;"/><line style="stroke:#181818;stroke-width:1.0;" x1="234" x2="234" y1="1007.8022" y2="1032.2046"/><polygon fill="#181818" points="230,1022.2046,234,1032.2046,238,1022.2046,234,1026.2046" style="stroke:#181818;stroke-width:1.0;"/><line style="stroke:#181818;stroke-width:1.0;" x1="305" x2="319" y1="994.9976" y2="994.9976"/><polygon fill="#181818" points="315,1063.2866,319,1073.2866,323,1063.2866,319,1067.2866" style="stroke:#181818;stroke-width:1.0;"/><line style="stroke:#181818;stroke-width:1.0;" x1="319" x2="319" y1="994.9976" y2="1135.2866"/><line style="stroke:#181818;stroke-width:1.0;" x1="319" x2="234" y1="1135.2866" y2="1135.2866"/><line style="stroke:#181818;stroke-width:1.0;" x1="516.75" x2="516.75" y1="399.6738" y2="437.8223"/><polygon fill="#181818" points="512.75,427.8223,516.75,437.8223,520.75,427.8223,516.75,431.8223" style="stroke:#181818;stroke-width:1.0;"/><line style="stroke:#181818;stroke-width:1.0;" x1="516.75" x2="516.75" y1="338.1543" y2="365.7051"/><polygon fill="#181818" points="512.75,355.7051,516.75,365.7051,520.75,355.7051,516.75,359.7051" style="stroke:#181818;stroke-width:1.0;"/><line style="stroke:#181818;stroke-width:1.0;" x1="611.75" x2="770.75" y1="326.1543" y2="326.1543"/><polygon fill="#181818" points="766.75,414.6895,770.75,424.6895,774.75,414.6895,770.75,418.6895" style="stroke:#181818;stroke-width:1.0;"/><line style="stroke:#181818;stroke-width:1.0;" x1="770.75" x2="770.75" y1="326.1543" y2="493.8223"/><line style="stroke:#181818;stroke-width:1.0;" x1="770.75" x2="399.75" y1="493.8223" y2="493.8223"/><polygon fill="#181818" points="409.75,489.8223,399.75,493.8223,409.75,497.8223,405.75,493.8223" style="stroke:#181818;stroke-width:1.0;"/><line style="stroke:#181818;stroke-width:1.0;" x1="516.75" x2="516.75" y1="279.1543" y2="314.1543"/><polygon fill="#181818" points="512.75,304.1543,516.75,314.1543,520.75,304.1543,516.75,308.1543" style="stroke:#181818;stroke-width:1.0;"/><line style="stroke:#181818;stroke-width:1.0;" x1="907.25" x2="907.25" y1="327.5566" y2="362.5566"/><polygon fill="#181818" points="903.25,352.5566,907.25,362.5566,911.25,352.5566,907.25,356.5566" style="stroke:#181818;stroke-width:1.0;"/><line style="stroke:#181818;stroke-width:1.0;" x1="907.25" x2="907.25" y1="269.1855" y2="293.5879"/><polygon fill="#181818" points="903.25,283.5879,907.25,293.5879,911.25,283.5879,907.25,287.5879" style="stroke:#181818;stroke-width:1.0;"/><line style="stroke:#181818;stroke-width:1.0;" x1="964.25" x2="1011.75" y1="257.1855" y2="257.1855"/><polygon fill="#181818" points="1007.75,335.0566,1011.75,345.0566,1015.75,335.0566,1011.75,339.0566" style="stroke:#181818;stroke-width:1.0;"/><line style="stroke:#181818;stroke-width:1.0;" x1="1011.75" x2="1011.75" y1="257.1855" y2="432.9277"/><line style="stroke:#181818;stroke-width:1.0;" x1="1011.75" x2="919.25" y1="432.9277" y2="432.9277"/><polygon fill="#181818" points="929.25,428.9277,919.25,432.9277,929.25,436.9277,925.25,432.9277" style="stroke:#181818;stroke-width:1.0;"/><line style="stroke:#181818;stroke-width:1.0;" x1="907.25" x2="907.25" y1="396.5254" y2="420.9277"/><polygon fill="#181818" points="903.25,410.9277,907.25,420.9277,911.25,410.9277,907.25,414.9277" style="stroke:#181818;stroke-width:1.0;"/><line style="stroke:#181818;stroke-width:1.0;" x1="664.5" x2="516.75" y1="223.1855" y2="223.1855"/><line style="stroke:#181818;stroke-width:1.0;" x1="516.75" x2="516.75" y1="223.1855" y2="245.1855"/><polygon fill="#181818" points="512.75,235.1855,516.75,245.1855,520.75,235.1855,516.75,239.1855" style="stroke:#181818;stroke-width:1.0;"/><line style="stroke:#181818;stroke-width:1.0;" x1="759.5" x2="907.25" y1="223.1855" y2="223.1855"/><line style="stroke:#181818;stroke-width:1.0;" x1="907.25" x2="907.25" y1="223.1855" y2="245.1855"/><polygon fill="#181818" points="903.25,235.1855,907.25,245.1855,911.25,235.1855,907.25,239.1855" style="stroke:#181818;stroke-width:1.0;"/><line style="stroke:#181818;stroke-width:1.0;" x1="907.25" x2="907.25" y1="444.9277" y2="507.8223"/><line style="stroke:#181818;stroke-width:1.0;" x1="907.25" x2="1045.75" y1="507.8223" y2="507.8223"/><polygon fill="#181818" points="1041.75,368.2051,1045.75,358.2051,1049.75,368.2051,1045.75,364.2051" style="stroke:#181818;stroke-width:1.0;"/><line style="stroke:#181818;stroke-width:1.0;" x1="1045.75" x2="1045.75" y1="179.1855" y2="507.8223"/><line style="stroke:#181818;stroke-width:1.0;" x1="1045.75" x2="796.5" y1="179.1855" y2="179.1855"/><polygon fill="#181818" points="806.5,175.1855,796.5,179.1855,806.5,183.1855,802.5,179.1855" style="stroke:#181818;stroke-width:1.0;"/><line style="stroke:#181818;stroke-width:1.5;stroke-dasharray:7.0,7.0;" x1="712" x2="712" y1="191.1855" y2="211.1855"/><polygon fill="#181818" points="708,201.1855,712,211.1855,716,201.1855,712,205.1855" style="stroke:#181818;stroke-width:1.0;"/><line style="stroke:#181818;stroke-width:1.0;" x1="627.5" x2="399.75" y1="179.1855" y2="179.1855"/><polygon fill="#181818" points="395.75,354.2051,399.75,364.2051,403.75,354.2051,399.75,358.2051" style="stroke:#181818;stroke-width:1.0;"/><line style="stroke:#181818;stroke-width:1.0;" x1="399.75" x2="399.75" y1="179.1855" y2="519.8223"/><line style="stroke:#181818;stroke-width:1.0;" x1="399.75" x2="712" y1="519.8223" y2="519.8223"/><line style="stroke:#181818;stroke-width:1.0;" x1="712" x2="712" y1="519.8223" y2="539.8223"/><polygon fill="#181818" points="708,529.8223,712,539.8223,716,529.8223,712,533.8223" style="stroke:#181818;stroke-width:1.0;"/><line style="stroke:#181818;stroke-width:1.0;" x1="850" x2="850" y1="801.4492" y2="828.9648"/><polygon fill="#181818" points="846,818.9648,850,828.9648,854,818.9648,850,822.9648" style="stroke:#181818;stroke-width:1.0;"/><line style="stroke:#181818;stroke-width:1.0;" x1="850" x2="850" y1="739.9297" y2="767.4805"/><polygon fill="#181818" points="846,757.4805,850,767.4805,854,757.4805,850,761.4805" style="stroke:#181818;stroke-width:1.0;"/><line style="stroke:#181818;stroke-width:1.0;" x1="879.5" x2="1059" y1="727.9297" y2="727.9297"/><polygon fill="#181818" points="1055,798.9648,1059,808.9648,1063,798.9648,1059,802.9648" style="stroke:#181818;stroke-width:1.0;"/><line style="stroke:#181818;stroke-width:1.0;" x1="1059" x2="1059" y1="727.9297" y2="870.9648"/><line style="stroke:#181818;stroke-width:1.0;" x1="1059" x2="850" y1="870.9648" y2="870.9648"/><line style="stroke:#181818;stroke-width:1.0;" x1="850" x2="850" y1="870.9648" y2="890.9648"/><polygon fill="#181818" points="846,880.9648,850,890.9648,854,880.9648,850,884.9648" style="stroke:#181818;stroke-width:1.0;"/><line style="stroke:#181818;stroke-width:1.0;" x1="850" x2="850" y1="680.9297" y2="715.9297"/><polygon fill="#181818" points="846,705.9297,850,715.9297,854,705.9297,850,709.9297" style="stroke:#181818;stroke-width:1.0;"/><line style="stroke:#181818;stroke-width:1.0;" x1="412" x2="412" y1="631.7598" y2="664.5645"/><polygon fill="#181818" points="408,654.5645,412,664.5645,416,654.5645,412,658.5645" style="stroke:#181818;stroke-width:1.0;"/><line style="stroke:#181818;stroke-width:1.0;" x1="412" x2="412" y1="698.5332" y2="890.9648"/><polygon fill="#181818" points="408,880.9648,412,890.9648,416,880.9648,412,884.9648" style="stroke:#181818;stroke-width:1.0;"/><line style="stroke:#181818;stroke-width:1.0;" x1="548" x2="548" y1="631.7598" y2="664.5645"/><polygon fill="#181818" points="544,654.5645,548,664.5645,552,654.5645,548,658.5645" style="stroke:#181818;stroke-width:1.0;"/><line style="stroke:#181818;stroke-width:1.0;" x1="548" x2="548" y1="698.5332" y2="890.9648"/><polygon fill="#181818" points="544,880.9648,548,890.9648,552,880.9648,548,884.9648" style="stroke:#181818;stroke-width:1.0;"/><line style="stroke:#181818;stroke-width:1.0;" x1="685" x2="685" y1="631.7598" y2="664.5645"/><polygon fill="#181818" points="681,654.5645,685,664.5645,689,654.5645,685,658.5645" style="stroke:#181818;stroke-width:1.0;"/><line style="stroke:#181818;stroke-width:1.0;" x1="685" x2="685" y1="698.5332" y2="890.9648"/><polygon fill="#181818" points="681,880.9648,685,890.9648,689,880.9648,685,884.9648" style="stroke:#181818;stroke-width:1.0;"/><line style="stroke:#181818;stroke-width:1.0;" x1="471" x2="491" y1="619.7598" y2="619.7598"/><polygon fill="#181818" points="481,615.7598,491,619.7598,481,623.7598,485,619.7598" style="stroke:#181818;stroke-width:1.0;"/><line style="stroke:#181818;stroke-width:1.0;" x1="605" x2="625" y1="619.7598" y2="619.7598"/><polygon fill="#181818" points="615,615.7598,625,619.7598,615,623.7598,619,619.7598" style="stroke:#181818;stroke-width:1.0;"/><line style="stroke:#181818;stroke-width:1.0;" x1="712" x2="712" y1="587.7598" y2="592.7598"/><line style="stroke:#181818;stroke-width:1.0;" x1="712" x2="412" y1="592.7598" y2="592.7598"/><line style="stroke:#181818;stroke-width:1.0;" x1="412" x2="412" y1="592.7598" y2="607.7598"/><polygon fill="#181818" points="408,597.7598,412,607.7598,416,597.7598,412,601.7598" style="stroke:#181818;stroke-width:1.0;"/><line style="stroke:#181818;stroke-width:1.0;" x1="745" x2="850" y1="619.7598" y2="619.7598"/><line style="stroke:#181818;stroke-width:1.0;" x1="850" x2="850" y1="619.7598" y2="646.9609"/><polygon fill="#181818" points="846,636.9609,850,646.9609,854,636.9609,850,640.9609" style="stroke:#181818;stroke-width:1.0;"/><line style="stroke:#181818;stroke-width:1.0;" x1="412" x2="850" y1="890.9648" y2="890.9648"/><line style="stroke:#181818;stroke-width:1.0;" x1="712" x2="712" y1="890.9648" y2="910.9648"/><polygon fill="#181818" points="708,900.9648,712,910.9648,716,900.9648,712,904.9648" style="stroke:#181818;stroke-width:1.0;"/><line style="stroke:#181818;stroke-width:1.5;stroke-dasharray:7.0,7.0;" x1="82" x2="82" y1="58.6982" y2="80.9575"/><line style="stroke:#181818;stroke-width:1.5;stroke-dasharray:7.0,7.0;" x1="82" x2="234" y1="80.9575" y2="80.9575"/><line style="stroke:#181818;stroke-width:1.5;stroke-dasharray:7.0,7.0;" x1="234" x2="234" y1="80.9575" y2="95.9575"/><polygon fill="#181818" points="230,85.9575,234,95.9575,238,85.9575,234,89.9575" style="stroke:#181818;stroke-width:1.0;"/><text fill="#000000" font-family="sans-serif" font-size="11" lengthAdjust="spacing" textLength="191" x="86" y="74.4575">param equation, possible parents</text><line style="stroke:#181818;stroke-width:1.5;stroke-dasharray:7.0,7.0;" x1="234" x2="234" y1="129.9263" y2="152.1855"/><line style="stroke:#181818;stroke-width:1.5;stroke-dasharray:7.0,7.0;" x1="234" x2="712" y1="152.1855" y2="152.1855"/><line style="stroke:#181818;stroke-width:1.5;stroke-dasharray:7.0,7.0;" x1="712" x2="712" y1="152.1855" y2="167.1855"/><polygon fill="#181818" points="708,157.1855,712,167.1855,716,157.1855,712,161.1855" style="stroke:#181818;stroke-width:1.0;"/><text fill="#000000" font-family="sans-serif" font-size="11" lengthAdjust="spacing" textLength="78" x="238" y="145.6855">for each term</text><line style="stroke:#181818;stroke-width:1.5;stroke-dasharray:7.0,7.0;" x1="712" x2="712" y1="944.9336" y2="967.1929"/><line style="stroke:#181818;stroke-width:1.5;stroke-dasharray:7.0,7.0;" x1="712" x2="234" y1="967.1929" y2="967.1929"/><line style="stroke:#181818;stroke-width:1.5;stroke-dasharray:7.0,7.0;" x1="234" x2="234" y1="967.1929" y2="982.1929"/><polygon fill="#181818" points="230,972.1929,234,982.1929,238,972.1929,234,976.1929" style="stroke:#181818;stroke-width:1.0;"/><text fill="#000000" font-family="sans-serif" font-size="11" lengthAdjust="spacing" textLength="38" x="716" y="960.6929">results</text><line style="stroke:#181818;stroke-width:1.5;stroke-dasharray:7.0,7.0;" x1="234" x2="234" y1="1135.2866" y2="1157.5459"/><line style="stroke:#181818;stroke-width:1.5;stroke-dasharray:7.0,7.0;" x1="234" x2="82" y1="1157.5459" y2="1157.5459"/><line style="stroke:#181818;stroke-width:1.5;stroke-dasharray:7.0,7.0;" x1="82" x2="82" y1="1157.5459" y2="1172.5459"/><polygon fill="#181818" points="78,1162.5459,82,1172.5459,86,1162.5459,82,1166.5459" style="stroke:#181818;stroke-width:1.0;"/><text fill="#000000" font-family="sans-serif" font-size="11" lengthAdjust="spacing" textLength="92" x="238" y="1151.0459">parsed equation</text><text fill="#000000" font-family="sans-serif" font-size="18" lengthAdjust="spacing" textLength="123" x="20" y="29.4531">node_parser()</text><text fill="#000000" font-family="sans-serif" font-size="18" lengthAdjust="spacing" textLength="157" x="164.5" y="29.4531">equation_parser()</text><text fill="#000000" font-family="sans-serif" font-size="18" lengthAdjust="spacing" textLength="122" x="647" y="29.4531">term_parser()</text><!--SRC=[fLJRQjmm47tNLmmKwbrQFxGq46pIGCdc9tf3QurZKLboDJ9XmH_V6RlhzLwoUOWUZCLepfmvEfh11uE_Enq9usezA4ew9fL_DveQD3_phy0ntGB-xNMomN-4BX3PhKC9e4zKgk7TmytZu-RBi3-qm5C5TSucI1XRFhe4haC4r5Kpnah5CBVVDhURcq7s2uZdndArbHpNpftLBw1RA-1bQrXbtQ_F6IFttjol8JNeORL3cWx8AWGSB05JDP7PLkKS4u30EN4FpVKYQhEx1ZY2Hcq9uG6fYhOJ1JOnXbWU7V8X8KJxrAHYB3ws3MrF2RO8Fxo0G_1kDmQEKj6RUO-EAwryE33WgAtdtPOP_r7g3LNFAqpAPYn7yFYg6DeOw225MKLdAHrhKHXqoCGwg6DeHmxECZIbQFrJUQ6rwO-_enlOLi-DJX2nrTQJzC5NAZ1Lm9gz98od8EF17MHv1kUK2pajcVcdKadRPsbNipwyb7L_DOt3Kzv1v2bs1xKBEXsmrkLiR1H3lM3frzotz80FFlTzksMJisXLmu-xufidTUgrOuAp_FoTdj3-Sj__btpviYDIxsGog4iZGTenFK-5IgVzAnuzGin8bcu3wpXEZ0ioNkjMo1-8JtHFPXcXcOUP43oPVpm0G_SF]--></g></svg>