<?xml version="1.0" encoding="us-ascii" standalone="no"?><svg xmlns="http://www.w3.org/2000/svg" xmlns:xlink="http://www.w3.org/1999/xlink" contentStyleType="text/css" height="385px" preserveAspectRatio="none" style="width:1181px;height:385px;background:#FFFFFF;" version="1.1" viewBox="0 0 1181 385" width="1181px" zoomAndPan="magnify"><defs/><g><!--cluster core--><g id="cluster_core"><path d="M413,210 L620,210 A3.75,3.75 0 0 1 622.5,212.5 L629.5,232.2969 L843,232.2969 A2.5,2.5 0 0 1 845.5,234.7969 L845.5,322.5 A2.5,2.5 0 0 1 843,325 L413,325 A2.5,2.5 0 0 1 410.5,322.5 L410.5,212.5 A2.5,2.5 0 0 1 413,210 " fill="none" style="stroke:#000000;stroke-width:1.5;"/><line style="stroke:#000000;stroke-width:1.5;" x1="410.5" x2="629.5" y1="232.2969" y2="232.2969"/><text fill="#000000" font-family="sans-serif" font-size="14" font-weight="bold" lengthAdjust="spacing" textLength="206" x="414.5" y="224.9951">pyparcs.api.graph_objects</text></g><!--class Node--><g id="elem_Node"><rect codeLine="3" fill="#F1F1F1" height="64.2969" id="Node" rx="2.5" ry="2.5" style="stroke:#181818;stroke-width:0.5;" width="299" x="427" y="245"/><ellipse cx="442" cy="261" fill="#ADD1B2" rx="11" ry="11" style="stroke:#181818;stroke-width:1.0;"/><path d="M444.9688,266.6406 Q444.3906,266.9375 443.75,267.0781 Q443.1094,267.2344 442.4063,267.2344 Q439.9063,267.2344 438.5781,265.5938 Q437.2656,263.9375 437.2656,260.8125 Q437.2656,257.6875 438.5781,256.0313 Q439.9063,254.375 442.4063,254.375 Q443.1094,254.375 443.75,254.5313 Q444.4063,254.6875 444.9688,254.9844 L444.9688,257.7031 Q444.3438,257.125 443.75,256.8594 Q443.1563,256.5781 442.5313,256.5781 Q441.1875,256.5781 440.5,257.6563 Q439.8125,258.7188 439.8125,260.8125 Q439.8125,262.9063 440.5,263.9844 Q441.1875,265.0469 442.5313,265.0469 Q443.1563,265.0469 443.75,264.7813 Q444.3438,264.5 444.9688,263.9219 L444.9688,266.6406 Z " fill="#000000"/><text fill="#000000" font-family="sans-serif" font-size="14" lengthAdjust="spacing" textLength="267" x="456" y="265.8467">Node, detNode, ConstNode, dataNode</text><line style="stroke:#181818;stroke-width:0.5;" x1="428" x2="725" y1="277" y2="277"/><line style="stroke:#181818;stroke-width:0.5;" x1="428" x2="725" y1="285" y2="285"/><text fill="#000000" font-family="sans-serif" font-size="14" lengthAdjust="spacing" textLength="79" x="433" y="301.9951">.calculate()</text></g><!--class Edge--><g id="elem_Edge"><rect codeLine="6" fill="#F1F1F1" height="64.2969" id="Edge" rx="2.5" ry="2.5" style="stroke:#181818;stroke-width:0.5;" width="68" x="761.5" y="245"/><ellipse cx="776.5" cy="261" fill="#ADD1B2" rx="11" ry="11" style="stroke:#181818;stroke-width:1.0;"/><path d="M779.4688,266.6406 Q778.8906,266.9375 778.25,267.0781 Q777.6094,267.2344 776.9063,267.2344 Q774.4063,267.2344 773.0781,265.5938 Q771.7656,263.9375 771.7656,260.8125 Q771.7656,257.6875 773.0781,256.0313 Q774.4063,254.375 776.9063,254.375 Q777.6094,254.375 778.25,254.5313 Q778.9063,254.6875 779.4688,254.9844 L779.4688,257.7031 Q778.8438,257.125 778.25,256.8594 Q777.6563,256.5781 777.0313,256.5781 Q775.6875,256.5781 775,257.6563 Q774.3125,258.7188 774.3125,260.8125 Q774.3125,262.9063 775,263.9844 Q775.6875,265.0469 777.0313,265.0469 Q777.6563,265.0469 778.25,264.7813 Q778.8438,264.5 779.4688,263.9219 L779.4688,266.6406 Z " fill="#000000"/><text fill="#000000" font-family="sans-serif" font-size="14" lengthAdjust="spacing" textLength="36" x="790.5" y="265.8467">Edge</text><line style="stroke:#181818;stroke-width:0.5;" x1="762.5" x2="828.5" y1="277" y2="277"/><line style="stroke:#181818;stroke-width:0.5;" x1="762.5" x2="828.5" y1="285" y2="285"/><text fill="#000000" font-family="sans-serif" font-size="14" lengthAdjust="spacing" textLength="46" x="767.5" y="301.9951">.map()</text></g><rect fill="#F1F1F1" height="202.9688" style="stroke:#181818;stroke-width:0.5;" width="377" x="7" y="176"/><text fill="#000000" font-family="sans-serif" font-size="14" lengthAdjust="spacing" textLength="143" x="124" y="190.9951">Stochastic node dict</text><line style="stroke:#181818;stroke-width:1.0;" x1="150" x2="150" y1="196.2969" y2="378.9688"/><line style="stroke:#181818;stroke-width:1.0;" x1="7" x2="384" y1="196.2969" y2="196.2969"/><text fill="#000000" font-family="sans-serif" font-size="14" lengthAdjust="spacing" textLength="133" x="12" y="211.292">output_distribution</text><text fill="#000000" font-family="sans-serif" font-size="14" lengthAdjust="spacing" textLength="125" x="155" y="211.292">distribution name</text><line style="stroke:#181818;stroke-width:1.0;" x1="7" x2="384" y1="216.5938" y2="216.5938"/><text fill="#000000" font-family="sans-serif" font-size="14" lengthAdjust="spacing" textLength="98" x="12" y="231.5889">do_correction</text><text fill="#000000" font-family="sans-serif" font-size="14" lengthAdjust="spacing" textLength="31" x="155" y="231.5889">bool</text><line style="stroke:#181818;stroke-width:1.0;" x1="7" x2="384" y1="236.8906" y2="236.8906"/><text fill="#000000" font-family="sans-serif" font-size="14" lengthAdjust="spacing" textLength="124" x="12" y="251.8857">correction_config</text><line style="stroke:#181818;stroke-width:1.0;" x1="251" x2="251" y1="236.8906" y2="297.7813"/><line style="stroke:#181818;stroke-width:1.0;" x1="150" x2="384" y1="236.8906" y2="236.8906"/><text fill="#000000" font-family="sans-serif" font-size="14" lengthAdjust="spacing" textLength="39" x="155" y="251.8857">lower</text><text fill="#000000" font-family="sans-serif" font-size="14" lengthAdjust="spacing" textLength="32" x="256" y="251.8857">float</text><line style="stroke:#181818;stroke-width:1.0;" x1="150" x2="384" y1="257.1875" y2="257.1875"/><text fill="#000000" font-family="sans-serif" font-size="14" lengthAdjust="spacing" textLength="42" x="155" y="272.1826">upper</text><text fill="#000000" font-family="sans-serif" font-size="14" lengthAdjust="spacing" textLength="32" x="256" y="272.1826">float</text><line style="stroke:#181818;stroke-width:1.0;" x1="150" x2="384" y1="277.4844" y2="277.4844"/><text fill="#000000" font-family="sans-serif" font-size="14" lengthAdjust="spacing" textLength="91" x="155" y="292.4795">target_mean</text><text fill="#000000" font-family="sans-serif" font-size="14" lengthAdjust="spacing" textLength="32" x="256" y="292.4795">float</text><line style="stroke:#181818;stroke-width:1.0;" x1="7" x2="384" y1="297.7813" y2="297.7813"/><text fill="#000000" font-family="sans-serif" font-size="14" lengthAdjust="spacing" textLength="131" x="12" y="312.7764">dist_params_coefs</text><line style="stroke:#181818;stroke-width:1.0;" x1="223" x2="223" y1="297.7813" y2="378.9688"/><line style="stroke:#181818;stroke-width:1.0;" x1="150" x2="384" y1="297.7813" y2="297.7813"/><text fill="#000000" font-family="sans-serif" font-size="14" lengthAdjust="spacing" textLength="63" x="155" y="312.7764">param_1</text><line style="stroke:#181818;stroke-width:1.0;" x1="317" x2="317" y1="297.7813" y2="358.6719"/><line style="stroke:#181818;stroke-width:1.0;" x1="223" x2="384" y1="297.7813" y2="297.7813"/><text fill="#000000" font-family="sans-serif" font-size="14" lengthAdjust="spacing" textLength="29" x="228" y="312.7764">bias</text><text fill="#000000" font-family="sans-serif" font-size="14" lengthAdjust="spacing" textLength="18" x="322" y="312.7764">int</text><line style="stroke:#181818;stroke-width:1.0;" x1="223" x2="384" y1="318.0781" y2="318.0781"/><text fill="#000000" font-family="sans-serif" font-size="14" lengthAdjust="spacing" textLength="41" x="228" y="333.0732">linear</text><text fill="#000000" font-family="sans-serif" font-size="14" lengthAdjust="spacing" textLength="48" x="322" y="333.0732">list(int)</text><line style="stroke:#181818;stroke-width:1.0;" x1="223" x2="384" y1="338.375" y2="338.375"/><text fill="#000000" font-family="sans-serif" font-size="14" lengthAdjust="spacing" textLength="84" x="228" y="353.3701">interactions</text><text fill="#000000" font-family="sans-serif" font-size="14" lengthAdjust="spacing" textLength="57" x="322" y="353.3701">list(int)}</text><line style="stroke:#181818;stroke-width:1.0;" x1="150" x2="384" y1="358.6719" y2="358.6719"/><text fill="#000000" font-family="sans-serif" font-size="14" lengthAdjust="spacing" textLength="63" x="155" y="373.667">param_2</text><text fill="#000000" font-family="sans-serif" font-size="14" lengthAdjust="spacing" textLength="12" x="228" y="373.667">...</text><rect fill="#F1F1F1" height="40.5938" style="stroke:#181818;stroke-width:0.5;" width="147" x="172" y="37.5"/><text fill="#000000" font-family="sans-serif" font-size="14" lengthAdjust="spacing" textLength="133" x="179" y="52.4951">Constant node dict</text><line style="stroke:#181818;stroke-width:1.0;" x1="221" x2="221" y1="57.7969" y2="78.0938"/><line style="stroke:#181818;stroke-width:1.0;" x1="172" x2="319" y1="57.7969" y2="57.7969"/><text fill="#000000" font-family="sans-serif" font-size="14" lengthAdjust="spacing" textLength="39" x="177" y="72.792">value</text><text fill="#000000" font-family="sans-serif" font-size="14" lengthAdjust="spacing" textLength="32" x="226" y="72.792">float</text><rect fill="#F1F1F1" height="40.5938" style="stroke:#181818;stroke-width:0.5;" width="179" x="370" y="37.5"/><text fill="#000000" font-family="sans-serif" font-size="14" lengthAdjust="spacing" textLength="165" x="377" y="52.4951">Deterministic node dict</text><line style="stroke:#181818;stroke-width:1.0;" x1="438" x2="438" y1="57.7969" y2="78.0938"/><line style="stroke:#181818;stroke-width:1.0;" x1="370" x2="549" y1="57.7969" y2="57.7969"/><text fill="#000000" font-family="sans-serif" font-size="14" lengthAdjust="spacing" textLength="58" x="375" y="72.792">function</text><text fill="#000000" font-family="sans-serif" font-size="14" lengthAdjust="spacing" textLength="56" x="443" y="72.792">callable</text><rect fill="#F1F1F1" height="60.8906" style="stroke:#181818;stroke-width:0.5;" width="189" x="600" y="27.5"/><text fill="#000000" font-family="sans-serif" font-size="14" lengthAdjust="spacing" textLength="104" x="642.5" y="42.4951">Data node dict</text><line style="stroke:#181818;stroke-width:1.0;" x1="659" x2="659" y1="47.7969" y2="88.3906"/><line style="stroke:#181818;stroke-width:1.0;" x1="600" x2="789" y1="47.7969" y2="47.7969"/><text fill="#000000" font-family="sans-serif" font-size="14" lengthAdjust="spacing" textLength="49" x="605" y="62.792">csv_dir</text><text fill="#000000" font-family="sans-serif" font-size="14" lengthAdjust="spacing" textLength="54" x="664" y="62.792">path str</text><line style="stroke:#181818;stroke-width:1.0;" x1="600" x2="789" y1="68.0938" y2="68.0938"/><text fill="#000000" font-family="sans-serif" font-size="14" lengthAdjust="spacing" textLength="21" x="605" y="83.0889">col</text><text fill="#000000" font-family="sans-serif" font-size="14" lengthAdjust="spacing" textLength="120" x="664" y="83.0889">column name str</text><rect fill="#F1F1F1" height="101.4844" style="stroke:#181818;stroke-width:0.5;" width="334" x="840.5" y="7"/><text fill="#000000" font-family="sans-serif" font-size="14" lengthAdjust="spacing" textLength="66" x="974.5" y="21.9951">Edge dict</text><line style="stroke:#181818;stroke-width:1.0;" x1="974.5" x2="974.5" y1="27.2969" y2="108.4844"/><line style="stroke:#181818;stroke-width:1.0;" x1="840.5" x2="1174.5" y1="27.2969" y2="27.2969"/><text fill="#000000" font-family="sans-serif" font-size="14" lengthAdjust="spacing" textLength="106" x="845.5" y="42.292">function_name</text><text fill="#000000" font-family="sans-serif" font-size="14" lengthAdjust="spacing" textLength="165" x="979.5" y="42.292">edge function name str</text><line style="stroke:#181818;stroke-width:1.0;" x1="840.5" x2="1174.5" y1="47.5938" y2="47.5938"/><text fill="#000000" font-family="sans-serif" font-size="14" lengthAdjust="spacing" textLength="119" x="845.5" y="62.5889">function_params</text><text fill="#000000" font-family="sans-serif" font-size="14" lengthAdjust="spacing" textLength="190" x="979.5" y="62.5889">parameters of the function</text><line style="stroke:#181818;stroke-width:1.0;" x1="840.5" x2="1174.5" y1="67.8906" y2="67.8906"/><text fill="#000000" font-family="sans-serif" font-size="14" lengthAdjust="spacing" textLength="98" x="845.5" y="82.8857">do_correction</text><text fill="#000000" font-family="sans-serif" font-size="14" lengthAdjust="spacing" textLength="31" x="979.5" y="82.8857">bool</text><line style="stroke:#181818;stroke-width:1.0;" x1="840.5" x2="1174.5" y1="88.1875" y2="88.1875"/><text fill="#000000" font-family="sans-serif" font-size="14" lengthAdjust="spacing" textLength="124" x="845.5" y="103.1826">correction_config</text><text fill="#000000" font-family="sans-serif" font-size="14" lengthAdjust="spacing" textLength="18" x="979.5" y="103.1826">{}</text><!--link stochNode to Node--><g id="link_stochNode_Node"><path codeLine="35" d="M392.33,277 C402.13,277 411.93,277 421.73,277 " fill="none" id="stochNode-to-Node" style="stroke:#181818;stroke-width:1.0;"/><polygon fill="#181818" points="426.86,277,417.86,273,421.86,277,417.86,281,426.86,277" style="stroke:#181818;stroke-width:1.0;"/></g><!--link detNode to Node--><g id="link_detNode_Node"><path codeLine="36" d="M472.02,81.78 C492.48,119.81 533.21,195.53 557.33,240.37 " fill="none" id="detNode-to-Node" style="stroke:#181818;stroke-width:1.0;"/><polygon fill="#181818" points="559.76,244.87,559.0112,235.0496,557.3878,240.4686,551.9689,238.8452,559.76,244.87" style="stroke:#181818;stroke-width:1.0;"/></g><!--link dataNode to Node--><g id="link_dataNode_Node"><path codeLine="37" d="M676.58,91.53 C654.81,131.66 618.22,199.1 595.83,240.37 " fill="none" id="dataNode-to-Node" style="stroke:#181818;stroke-width:1.0;"/><polygon fill="#181818" points="593.44,244.78,601.2544,238.7854,595.8292,240.3878,594.2269,234.9626,593.44,244.78" style="stroke:#181818;stroke-width:1.0;"/></g><!--link constNode to Node--><g id="link_constNode_Node"><path codeLine="38" d="M280.61,81.57 C339.14,120.03 456.92,197.42 524.9,242.09 " fill="none" id="constNode-to-Node" style="stroke:#181818;stroke-width:1.0;"/><polygon fill="#181818" points="529.31,244.99,523.9746,236.7115,525.1279,242.2495,519.5899,243.4028,529.31,244.99" style="stroke:#181818;stroke-width:1.0;"/></g><!--link edgeDict to Edge--><g id="link_edgeDict_Edge"><path codeLine="47" d="M955.1,112.26 C915.94,152.44 863.53,206.2 829.65,240.97 " fill="none" id="edgeDict-to-Edge" style="stroke:#181818;stroke-width:1.0;"/><polygon fill="#181818" points="826.02,244.69,835.1615,241.0248,829.5052,241.1048,829.4252,235.4485,826.02,244.69" style="stroke:#181818;stroke-width:1.0;"/></g><!--SRC=[VLB1JiCm3BtlAwASG1gLuCY12t3bmWTKRffsWJI94XU4fluxZjSsNOMe9Ysndv-VunT0VKAlXGm_0Q9A5GHJzH72gVRDXrQOf80ab8zQd0-2FcKX9I7VVAkFejLuEJnxb-PZ2mZvn8NvC1Vchr9WrMW1zSqj1wSDvslRNs4722lgGB-Fv9sGx-ZL2H8Q9LmcRur2RfLoOjTF-X73Y7Lh4aRJZ6Yyauz2Rk_2mQ3biTIqlgPv8mq_enllxHPGiWHqdUa9T9RMV-kOuPtrWF8ev1Z2Be8GUutreC6L-BJjJS9gsWGCYRXrbpBrccO8P-jxxjaOo0Xf7DDRupHmHqiyDnIzpM7wrn5OSBfAJlAAUYDaq-aXbrHL9QUo15utEDojG2qkc3NBBx2ZBfCMWXTDaWRZp1-Bd4srS7IZMpT1zh7GMBrb8hlj2MO7BWmgVP43-5q2u8cS4kTrqYejytex3XSdS3RJ5p_TFR6F3ukmkpMmD5eZvGNMqAoJtRrAr7HxeSj-o9hDI8eoG2pH8kouWr-iSfcCJlbLa_2Tm5EfNeh-y_MVdfRdYLzY5PjdodCSVW40]--></g></svg>