<?xml version="1.0" encoding="us-ascii" standalone="no"?><svg xmlns="http://www.w3.org/2000/svg" xmlns:xlink="http://www.w3.org/1999/xlink" contentStyleType="text/css" height="934px" preserveAspectRatio="none" style="width:752px;height:934px;background:#FFFFFF;" version="1.1" viewBox="0 0 752 934" width="752px" zoomAndPan="magnify"><defs/><g><ellipse cx="379" cy="20" fill="#222222" rx="10" ry="10" style="stroke:#222222;stroke-width:1.0;"/><rect fill="#F1F1F1" height="33.9688" rx="12.5" ry="12.5" style="stroke:#181818;stroke-width:0.5;" width="192" x="283" y="50"/><text fill="#000000" font-family="sans-serif" font-size="12" font-weight="bold" lengthAdjust="spacing" textLength="37" x="293" y="71.1387">input</text><text fill="#000000" font-family="sans-serif" font-size="12" lengthAdjust="spacing" textLength="135" x="330" y="71.1387">: line, possible parents</text><polygon fill="#F1F1F1" points="343.5,147.9688,414.5,147.9688,426.5,159.9688,414.5,171.9688,343.5,171.9688,331.5,159.9688,343.5,147.9688" style="stroke:#181818;stroke-width:0.5;"/><text fill="#000000" font-family="sans-serif" font-size="11" lengthAdjust="spacing" textLength="71" x="343.5" y="163.7769">'p^2' found?</text><text fill="#000000" font-family="sans-serif" font-size="11" lengthAdjust="spacing" textLength="20" x="311.5" y="157.3745">yes</text><text fill="#000000" font-family="sans-serif" font-size="11" lengthAdjust="spacing" textLength="14" x="426.5" y="157.3745">no</text><rect fill="#F1F1F1" height="33.9688" rx="12.5" ry="12.5" style="stroke:#181818;stroke-width:0.5;" width="124" x="121.75" y="181.9688"/><text fill="#000000" font-family="sans-serif" font-size="12" lengthAdjust="spacing" textLength="104" x="131.75" y="203.1074">term is quadratic</text><path d="M278.75,299.3398 L278.75,315.4727 L258.75,319.4727 L278.75,323.4727 L278.75,339.6055 A0,0 0 0 0 278.75,339.6055 L427.75,339.6055 A0,0 0 0 0 427.75,339.6055 L427.75,309.3398 L417.75,299.3398 L278.75,299.3398 A0,0 0 0 0 278.75,299.3398 " fill="#FEFFDD" style="stroke:#181818;stroke-width:0.5;"/><path d="M417.75,299.3398 L417.75,309.3398 L427.75,309.3398 L417.75,299.3398 " fill="#FEFFDD" style="stroke:#181818;stroke-width:0.5;"/><text fill="#000000" font-family="sans-serif" font-size="13" lengthAdjust="spacing" textLength="124" x="284.75" y="316.4067">quad term must be</text><text fill="#000000" font-family="sans-serif" font-size="13" lengthAdjust="spacing" textLength="88" x="288.75" y="331.5396">the only term</text><rect fill="#F1F1F1" height="33.9688" rx="12.5" ry="12.5" style="stroke:#181818;stroke-width:0.5;" width="150" x="108.75" y="302.4883"/><text fill="#000000" font-family="sans-serif" font-size="12" lengthAdjust="spacing" textLength="130" x="118.75" y="323.627">raise DescriptionError</text><ellipse cx="183.75" cy="384.6055" fill="none" rx="10" ry="10" style="stroke:#222222;stroke-width:1.5;"/><line style="stroke:#222222;stroke-width:2.5;" x1="177.5628" x2="189.9372" y1="378.4183" y2="390.7927"/><line style="stroke:#222222;stroke-width:2.5;" x1="189.9372" x2="177.5628" y1="378.4183" y2="390.7927"/><polygon fill="#F1F1F1" points="100.75,250.9375,266.75,250.9375,278.75,262.9375,266.75,274.9375,100.75,274.9375,88.75,262.9375,100.75,250.9375" style="stroke:#181818;stroke-width:0.5;"/><text fill="#000000" font-family="sans-serif" font-size="11" lengthAdjust="spacing" textLength="20" x="187.75" y="285.1479">yes</text><text fill="#000000" font-family="sans-serif" font-size="11" lengthAdjust="spacing" textLength="166" x="100.75" y="266.7456">other parents already found?</text><text fill="#000000" font-family="sans-serif" font-size="11" lengthAdjust="spacing" textLength="14" x="278.75" y="260.3433">no</text><rect fill="#F1F1F1" height="33.9688" rx="12.5" ry="12.5" style="stroke:#181818;stroke-width:0.5;" width="142" x="503.25" y="230.3711"/><text fill="#000000" font-family="sans-serif" font-size="12" lengthAdjust="spacing" textLength="122" x="513.25" y="251.5098">add p to parents list</text><rect fill="#F1F1F1" height="33.9688" rx="12.5" ry="12.5" style="stroke:#181818;stroke-width:0.5;" width="189" x="479.75" y="299.3398"/><text fill="#000000" font-family="sans-serif" font-size="12" lengthAdjust="spacing" textLength="169" x="489.75" y="320.4785">delete p from the line string</text><polygon fill="#F1F1F1" points="529.25,181.9688,619.25,181.9688,631.25,193.9688,619.25,205.9688,529.25,205.9688,517.25,193.9688,529.25,181.9688" style="stroke:#181818;stroke-width:0.5;"/><text fill="#000000" font-family="sans-serif" font-size="11" lengthAdjust="spacing" textLength="20" x="578.25" y="216.1792">yes</text><text fill="#000000" font-family="sans-serif" font-size="11" lengthAdjust="spacing" textLength="90" x="529.25" y="197.7769">'p' alone found?</text><polygon fill="#F1F1F1" points="574.25,357.7109,586.25,369.7109,574.25,381.7109,562.25,369.7109,574.25,357.7109" style="stroke:#181818;stroke-width:0.5;"/><polygon fill="#F1F1F1" points="306.5,103.9688,451.5,103.9688,463.5,115.9688,451.5,127.9688,306.5,127.9688,294.5,115.9688,306.5,103.9688" style="stroke:#181818;stroke-width:0.5;"/><text fill="#000000" font-family="sans-serif" font-size="11" lengthAdjust="spacing" textLength="145" x="306.5" y="119.7769">for all possible parents: p</text><rect fill="#F1F1F1" height="47.9375" rx="12.5" ry="12.5" style="stroke:#181818;stroke-width:0.5;" width="106" x="326" y="476.6055"/><text fill="#000000" font-family="sans-serif" font-size="12" lengthAdjust="spacing" textLength="82" x="336" y="497.7441">what remains</text><text fill="#000000" font-family="sans-serif" font-size="12" lengthAdjust="spacing" textLength="62" x="340" y="511.7129">is the coef</text><polygon fill="#F1F1F1" points="32,544.543,126,544.543,138,556.543,126,568.543,32,568.543,20,556.543,32,544.543" style="stroke:#181818;stroke-width:0.5;"/><text fill="#000000" font-family="sans-serif" font-size="11" lengthAdjust="spacing" textLength="20" x="83" y="578.7534">yes</text><text fill="#000000" font-family="sans-serif" font-size="11" lengthAdjust="spacing" textLength="94" x="32" y="560.3511">remaining = '-' ?</text><rect fill="#F1F1F1" height="33.9688" rx="12.5" ry="12.5" style="stroke:#181818;stroke-width:0.5;" width="74" x="42" y="601.3477"/><text fill="#000000" font-family="sans-serif" font-size="12" lengthAdjust="spacing" textLength="54" x="52" y="622.4863">coef is -1</text><polygon fill="#F1F1F1" points="170,544.543,260,544.543,272,556.543,260,568.543,170,568.543,158,556.543,170,544.543" style="stroke:#181818;stroke-width:0.5;"/><text fill="#000000" font-family="sans-serif" font-size="11" lengthAdjust="spacing" textLength="20" x="219" y="578.7534">yes</text><text fill="#000000" font-family="sans-serif" font-size="11" lengthAdjust="spacing" textLength="90" x="170" y="560.3511">remaining = '' ?</text><rect fill="#F1F1F1" height="33.9688" rx="12.5" ry="12.5" style="stroke:#181818;stroke-width:0.5;" width="80" x="175" y="601.3477"/><text fill="#000000" font-family="sans-serif" font-size="12" lengthAdjust="spacing" textLength="60" x="185" y="622.4863">coef is +1</text><polygon fill="#F1F1F1" points="304,544.543,400,544.543,412,556.543,400,568.543,304,568.543,292,556.543,304,544.543" style="stroke:#181818;stroke-width:0.5;"/><text fill="#000000" font-family="sans-serif" font-size="11" lengthAdjust="spacing" textLength="20" x="356" y="578.7534">yes</text><text fill="#000000" font-family="sans-serif" font-size="11" lengthAdjust="spacing" textLength="96" x="304" y="560.3511">remaining = '?' ?</text><text fill="#000000" font-family="sans-serif" font-size="11" lengthAdjust="spacing" textLength="14" x="412" y="553.9487">no</text><rect fill="#F1F1F1" height="33.9688" rx="12.5" ry="12.5" style="stroke:#181818;stroke-width:0.5;" width="74" x="315" y="601.3477"/><text fill="#000000" font-family="sans-serif" font-size="12" lengthAdjust="spacing" textLength="54" x="325" y="622.4863">coef is '?'</text><rect fill="#F1F1F1" height="33.9688" rx="12.5" ry="12.5" style="stroke:#181818;stroke-width:0.5;" width="160" x="437" y="583.7441"/><text fill="#000000" font-family="sans-serif" font-size="12" lengthAdjust="spacing" textLength="140" x="447" y="604.8828">coef = float(remaining)</text><path d="M612,701.1152 L612,717.248 L592,721.248 L612,725.248 L612,741.3809 A0,0 0 0 0 612,741.3809 L716,741.3809 A0,0 0 0 0 716,741.3809 L716,711.1152 L706,701.1152 L612,701.1152 A0,0 0 0 0 612,701.1152 " fill="#FEFFDD" style="stroke:#181818;stroke-width:0.5;"/><path d="M706,701.1152 L706,711.1152 L716,711.1152 L706,701.1152 " fill="#FEFFDD" style="stroke:#181818;stroke-width:0.5;"/><text fill="#000000" font-family="sans-serif" font-size="13" lengthAdjust="spacing" textLength="79" x="618" y="718.1821">non-number</text><text fill="#000000" font-family="sans-serif" font-size="13" lengthAdjust="spacing" textLength="68" x="622" y="733.3149">characters</text><rect fill="#F1F1F1" height="33.9688" rx="12.5" ry="12.5" style="stroke:#181818;stroke-width:0.5;" width="150" x="442" y="704.2637"/><text fill="#000000" font-family="sans-serif" font-size="12" lengthAdjust="spacing" textLength="130" x="452" y="725.4023">raise DescriptionError</text><ellipse cx="517" cy="775.748" fill="none" rx="10" ry="10" style="stroke:#222222;stroke-width:1.5;"/><line style="stroke:#222222;stroke-width:2.5;" x1="510.8128" x2="523.1872" y1="769.5609" y2="781.9352"/><line style="stroke:#222222;stroke-width:2.5;" x1="523.1872" x2="510.8128" y1="769.5609" y2="781.9352"/><polygon fill="#F1F1F1" points="499.5,652.7129,534.5,652.7129,546.5,664.7129,534.5,676.7129,499.5,676.7129,487.5,664.7129,499.5,652.7129" style="stroke:#181818;stroke-width:0.5;"/><text fill="#000000" font-family="sans-serif" font-size="11" lengthAdjust="spacing" textLength="20" x="521" y="686.9233">yes</text><text fill="#000000" font-family="sans-serif" font-size="11" lengthAdjust="spacing" textLength="35" x="499.5" y="668.521">error?</text><text fill="#000000" font-family="sans-serif" font-size="11" lengthAdjust="spacing" textLength="14" x="546.5" y="662.1187">no</text><rect fill="#F1F1F1" height="33.9688" rx="12.5" ry="12.5" style="stroke:#181818;stroke-width:0.5;" width="204" x="277" y="847.748"/><text fill="#000000" font-family="sans-serif" font-size="12" lengthAdjust="spacing" textLength="184" x="287" y="868.8867">return term parents list &amp; coef</text><ellipse cx="379" cy="912.7168" fill="none" rx="11" ry="11" style="stroke:#222222;stroke-width:1.0;"/><ellipse cx="379" cy="912.7168" fill="#222222" rx="6" ry="6" style="stroke:#111111;stroke-width:1.0;"/><line style="stroke:#181818;stroke-width:1.0;" x1="379" x2="379" y1="30" y2="50"/><polygon fill="#181818" points="375,40,379,50,383,40,379,44" style="stroke:#181818;stroke-width:1.0;"/><line style="stroke:#181818;stroke-width:1.0;" x1="183.75" x2="183.75" y1="336.457" y2="374.6055"/><polygon fill="#181818" points="179.75,364.6055,183.75,374.6055,187.75,364.6055,183.75,368.6055" style="stroke:#181818;stroke-width:1.0;"/><line style="stroke:#181818;stroke-width:1.0;" x1="183.75" x2="183.75" y1="274.9375" y2="302.4883"/><polygon fill="#181818" points="179.75,292.4883,183.75,302.4883,187.75,292.4883,183.75,296.4883" style="stroke:#181818;stroke-width:1.0;"/><line style="stroke:#181818;stroke-width:1.0;" x1="278.75" x2="437.75" y1="262.9375" y2="262.9375"/><polygon fill="#181818" points="433.75,351.4727,437.75,361.4727,441.75,351.4727,437.75,355.4727" style="stroke:#181818;stroke-width:1.0;"/><line style="stroke:#181818;stroke-width:1.0;" x1="437.75" x2="437.75" y1="262.9375" y2="430.6055"/><line style="stroke:#181818;stroke-width:1.0;" x1="437.75" x2="66.75" y1="430.6055" y2="430.6055"/><polygon fill="#181818" points="76.75,426.6055,66.75,430.6055,76.75,434.6055,72.75,430.6055" style="stroke:#181818;stroke-width:1.0;"/><line style="stroke:#181818;stroke-width:1.0;" x1="183.75" x2="183.75" y1="215.9375" y2="250.9375"/><polygon fill="#181818" points="179.75,240.9375,183.75,250.9375,187.75,240.9375,183.75,244.9375" style="stroke:#181818;stroke-width:1.0;"/><line style="stroke:#181818;stroke-width:1.0;" x1="574.25" x2="574.25" y1="264.3398" y2="299.3398"/><polygon fill="#181818" points="570.25,289.3398,574.25,299.3398,578.25,289.3398,574.25,293.3398" style="stroke:#181818;stroke-width:1.0;"/><line style="stroke:#181818;stroke-width:1.0;" x1="574.25" x2="574.25" y1="205.9688" y2="230.3711"/><polygon fill="#181818" points="570.25,220.3711,574.25,230.3711,578.25,220.3711,574.25,224.3711" style="stroke:#181818;stroke-width:1.0;"/><line style="stroke:#181818;stroke-width:1.0;" x1="631.25" x2="678.75" y1="193.9688" y2="193.9688"/><polygon fill="#181818" points="674.75,271.8398,678.75,281.8398,682.75,271.8398,678.75,275.8398" style="stroke:#181818;stroke-width:1.0;"/><line style="stroke:#181818;stroke-width:1.0;" x1="678.75" x2="678.75" y1="193.9688" y2="369.7109"/><line style="stroke:#181818;stroke-width:1.0;" x1="678.75" x2="586.25" y1="369.7109" y2="369.7109"/><polygon fill="#181818" points="596.25,365.7109,586.25,369.7109,596.25,373.7109,592.25,369.7109" style="stroke:#181818;stroke-width:1.0;"/><line style="stroke:#181818;stroke-width:1.0;" x1="574.25" x2="574.25" y1="333.3086" y2="357.7109"/><polygon fill="#181818" points="570.25,347.7109,574.25,357.7109,578.25,347.7109,574.25,351.7109" style="stroke:#181818;stroke-width:1.0;"/><line style="stroke:#181818;stroke-width:1.0;" x1="331.5" x2="183.75" y1="159.9688" y2="159.9688"/><line style="stroke:#181818;stroke-width:1.0;" x1="183.75" x2="183.75" y1="159.9688" y2="181.9688"/><polygon fill="#181818" points="179.75,171.9688,183.75,181.9688,187.75,171.9688,183.75,175.9688" style="stroke:#181818;stroke-width:1.0;"/><line style="stroke:#181818;stroke-width:1.0;" x1="426.5" x2="574.25" y1="159.9688" y2="159.9688"/><line style="stroke:#181818;stroke-width:1.0;" x1="574.25" x2="574.25" y1="159.9688" y2="181.9688"/><polygon fill="#181818" points="570.25,171.9688,574.25,181.9688,578.25,171.9688,574.25,175.9688" style="stroke:#181818;stroke-width:1.0;"/><line style="stroke:#181818;stroke-width:1.0;" x1="574.25" x2="574.25" y1="381.7109" y2="444.6055"/><line style="stroke:#181818;stroke-width:1.0;" x1="574.25" x2="712.75" y1="444.6055" y2="444.6055"/><polygon fill="#181818" points="708.75,304.9883,712.75,294.9883,716.75,304.9883,712.75,300.9883" style="stroke:#181818;stroke-width:1.0;"/><line style="stroke:#181818;stroke-width:1.0;" x1="712.75" x2="712.75" y1="115.9688" y2="444.6055"/><line style="stroke:#181818;stroke-width:1.0;" x1="712.75" x2="463.5" y1="115.9688" y2="115.9688"/><polygon fill="#181818" points="473.5,111.9688,463.5,115.9688,473.5,119.9688,469.5,115.9688" style="stroke:#181818;stroke-width:1.0;"/><line style="stroke:#181818;stroke-width:1.0;" x1="379" x2="379" y1="127.9688" y2="147.9688"/><polygon fill="#181818" points="375,137.9688,379,147.9688,383,137.9688,379,141.9688" style="stroke:#181818;stroke-width:1.0;"/><line style="stroke:#181818;stroke-width:1.0;" x1="294.5" x2="66.75" y1="115.9688" y2="115.9688"/><polygon fill="#181818" points="62.75,290.9883,66.75,300.9883,70.75,290.9883,66.75,294.9883" style="stroke:#181818;stroke-width:1.0;"/><line style="stroke:#181818;stroke-width:1.0;" x1="66.75" x2="66.75" y1="115.9688" y2="456.6055"/><line style="stroke:#181818;stroke-width:1.0;" x1="66.75" x2="379" y1="456.6055" y2="456.6055"/><line style="stroke:#181818;stroke-width:1.0;" x1="379" x2="379" y1="456.6055" y2="476.6055"/><polygon fill="#181818" points="375,466.6055,379,476.6055,383,466.6055,379,470.6055" style="stroke:#181818;stroke-width:1.0;"/><line style="stroke:#181818;stroke-width:1.0;" x1="379" x2="379" y1="83.9688" y2="103.9688"/><polygon fill="#181818" points="375,93.9688,379,103.9688,383,93.9688,379,97.9688" style="stroke:#181818;stroke-width:1.0;"/><line style="stroke:#181818;stroke-width:1.0;" x1="517" x2="517" y1="738.2324" y2="765.748"/><polygon fill="#181818" points="513,755.748,517,765.748,521,755.748,517,759.748" style="stroke:#181818;stroke-width:1.0;"/><line style="stroke:#181818;stroke-width:1.0;" x1="517" x2="517" y1="676.7129" y2="704.2637"/><polygon fill="#181818" points="513,694.2637,517,704.2637,521,694.2637,517,698.2637" style="stroke:#181818;stroke-width:1.0;"/><line style="stroke:#181818;stroke-width:1.0;" x1="546.5" x2="726" y1="664.7129" y2="664.7129"/><polygon fill="#181818" points="722,735.748,726,745.748,730,735.748,726,739.748" style="stroke:#181818;stroke-width:1.0;"/><line style="stroke:#181818;stroke-width:1.0;" x1="726" x2="726" y1="664.7129" y2="807.748"/><line style="stroke:#181818;stroke-width:1.0;" x1="726" x2="517" y1="807.748" y2="807.748"/><line style="stroke:#181818;stroke-width:1.0;" x1="517" x2="517" y1="807.748" y2="827.748"/><polygon fill="#181818" points="513,817.748,517,827.748,521,817.748,517,821.748" style="stroke:#181818;stroke-width:1.0;"/><line style="stroke:#181818;stroke-width:1.0;" x1="517" x2="517" y1="617.7129" y2="652.7129"/><polygon fill="#181818" points="513,642.7129,517,652.7129,521,642.7129,517,646.7129" style="stroke:#181818;stroke-width:1.0;"/><line style="stroke:#181818;stroke-width:1.0;" x1="79" x2="79" y1="568.543" y2="601.3477"/><polygon fill="#181818" points="75,591.3477,79,601.3477,83,591.3477,79,595.3477" style="stroke:#181818;stroke-width:1.0;"/><line style="stroke:#181818;stroke-width:1.0;" x1="79" x2="79" y1="635.3164" y2="827.748"/><polygon fill="#181818" points="75,817.748,79,827.748,83,817.748,79,821.748" style="stroke:#181818;stroke-width:1.0;"/><line style="stroke:#181818;stroke-width:1.0;" x1="215" x2="215" y1="568.543" y2="601.3477"/><polygon fill="#181818" points="211,591.3477,215,601.3477,219,591.3477,215,595.3477" style="stroke:#181818;stroke-width:1.0;"/><line style="stroke:#181818;stroke-width:1.0;" x1="215" x2="215" y1="635.3164" y2="827.748"/><polygon fill="#181818" points="211,817.748,215,827.748,219,817.748,215,821.748" style="stroke:#181818;stroke-width:1.0;"/><line style="stroke:#181818;stroke-width:1.0;" x1="352" x2="352" y1="568.543" y2="601.3477"/><polygon fill="#181818" points="348,591.3477,352,601.3477,356,591.3477,352,595.3477" style="stroke:#181818;stroke-width:1.0;"/><line style="stroke:#181818;stroke-width:1.0;" x1="352" x2="352" y1="635.3164" y2="827.748"/><polygon fill="#181818" points="348,817.748,352,827.748,356,817.748,352,821.748" style="stroke:#181818;stroke-width:1.0;"/><line style="stroke:#181818;stroke-width:1.0;" x1="138" x2="158" y1="556.543" y2="556.543"/><polygon fill="#181818" points="148,552.543,158,556.543,148,560.543,152,556.543" style="stroke:#181818;stroke-width:1.0;"/><line style="stroke:#181818;stroke-width:1.0;" x1="272" x2="292" y1="556.543" y2="556.543"/><polygon fill="#181818" points="282,552.543,292,556.543,282,560.543,286,556.543" style="stroke:#181818;stroke-width:1.0;"/><line style="stroke:#181818;stroke-width:1.0;" x1="379" x2="379" y1="524.543" y2="529.543"/><line style="stroke:#181818;stroke-width:1.0;" x1="379" x2="79" y1="529.543" y2="529.543"/><line style="stroke:#181818;stroke-width:1.0;" x1="79" x2="79" y1="529.543" y2="544.543"/><polygon fill="#181818" points="75,534.543,79,544.543,83,534.543,79,538.543" style="stroke:#181818;stroke-width:1.0;"/><line style="stroke:#181818;stroke-width:1.0;" x1="412" x2="517" y1="556.543" y2="556.543"/><line style="stroke:#181818;stroke-width:1.0;" x1="517" x2="517" y1="556.543" y2="583.7441"/><polygon fill="#181818" points="513,573.7441,517,583.7441,521,573.7441,517,577.7441" style="stroke:#181818;stroke-width:1.0;"/><line style="stroke:#181818;stroke-width:1.0;" x1="79" x2="517" y1="827.748" y2="827.748"/><line style="stroke:#181818;stroke-width:1.0;" x1="379" x2="379" y1="827.748" y2="847.748"/><polygon fill="#181818" points="375,837.748,379,847.748,383,837.748,379,841.748" style="stroke:#181818;stroke-width:1.0;"/><line style="stroke:#181818;stroke-width:1.0;" x1="379" x2="379" y1="881.7168" y2="901.7168"/><polygon fill="#181818" points="375,891.7168,379,901.7168,383,891.7168,379,895.7168" style="stroke:#181818;stroke-width:1.0;"/><!--SRC=[fLB1JiCm3BtdAtoYss07EAP2ky1V8AIiTMb4wWJ75ThVuxIYOmp6WHwYHlPxVdb-MHoBiPkDfpJAPcCXUC8RI35dlmy8oJ6IvDgOzzxhVTL51XV2MOU5j3QWd-zWLQNdkmgwE5AxMuFqIB0wO9uRocS5UG2VuMrqBJlnJRtK2a5K37zIwpn6rnuk4Kwax7n6UC3Si4_Y8pqoHwvFcYWA0lkNNkmq72ObmvW5zWXFLCWXKZXCXHCeKhlSCUYa5SMZ0gtwRhdjLV6hCV-OUZvXThPIEoBXdsQujeK44XSNWyzoweLjCQ0AIz1n72ODPVsGXJszr3yyRVxJSqg3CVQzTmACW_EKopjqfOMcYTXfPehYkQXyS0_Lje9poRPq5-JsjZRbsMUmYwZhtr2xYp0jpxYZoNFj7heGdHovrlKIR2o1-YNIVwNlQmOeqfR6OQyXLzEQth5hTFFPVC_QgS35VZsDPPIHQOxIroN3rQV_MMBw0000]--></g></svg>