<?xml version="1.0" encoding="us-ascii" standalone="no"?><svg xmlns="http://www.w3.org/2000/svg" xmlns:xlink="http://www.w3.org/1999/xlink" contentStyleType="text/css" height="719px" preserveAspectRatio="none" style="width:578px;height:719px;background:#FFFFFF;" version="1.1" viewBox="0 0 578 719" width="578px" zoomAndPan="magnify"><defs/><g><ellipse cx="313.75" cy="20" fill="#222222" rx="10" ry="10" style="stroke:#222222;stroke-width:1.0;"/><rect fill="#F1F1F1" height="33.9688" rx="12.5" ry="12.5" style="stroke:#181818;stroke-width:0.5;" width="169" x="229.25" y="50"/><text fill="#000000" font-family="sans-serif" font-size="12" font-weight="bold" lengthAdjust="spacing" textLength="37" x="239.25" y="71.1387">input</text><text fill="#000000" font-family="sans-serif" font-size="12" lengthAdjust="spacing" textLength="112" x="276.25" y="71.1387">: adjacency matrix</text><rect fill="#F1F1F1" height="33.9688" rx="12.5" ry="12.5" style="stroke:#181818;stroke-width:0.5;" width="283" x="172.25" y="103.9688"/><text fill="#000000" font-family="sans-serif" font-size="12" font-weight="bold" lengthAdjust="spacing" textLength="49" x="182.25" y="125.1074">initiate</text><text fill="#000000" font-family="sans-serif" font-size="12" lengthAdjust="spacing" textLength="214" x="231.25" y="125.1074">: ordered_list=[], covered_nodes=0</text><rect fill="#F1F1F1" height="33.9688" rx="12.5" ry="12.5" style="stroke:#181818;stroke-width:0.5;" width="208" x="209.75" y="201.9375"/><text fill="#000000" font-family="sans-serif" font-size="12" lengthAdjust="spacing" textLength="188" x="219.75" y="223.0762">column=node, row=all parents</text><rect fill="#F1F1F1" height="47.9375" rx="12.5" ry="12.5" style="stroke:#181818;stroke-width:0.5;" width="259" x="184.25" y="255.9063"/><text fill="#000000" font-family="sans-serif" font-size="12" font-style="italic" lengthAdjust="spacing" textLength="235" x="194.25" y="277.0449">find node with no parents : assign to N</text><text fill="#000000" font-family="sans-serif" font-size="12" lengthAdjust="spacing" textLength="4" x="429.25" y="277.0449">&#160;</text><text fill="#000000" font-family="sans-serif" font-size="12" lengthAdjust="spacing" textLength="167" x="230.25" y="291.0137">columns with sum(rows)=0</text><polygon fill="#F1F1F1" points="282.75,323.8438,344.75,323.8438,356.75,335.8438,344.75,347.8438,282.75,347.8438,270.75,335.8438,282.75,323.8438" style="stroke:#181818;stroke-width:0.5;"/><text fill="#000000" font-family="sans-serif" font-size="11" lengthAdjust="spacing" textLength="62" x="282.75" y="339.6519">len N == 0</text><text fill="#000000" font-family="sans-serif" font-size="11" lengthAdjust="spacing" textLength="20" x="234.75" y="333.2495">yes</text><text fill="#000000" font-family="sans-serif" font-size="11" lengthAdjust="spacing" textLength="4" x="266.75" y="333.2495">&#160;</text><text fill="#000000" font-family="sans-serif" font-size="11" lengthAdjust="spacing" textLength="14" x="372.75" y="333.2495">no</text><path d="M38,357.8438 L38,398.1094 A0,0 0 0 0 38,398.1094 L147,398.1094 A0,0 0 0 0 147,398.1094 L147,381.9766 L167,377.9766 L147,373.9766 L147,367.8438 L137,357.8438 L38,357.8438 A0,0 0 0 0 38,357.8438 " fill="#FEFFDD" style="stroke:#181818;stroke-width:0.5;"/><path d="M137,357.8438 L137,367.8438 L147,367.8438 L137,357.8438 " fill="#FEFFDD" style="stroke:#181818;stroke-width:0.5;"/><text fill="#000000" font-family="sans-serif" font-size="13" lengthAdjust="spacing" textLength="88" x="44" y="374.9106">no parentless</text><text fill="#000000" font-family="sans-serif" font-size="13" lengthAdjust="spacing" textLength="32" x="48" y="390.0435">node</text><rect fill="#F1F1F1" height="33.9688" rx="12.5" ry="12.5" style="stroke:#181818;stroke-width:0.5;" width="98" x="167" y="360.9922"/><text fill="#000000" font-family="sans-serif" font-size="12" lengthAdjust="spacing" textLength="78" x="177" y="382.1309">error: acyclic</text><ellipse cx="216" cy="436.5938" fill="none" rx="10" ry="10" style="stroke:#222222;stroke-width:1.5;"/><line style="stroke:#222222;stroke-width:2.5;" x1="209.8128" x2="222.1872" y1="430.4066" y2="442.7809"/><line style="stroke:#222222;stroke-width:2.5;" x1="222.1872" x2="209.8128" y1="430.4066" y2="442.7809"/><rect fill="#F1F1F1" height="33.9688" rx="12.5" ry="12.5" style="stroke:#181818;stroke-width:0.5;" width="146" x="338.5" y="357.8438"/><text fill="#000000" font-family="sans-serif" font-size="12" lengthAdjust="spacing" textLength="126" x="348.5" y="378.9824">add N to ordered_list</text><rect fill="#F1F1F1" height="33.9688" rx="12.5" ry="12.5" style="stroke:#181818;stroke-width:0.5;" width="169" x="327" y="420.2969"/><text fill="#000000" font-family="sans-serif" font-size="12" lengthAdjust="spacing" textLength="149" x="337" y="441.4355">covered_nodes += len N</text><rect fill="#F1F1F1" height="47.9375" rx="12.5" ry="12.5" style="stroke:#181818;stroke-width:0.5;" width="216" x="303.5" y="474.2656"/><text fill="#000000" font-family="sans-serif" font-size="12" font-style="italic" lengthAdjust="spacing" textLength="188" x="313.5" y="495.4043">remove outgoing edges from N</text><text fill="#000000" font-family="sans-serif" font-size="12" lengthAdjust="spacing" textLength="4" x="501.5" y="495.4043">:</text><text fill="#000000" font-family="sans-serif" font-size="12" lengthAdjust="spacing" textLength="123" x="349.5" y="509.373">set all rows of N to 0</text><rect fill="#F1F1F1" height="47.9375" rx="12.5" ry="12.5" style="stroke:#181818;stroke-width:0.5;" width="253" x="285" y="542.2031"/><text fill="#000000" font-family="sans-serif" font-size="12" font-style="italic" lengthAdjust="spacing" textLength="155" x="327" y="563.3418">eliminate N from columns</text><text fill="#000000" font-family="sans-serif" font-size="12" lengthAdjust="spacing" textLength="4" x="482" y="563.3418">:</text><text fill="#000000" font-family="sans-serif" font-size="12" lengthAdjust="spacing" textLength="229" x="299" y="577.3105">set N columns to 10 (a large number)</text><polygon fill="#F1F1F1" points="224.25,157.9375,403.25,157.9375,415.25,169.9375,403.25,181.9375,224.25,181.9375,212.25,169.9375,224.25,157.9375" style="stroke:#181818;stroke-width:0.5;"/><text fill="#000000" font-family="sans-serif" font-size="11" lengthAdjust="spacing" textLength="179" x="224.25" y="173.7456">covered_nodes &lt; total # nodes</text><rect fill="#F1F1F1" height="33.9688" rx="12.5" ry="12.5" style="stroke:#181818;stroke-width:0.5;" width="132" x="247.75" y="632.1406"/><text fill="#000000" font-family="sans-serif" font-size="12" lengthAdjust="spacing" textLength="112" x="257.75" y="653.2793">return ordered_list</text><ellipse cx="313.75" cy="697.1094" fill="none" rx="11" ry="11" style="stroke:#222222;stroke-width:1.0;"/><ellipse cx="313.75" cy="697.1094" fill="#222222" rx="6" ry="6" style="stroke:#111111;stroke-width:1.0;"/><line style="stroke:#181818;stroke-width:1.0;" x1="313.75" x2="313.75" y1="30" y2="50"/><polygon fill="#181818" points="309.75,40,313.75,50,317.75,40,313.75,44" style="stroke:#181818;stroke-width:1.0;"/><line style="stroke:#181818;stroke-width:1.0;" x1="313.75" x2="313.75" y1="83.9688" y2="103.9688"/><polygon fill="#181818" points="309.75,93.9688,313.75,103.9688,317.75,93.9688,313.75,97.9688" style="stroke:#181818;stroke-width:1.0;"/><line style="stroke:#181818;stroke-width:1.0;" x1="313.75" x2="313.75" y1="235.9063" y2="255.9063"/><polygon fill="#181818" points="309.75,245.9063,313.75,255.9063,317.75,245.9063,313.75,249.9063" style="stroke:#181818;stroke-width:1.0;"/><line style="stroke:#181818;stroke-width:1.0;" x1="216" x2="216" y1="394.9609" y2="426.5938"/><polygon fill="#181818" points="212,416.5938,216,426.5938,220,416.5938,216,420.5938" style="stroke:#181818;stroke-width:1.0;"/><line style="stroke:#181818;stroke-width:1.0;" x1="411.5" x2="411.5" y1="391.8125" y2="420.2969"/><polygon fill="#181818" points="407.5,410.2969,411.5,420.2969,415.5,410.2969,411.5,414.2969" style="stroke:#181818;stroke-width:1.0;"/><line style="stroke:#181818;stroke-width:1.0;" x1="411.5" x2="411.5" y1="454.2656" y2="474.2656"/><polygon fill="#181818" points="407.5,464.2656,411.5,474.2656,415.5,464.2656,411.5,468.2656" style="stroke:#181818;stroke-width:1.0;"/><line style="stroke:#181818;stroke-width:1.0;" x1="411.5" x2="411.5" y1="522.2031" y2="542.2031"/><polygon fill="#181818" points="407.5,532.2031,411.5,542.2031,415.5,532.2031,411.5,536.2031" style="stroke:#181818;stroke-width:1.0;"/><line style="stroke:#181818;stroke-width:1.0;" x1="270.75" x2="216" y1="335.8438" y2="335.8438"/><line style="stroke:#181818;stroke-width:1.0;" x1="216" x2="216" y1="335.8438" y2="360.9922"/><polygon fill="#181818" points="212,350.9922,216,360.9922,220,350.9922,216,354.9922" style="stroke:#181818;stroke-width:1.0;"/><line style="stroke:#181818;stroke-width:1.0;" x1="356.75" x2="411.5" y1="335.8438" y2="335.8438"/><line style="stroke:#181818;stroke-width:1.0;" x1="411.5" x2="411.5" y1="335.8438" y2="357.8438"/><polygon fill="#181818" points="407.5,347.8438,411.5,357.8438,415.5,347.8438,411.5,351.8438" style="stroke:#181818;stroke-width:1.0;"/><line style="stroke:#181818;stroke-width:1.0;" x1="411.5" x2="411.5" y1="590.1406" y2="600.1406"/><line style="stroke:#181818;stroke-width:1.0;" x1="411.5" x2="552" y1="600.1406" y2="600.1406"/><polygon fill="#181818" points="548,400.2969,552,390.2969,556,400.2969,552,396.2969" style="stroke:#181818;stroke-width:1.0;"/><line style="stroke:#181818;stroke-width:1.0;" x1="552" x2="552" y1="169.9375" y2="600.1406"/><line style="stroke:#181818;stroke-width:1.0;" x1="552" x2="415.25" y1="169.9375" y2="169.9375"/><polygon fill="#181818" points="425.25,165.9375,415.25,169.9375,425.25,173.9375,421.25,169.9375" style="stroke:#181818;stroke-width:1.0;"/><line style="stroke:#181818;stroke-width:1.0;" x1="313.75" x2="313.75" y1="303.8438" y2="323.8438"/><polygon fill="#181818" points="309.75,313.8438,313.75,323.8438,317.75,313.8438,313.75,317.8438" style="stroke:#181818;stroke-width:1.0;"/><line style="stroke:#181818;stroke-width:1.0;" x1="313.75" x2="313.75" y1="181.9375" y2="201.9375"/><polygon fill="#181818" points="309.75,191.9375,313.75,201.9375,317.75,191.9375,313.75,195.9375" style="stroke:#181818;stroke-width:1.0;"/><line style="stroke:#181818;stroke-width:1.0;" x1="212.25" x2="24" y1="169.9375" y2="169.9375"/><polygon fill="#181818" points="20,386.2969,24,396.2969,28,386.2969,24,390.2969" style="stroke:#181818;stroke-width:1.0;"/><line style="stroke:#181818;stroke-width:1.0;" x1="24" x2="24" y1="169.9375" y2="612.1406"/><line style="stroke:#181818;stroke-width:1.0;" x1="24" x2="313.75" y1="612.1406" y2="612.1406"/><line style="stroke:#181818;stroke-width:1.0;" x1="313.75" x2="313.75" y1="612.1406" y2="632.1406"/><polygon fill="#181818" points="309.75,622.1406,313.75,632.1406,317.75,622.1406,313.75,626.1406" style="stroke:#181818;stroke-width:1.0;"/><line style="stroke:#181818;stroke-width:1.0;" x1="313.75" x2="313.75" y1="137.9375" y2="157.9375"/><polygon fill="#181818" points="309.75,147.9375,313.75,157.9375,317.75,147.9375,313.75,151.9375" style="stroke:#181818;stroke-width:1.0;"/><line style="stroke:#181818;stroke-width:1.0;" x1="313.75" x2="313.75" y1="666.1094" y2="686.1094"/><polygon fill="#181818" points="309.75,676.1094,313.75,686.1094,317.75,676.1094,313.75,680.1094" style="stroke:#181818;stroke-width:1.0;"/><!--SRC=[NP91ReGm34NtEOMbRe2E1Dr2kS9Se5HLIWoJAZYZn7Gwjwz9sXbQDYJnz_FFXyWwi6ghoj9vvQfgGPiFFIADLrWq1_lLvQfbgnatWGy60vetPoFtBwy76FrdEY1lCFPDfvIwdAn3AFvKu1dOitRm06bVAf2d7RrR5-gtemC4V-crSt3M0ObZboLrFLaogGikba-o-bM068xHpYHiEDOr33GmP6RCuhWkXN1ZkLdRU7Q2mY714VeUcXBu99lYYb4wiwaq5KFmGV3ZTNHsx6u5yepWSEBsxiDXZ0CbXpSTaabhT56Yo9qxl3P678ZhVPxtAUtVx1vxI9PtWheEk8W8_CgpjpG3cbcaK_3B5aMRiuZ8i4MwHG1-oZER7MVWkaPd5qloWQMS-dyIp9J4EDvIbVwd1WeDJeSPWTRb7KEPYN9fEoabh_GBg3OWhu7-NJAoFwjl]--></g></svg>